<svg width="401" height="310" viewBox="0 0 401 310" fill="none" xmlns="http://www.w3.org/2000/svg">
<path fill-rule="evenodd" clip-rule="evenodd" d="M298.14 284.419C281.849 290.097 273.43 291.663 294.501 289.162C302.108 288.256 310.297 286.887 318.579 284.947C337.821 280.446 372.825 251.416 374.864 248.327C372.704 249.366 371.55 242.507 367.269 244.216C358.404 247.75 345.312 260.803 333.908 270.91C331.16 273.345 314.238 278.802 298.14 284.419Z" fill="#51252F"/>
<path fill-rule="evenodd" clip-rule="evenodd" d="M298.14 284.419C281.849 290.097 273.43 291.663 294.501 289.162C302.108 288.256 310.297 286.887 318.579 284.947C337.821 280.446 372.825 251.416 374.864 248.327C372.704 249.366 371.55 242.507 367.269 244.216C358.404 247.75 345.312 260.803 333.908 270.91C331.16 273.345 314.238 278.802 298.14 284.419Z" fill="black" fill-opacity="0.3"/>
<path fill-rule="evenodd" clip-rule="evenodd" d="M369.703 246.816C369.703 246.816 372.803 251.674 375.342 252.499C380.53 254.192 393.204 243.996 400.855 256.956C402.328 259.451 392.363 264.766 382.185 270.213C372.787 275.241 364.053 278.825 361.305 278.055C354.968 276.286 353.616 270.933 353.067 268.795C352.622 267.047 352.863 264.37 352.297 262.969C351.198 260.243 349.253 259.391 348.945 258.869C348.131 257.484 369.703 246.816 369.703 246.816Z" fill="#333333"/>
<path fill-rule="evenodd" clip-rule="evenodd" d="M325.917 276.434C325.917 276.434 327.423 281.996 329.594 283.546C334.045 286.712 349.181 280.776 352.605 295.434C353.265 298.253 342.168 300.342 330.819 302.491C320.349 304.48 310.951 305.283 308.555 303.727C303.037 300.144 303.35 294.631 303.465 292.428C303.564 290.625 304.592 288.146 304.471 286.64C304.24 283.705 302.636 282.315 302.498 281.721C302.141 280.155 325.917 276.434 325.917 276.434Z" fill="#333333"/>
<path fill-rule="evenodd" clip-rule="evenodd" d="M236.331 129.981C236.331 129.981 237.057 141.616 257.507 157.901C265.499 164.265 281.074 158.967 296.348 168.151C323.163 184.271 364.466 228.734 376.381 245.227C376.705 245.678 375.392 248.519 372.754 250.646C372.655 250.729 370.858 248.508 370.171 247.569C363.537 250.751 350.824 255.912 333.908 270.91C325.537 278.33 317.991 284.145 308.862 290.482C301.245 295.774 280.404 275.444 274.221 273.801C258.024 269.498 242.959 287.129 239.145 271.79C237.062 263.408 216.293 300.215 205.004 285.277C201.69 280.886 213.418 256.181 207.944 250.877C197.392 240.655 178.727 238.83 163.904 236.494C138.623 232.52 205.207 147.019 209.285 154.174L216.309 139.165L236.331 129.981Z" fill="#51252F"/>
<path fill-rule="evenodd" clip-rule="evenodd" d="M299.167 199.017C299.425 199.677 299.925 200.671 300.469 201.694C301.437 203.502 302.541 205.376 302.64 205.546C303.8 207.519 305.229 209.69 306.823 211.922C307.785 213.263 308.796 214.631 309.857 215.994C311.407 217.995 313.039 219.984 314.66 221.892C317.364 225.085 320.035 228.036 322.239 230.41C322.344 230.531 322.525 230.537 322.646 230.432C322.761 230.328 322.772 230.147 322.668 230.026C320.541 227.591 317.991 224.552 315.364 221.309C313.797 219.374 312.204 217.363 310.665 215.368C309.615 214.016 308.587 212.669 307.614 211.35C305.998 209.163 304.526 207.058 303.333 205.129C303.228 204.964 302.08 203.128 301.069 201.358C300.508 200.386 299.991 199.429 299.722 198.792C299.656 198.638 299.486 198.566 299.332 198.627C299.178 198.687 299.106 198.863 299.167 199.017Z" fill="black" fill-opacity="0.5"/>
<path fill-rule="evenodd" clip-rule="evenodd" d="M134.94 205.343C133.506 205.843 131.132 219.066 125.647 224.859C119.942 230.888 110.774 230.729 107.828 231.482C98.0235 233.999 106.361 242.584 116.738 243.699C124.85 244.568 134.198 246.662 140.568 243.639C142.745 242.606 146.009 236.23 147.57 231.493C149.071 226.936 149.879 222.391 150.263 220.797C151.615 215.191 138.727 204.018 134.94 205.343Z" fill="#FFD6BC"/>
<path fill-rule="evenodd" clip-rule="evenodd" d="M120.046 228.448C122.568 232.334 138.963 241.226 143.909 241.1C148.768 240.985 149.026 229.619 149.713 227.717C150.131 226.552 155.742 225.376 160.227 219.05C161.458 217.313 165.685 208.64 166.52 207.107C168.729 203.067 171.686 198.061 173.082 195.389C175.605 190.558 181.629 175.78 177.853 166.189C174.753 158.308 160.26 158.005 154.517 160.995C152.252 162.171 149.015 164.227 146.069 168.069C143.321 171.658 140.315 175.659 138.023 179.764C134.775 185.568 133.599 191.768 133.159 192.779C130.917 197.94 128.911 201.16 128.46 204.496C127.833 209.195 128.449 212.883 128.784 217.802C128.861 218.956 117.55 224.601 120.046 228.448Z" fill="#51252F"/>
<path fill-rule="evenodd" clip-rule="evenodd" d="M153.456 58.5385C152.516 66.3978 155.259 80.006 154.149 90.6628C153 101.594 148.444 118.693 146.592 124.134C139.996 143.502 138.809 179.099 125.839 205.239C122.766 211.427 120.799 217.203 121.502 223.92C121.535 224.227 126.762 219.374 126.91 219.682C131.73 229.679 181.618 253.802 196.045 257.819C198.798 258.583 205.63 256.379 209.444 255.247C209.312 254.005 209.29 252.395 208.103 250.938C206.79 249.328 202.931 246.855 202.97 246.816C206.361 243.156 211.269 238.676 218.419 232.521C233.528 219.517 260.662 225.673 269.378 217.379C281.953 205.398 276.897 191.68 281.953 179.764C286.856 168.217 293.391 167.992 298.035 169.256C298.546 169.536 304.987 174.087 305.372 174.235C305.487 174.285 305.196 173.537 305.064 173.202C304.806 172.537 304.443 171.872 303.904 171.246C295.441 161.413 290.142 159.44 281.953 158.138C272.214 156.582 256.155 160.418 246.685 139.121C244.349 133.862 237.254 121.391 234.424 111.828C230.791 99.5334 225.328 67.7004 224.877 65.3371C223.091 56.0048 220.557 46.8924 216.638 41.3524C211.34 33.8503 209.092 32.3279 204.47 31.8388C199.068 31.2672 193.286 30.3218 188.257 30.5582C181.068 30.8934 168.856 32.9929 162.112 40.2917C156.122 46.788 154.253 51.8608 153.456 58.5385Z" fill="#7B2C2C"/>
<path fill-rule="evenodd" clip-rule="evenodd" d="M180.079 179.671C180.101 180.715 180.019 181.787 179.893 182.858C179.7 184.557 179.392 186.26 179.173 187.876C179.008 189.151 178.826 190.421 178.656 191.691C178.48 192.96 178.31 194.23 178.145 195.505C177.942 197.027 177.755 198.555 177.557 200.083C177.265 202.375 176.98 204.667 176.677 206.959C176.655 207.118 176.765 207.261 176.919 207.288C177.079 207.31 177.222 207.2 177.249 207.046C177.65 204.771 178.051 202.49 178.425 200.209C178.672 198.687 178.92 197.165 179.14 195.642C179.327 194.367 179.491 193.092 179.651 191.817C179.81 190.542 179.948 189.267 180.085 187.986C180.25 186.359 180.503 184.639 180.635 182.93C180.722 181.77 180.755 180.616 180.679 179.5C180.662 179.324 180.574 179.242 180.503 179.198C180.415 179.154 180.283 179.121 180.129 179.231C179.997 179.324 179.964 179.511 180.057 179.649C180.063 179.654 180.074 179.665 180.079 179.671ZM253.177 180.847C253.842 181.017 254.507 181.193 255.194 181.353C255.639 181.457 256.09 181.561 256.54 181.655C256.919 181.732 257.293 181.803 257.672 181.869C258.052 181.93 258.431 181.979 258.816 182.034L260.618 182.232L261.959 182.369C262.113 182.397 262.262 182.292 262.289 182.138C262.317 181.985 262.212 181.831 262.058 181.803L260.745 181.479L258.975 181.078C258.596 181.006 258.222 180.924 257.843 180.863C257.464 180.797 257.084 180.742 256.711 180.687C256.249 180.627 255.793 180.567 255.342 180.512C254.65 180.429 253.968 180.352 253.287 180.264C253.127 180.231 252.968 180.341 252.94 180.501C252.907 180.66 253.012 180.819 253.177 180.847ZM221.712 165.299C221.728 165.266 221.728 165.233 221.706 165.233V165.26C221.706 165.266 221.706 165.277 221.706 165.288V165.293L221.712 165.299C221.701 165.326 221.69 165.359 221.679 165.381C221.695 165.354 221.701 165.321 221.706 165.293C221.679 165.266 221.673 165.244 221.695 165.238C221.701 165.233 221.706 165.233 221.706 165.233C221.701 165.134 221.651 165.046 221.558 164.991C221.415 164.908 221.234 164.958 221.151 165.101C221.102 165.189 221.08 165.304 221.14 165.458C221.201 165.623 221.437 165.909 221.789 166.244C222.751 167.173 224.575 168.591 224.834 168.816C227.109 170.74 229.39 172.377 231.72 173.757C233.38 174.73 235.056 175.582 236.771 176.318C238.502 177.066 240.272 177.703 242.08 178.258C244.724 179.072 247.455 179.704 250.286 180.253C250.44 180.286 250.594 180.187 250.627 180.033C250.66 179.88 250.561 179.726 250.407 179.693C247.62 179.044 244.949 178.302 242.35 177.417C240.591 176.818 238.871 176.148 237.172 175.395C235.501 174.653 233.853 173.834 232.215 172.9C229.901 171.586 227.609 170.058 225.323 168.222C225.021 167.981 222.663 166.282 221.877 165.458C221.827 165.403 221.75 165.348 221.712 165.299ZM159.271 134.202C158.964 136.587 158.628 138.967 158.282 141.352C158.051 142.935 157.815 144.524 157.573 146.106C157.397 147.299 157.21 148.486 157.035 149.673C156.853 150.866 156.677 152.053 156.501 153.246C156.232 155.027 155.963 156.807 155.683 158.593C155.402 160.374 155.116 162.155 154.814 163.936C154.781 164.095 154.886 164.243 155.04 164.271C155.193 164.304 155.347 164.199 155.375 164.046C156.001 161.089 156.6 158.137 157.145 155.18C157.359 153.993 157.568 152.806 157.76 151.613C157.892 150.822 158.013 150.025 158.134 149.234C158.425 147.244 158.683 145.249 158.925 143.26C159.288 140.264 159.585 137.269 159.865 134.268C159.882 134.103 159.766 133.955 159.601 133.938C159.436 133.916 159.288 134.037 159.271 134.202ZM161.618 98.3569C161.629 98.5218 161.574 98.7856 161.574 98.7966C161.58 99.9343 161.558 101.077 161.525 102.215C161.486 103.358 161.431 104.496 161.365 105.634L160.486 119.654L159.98 127.425C159.964 127.585 160.079 127.722 160.239 127.739C160.393 127.755 160.536 127.64 160.552 127.48C160.7 126.189 160.849 124.897 160.986 123.606C161.124 122.314 161.25 121.017 161.371 119.726C161.497 118.319 161.629 116.917 161.739 115.516C161.816 114.581 161.882 113.647 161.937 112.707C162.08 110.366 162.173 108.019 162.245 105.672C162.272 104.523 162.289 103.375 162.283 102.226C162.278 101.077 162.256 99.9288 162.201 98.7801C162.201 98.7636 162.195 98.214 162.096 97.9997C162.03 97.8458 161.915 97.7689 161.811 97.7524C161.723 97.7359 161.618 97.7414 161.508 97.8348C161.382 97.9392 161.36 98.1261 161.459 98.2525C161.503 98.3075 161.558 98.3404 161.618 98.3569ZM161.618 98.313C161.613 98.2855 161.607 98.258 161.591 98.247C161.58 98.2305 161.563 98.225 161.541 98.236C161.492 98.258 161.552 98.291 161.618 98.313Z" fill="black" fill-opacity="0.71"/>
<path fill-rule="evenodd" clip-rule="evenodd" d="M265.339 190.267C263.641 190.366 258.227 193.284 257.21 194.642C256.199 196.005 257.562 198.533 259.255 198.434C260.948 198.335 266.361 195.417 267.378 194.059C268.389 192.696 267.032 190.174 265.339 190.267Z" fill="#51252F"/>
<path fill-rule="evenodd" clip-rule="evenodd" d="M203.498 38.0379C198.854 38.9118 191.698 45.8148 188.384 52.9597C182.509 65.606 184.394 74.8613 185.647 78.6041C187.158 83.1109 189.818 89.14 191.813 90.4481C194.243 92.0419 197.447 92.7949 202.641 93.5204C207.208 94.1579 212.055 93.9875 214.754 92.5366C217.837 90.8768 222.003 83.9738 222.861 78.5272C224.344 69.074 223.586 70.8602 219.431 55.9165C218.359 52.0693 216.892 47.8593 214.496 44.809C210.868 40.1759 205.927 37.5818 203.498 38.0379Z" fill="#FFD6BC"/>
<path fill-rule="evenodd" clip-rule="evenodd" d="M191.62 47.5517C196.055 44.3146 200.908 41.5995 205.151 41.1104C207.427 40.8466 209.872 41.3797 212.307 42.3909C209.076 39.3022 205.465 37.6698 203.497 38.0381C200.057 38.6866 195.237 42.6438 191.62 47.5517Z" fill="#51252F"/>
<path fill-rule="evenodd" clip-rule="evenodd" d="M188.861 116.126C189.114 113.559 189.416 99.3464 189.043 97.3569C188.202 92.8446 185.712 81.6382 184.695 74.5648C184.349 72.1741 184.261 70.1735 184.338 69.1732C184.459 67.6838 195.632 66.2493 210.631 61.2644C215.962 59.4947 218.848 57.2743 219.788 57.1094C219.974 57.0764 224.569 73.2513 227.169 81.3085C227.548 82.4901 230.73 95.8619 232.099 101.886C233.275 107.063 234.99 114.999 235.385 117.467C236.375 123.661 245.13 136.978 246.174 142.183C246.954 146.079 237.402 153.471 237.584 159.242C237.919 169.806 175.264 180.748 179.062 166.97C181.266 158.973 185.652 145.134 186.789 136.307C187.702 129.19 188.235 122.523 188.861 116.126Z" fill="#51252F"/>
<path fill-rule="evenodd" clip-rule="evenodd" d="M221.569 123.287C220.827 122.781 219.051 121.396 218.04 120.253C216.556 118.571 214.303 116.335 212.654 113.213C212.066 112.092 214.198 110.432 216.463 112.015C217.546 112.768 219.969 114.208 221.123 114.878C222.53 115.686 219.563 110.146 217.485 105.953C216.545 104.062 215.226 103.155 215.127 102.518C214.968 101.462 216.051 100.204 217.188 100.847C217.639 101.1 219.574 102.589 220.882 104.568C222.091 106.409 223.245 108.058 223.547 107.805C223.811 107.585 222.756 105.793 221.909 103.457C221.025 100.995 219.31 99.022 219.392 98.6208C219.618 97.4831 221.354 96.8456 221.882 97.8459C222.014 98.0987 223.855 99.8519 224.927 102.199C225.921 104.381 227.186 106.117 227.361 106.645C227.438 106.876 226.905 104.93 226.372 102.77C225.812 100.517 224.569 98.9671 224.498 97.9668C224.454 97.3457 225.449 96.6477 225.927 96.7687C226.449 96.9006 227.076 97.637 227.466 98.1921C228.136 99.1594 229.148 100.248 229.961 102.556C230.802 104.936 231.78 107.816 231.824 107.381C231.846 107.151 231.379 105.656 230.945 103.985C230.571 102.539 229.769 100.957 229.675 100.116C229.62 99.6431 229.912 98.7692 230.373 98.9286C231.126 99.1869 231.709 100.264 232.291 100.99C232.918 101.765 233.627 102.496 234.111 103.562C234.71 104.897 235.336 106.387 235.743 107.678C236.6 110.399 237.546 116.252 237.991 117.181C238.887 119.066 238.887 119.066 239.634 120.303C239.469 120.891 227.851 126.112 227.208 126.425C226.702 125.463 225.691 125.26 224.855 124.793C223.915 124.271 222.882 124.183 221.569 123.287Z" fill="#FFD6BC"/>
<path fill-rule="evenodd" clip-rule="evenodd" d="M217.034 121.72C219.562 118.066 234.918 110.426 239.524 110.278C243.761 110.14 245.295 120.687 246.125 122.221C246.63 123.155 250.577 122.056 255.413 126.876C256.743 128.2 261.552 136.153 262.399 137.417C263.674 139.302 264.921 145.441 263.151 148.492C261.052 152.119 257.342 155.812 253.303 157.818C249.274 159.819 244.938 160.374 241.371 160.044C237.793 159.72 233.11 155.373 232.17 153.845C229.609 149.706 226.735 145.128 226.004 142.342C224.971 138.423 225.916 136.153 225.773 131.921C225.74 130.926 214.512 125.375 217.034 121.72Z" fill="#51252F"/>
<path fill-rule="evenodd" clip-rule="evenodd" d="M217.035 123.117C217.051 123.029 217.035 122.941 216.98 122.864C216.776 122.606 216.562 122.76 216.502 122.82C216.463 122.859 216.414 122.93 216.414 123.051C216.414 123.139 216.523 123.496 216.573 123.639C216.628 123.787 216.683 123.936 216.749 124.084C216.809 124.227 216.875 124.375 216.947 124.518C217.172 124.969 217.447 125.376 217.755 125.749C218.062 126.118 218.403 126.458 218.782 126.783C219.926 127.767 221.184 128.585 222.366 129.509C222.86 129.888 223.333 130.295 223.784 130.734C224.015 130.96 224.438 131.262 224.768 131.592C224.927 131.746 225.075 131.9 225.103 132.064C225.306 133.29 225.251 134.543 225.158 135.802C225.064 137.104 224.921 138.407 224.927 139.698C224.932 140.374 224.982 141.039 225.092 141.704C225.29 142.831 225.641 143.941 226.109 145.046C226.757 146.552 227.625 148.047 228.609 149.553C229.714 151.235 230.907 152.735 232.143 154.093C233.495 155.571 234.897 156.879 236.265 158.072C236.381 158.176 236.562 158.171 236.672 158.05C236.776 157.934 236.765 157.747 236.65 157.643C235.331 156.428 233.995 155.093 232.704 153.592C231.533 152.235 230.401 150.74 229.362 149.075C228.433 147.591 227.625 146.129 227.026 144.661C226.598 143.623 226.273 142.584 226.098 141.534C225.933 140.556 225.922 139.561 225.966 138.561C226.032 137.005 226.218 135.439 226.191 133.9C226.18 133.23 226.125 132.565 226.004 131.905C225.955 131.641 225.801 131.372 225.57 131.119C225.213 130.734 224.669 130.372 224.388 130.108C223.905 129.652 223.394 129.239 222.866 128.849C221.668 127.964 220.398 127.184 219.239 126.233C218.887 125.947 218.563 125.645 218.271 125.31C217.985 124.98 217.727 124.628 217.513 124.227C217.447 124.095 217.381 123.963 217.32 123.831C217.26 123.694 217.2 123.562 217.145 123.419C217.117 123.353 217.068 123.221 217.035 123.117Z" fill="black" fill-opacity="0.3"/>
<path fill-rule="evenodd" clip-rule="evenodd" d="M226.828 132.163C227.35 131.745 228.032 131.663 228.697 131.547C229.538 131.399 230.362 131.223 230.978 130.657C232.159 129.569 232.549 128.552 234.138 127.557C234.825 127.123 235.402 127.063 236.001 127.013C236.732 126.953 237.49 126.909 238.48 126.469C240.167 125.722 240.683 124.985 241.75 123.715C241.865 123.578 242.036 123.507 242.217 123.463C242.481 123.402 242.777 123.391 243.08 123.391C243.833 123.386 244.63 123.435 245.19 123.215C245.454 123.116 245.58 122.82 245.476 122.55C245.372 122.287 245.069 122.155 244.806 122.254C244.553 122.352 244.228 122.363 243.888 122.363C243.47 122.369 243.03 122.347 242.624 122.369C241.942 122.407 241.338 122.589 240.958 123.045C240.007 124.183 239.562 124.859 238.051 125.524C237.194 125.903 236.534 125.93 235.902 125.985C235.149 126.046 234.44 126.139 233.577 126.683C231.928 127.722 231.511 128.755 230.274 129.893C229.801 130.327 229.153 130.421 228.504 130.531C227.674 130.673 226.839 130.827 226.179 131.349C225.96 131.525 225.927 131.85 226.103 132.075C226.284 132.3 226.608 132.339 226.828 132.163Z" fill="#333333" fill-opacity="0.42"/>
<path fill-rule="evenodd" clip-rule="evenodd" d="M308.494 257.868L249.812 244.09L243.327 280.627L305.476 279.528L308.494 257.868Z" fill="#FFD6BC"/>
<path fill-rule="evenodd" clip-rule="evenodd" d="M300.327 280.38C302.636 278.572 307.203 274.126 305.719 268.536C303.323 259.468 302.916 258.05 304.197 253.757C304.823 251.663 310.325 252.818 313.952 250.465C316.189 249.02 318.201 247.684 320.223 245.156C323.62 240.902 325.999 236.681 327.665 233.158C329.39 229.514 338.844 229.569 339.646 233.664C340.729 239.198 340.696 246.052 339.855 252.988C339.124 258.968 337.536 267.998 335.233 275.989C333.265 282.809 331.254 287.305 328.385 288.52C323.037 290.784 297.03 282.963 300.327 280.38Z" fill="#333333"/>
<path fill-rule="evenodd" clip-rule="evenodd" d="M140.497 217.017C140.497 217.017 261.756 238.99 286.697 247.745C293.034 249.971 291.292 262.771 290.149 269.537C289.005 276.302 286.268 289.652 279.844 288.344C264.444 285.2 241.69 277.303 216.178 276.418C186.345 275.373 157.414 285.53 143.113 285.2C135.644 285.03 128.016 286.085 120.695 284.689C109.56 282.557 98.8208 277.61 88.2519 273.439C82.2557 271.076 88.2519 254.818 88.2519 254.818L140.497 217.017Z" fill="#51252F"/>
<path fill-rule="evenodd" clip-rule="evenodd" d="M293.693 291.982L236.699 272.372L249.68 241.04L302.102 273.829L293.693 291.982Z" fill="#FFD6BC"/>
<mask id="mask0_510_6235" style="mask-type:luminance" maskUnits="userSpaceOnUse" x="276" y="261" width="62" height="49">
<path d="M276.501 261.034H337.002V309.185H276.501V261.034Z" fill="white"/>
</mask>
<g mask="url(#mask0_510_6235)">
<path fill-rule="evenodd" clip-rule="evenodd" d="M277.381 287.206C280.305 286.915 286.537 285.602 288.279 280.084C291.104 271.141 291.522 269.729 294.902 266.789C296.551 265.354 300.58 269.273 304.905 269.229C307.565 269.201 309.978 269.152 313.039 268.097C318.189 266.321 322.459 264.03 325.751 261.947C329.159 259.792 337.117 264.898 335.6 268.784C333.55 274.043 329.857 279.809 325.433 285.222C321.618 289.883 315.441 296.66 309.219 302.178C303.905 306.882 299.799 309.608 296.727 309.097C291 308.146 273.22 287.624 277.381 287.206Z" fill="#333333"/>
</g>
<path fill-rule="evenodd" clip-rule="evenodd" d="M309.066 302.309C311.088 300.957 314.578 297.698 318.37 293.631C320.206 291.664 322.119 289.504 323.96 287.278C324.685 286.409 325.394 285.524 326.087 284.645C327.159 283.282 328.181 281.914 329.137 280.578C332.22 276.264 334.606 272.241 335.425 269.509C335.474 269.355 335.386 269.196 335.238 269.146C335.084 269.102 334.925 269.185 334.875 269.333C334.243 271.251 332.776 273.785 330.841 276.621C329.385 278.753 327.659 281.045 325.823 283.359C324.993 284.403 324.141 285.459 323.284 286.497C321.987 288.075 320.668 289.636 319.371 291.125C315.067 296.06 310.989 300.226 308.725 301.815C308.593 301.908 308.555 302.095 308.648 302.227C308.741 302.364 308.928 302.397 309.066 302.309ZM307.609 269.355C307.576 269.278 307.851 269.267 308.071 269.201C309.115 268.894 311.407 268.349 313.254 267.827C314.347 267.519 315.282 267.212 315.754 266.97C316.936 266.354 318.162 265.684 319.426 265.03C320.629 264.409 321.871 263.815 323.141 263.321C324.823 262.667 326.56 262.194 328.357 262.122C330.989 262.012 331.127 261.172 328.329 261.205C326.422 261.232 324.565 261.683 322.773 262.37C321.465 262.87 320.195 263.502 318.964 264.161C317.711 264.832 316.502 265.546 315.337 266.189C315.023 266.36 314.479 266.569 313.825 266.794C311.957 267.426 309.203 268.179 307.966 268.586C307.549 268.723 307.279 268.844 307.219 268.904C307.098 269.02 307.093 269.207 307.203 269.328C307.312 269.443 307.488 269.454 307.609 269.355ZM307.609 269.355C307.615 269.366 307.62 269.344 307.626 269.344C307.62 269.344 307.615 269.35 307.609 269.355Z" fill="black" fill-opacity="0.5"/>
<path fill-rule="evenodd" clip-rule="evenodd" d="M222.371 223.722C214.413 219.814 205.701 216.824 196.858 216.203C184.267 215.318 146.822 218.412 146.822 218.412L106.602 240.974L88.2456 273.752C88.2456 273.752 89.9988 284.436 98.2264 284.914C103.805 285.239 109.741 285.536 113.978 285.634C129.251 285.975 159.04 283.678 184.256 270.883C188.861 268.558 194.275 268.443 198.969 270.575C222.156 280.957 245.729 288.916 254.968 291.977C261.327 294.087 269.538 279.243 272.368 273.752C275.193 268.267 279.425 258.544 274.457 254.346C265.701 246.964 235.303 230.081 222.371 223.722Z" fill="#51252F"/>
<path fill-rule="evenodd" clip-rule="evenodd" d="M261.739 245.695L267.147 249.454C267.674 249.828 268.279 250.245 268.933 250.68C269.499 251.059 270.104 251.46 270.708 251.872C271.89 252.675 273.093 253.521 274.083 254.422C275.067 255.318 275.858 256.242 276.199 257.203C276.248 257.352 276.408 257.44 276.561 257.39C276.71 257.341 276.798 257.181 276.748 257.027C276.358 255.653 275.198 254.257 273.736 252.971C272.819 252.158 271.791 251.383 270.774 250.685C269.664 249.921 268.559 249.256 267.685 248.673C267.312 248.426 266.707 248.041 266.009 247.607C264.695 246.788 263.058 245.794 262.068 245.194C261.931 245.101 261.744 245.14 261.656 245.282C261.563 245.42 261.601 245.601 261.739 245.695ZM276.078 244.013C276.05 244.007 275.209 243.996 275.127 244.046C274.979 244.128 275.116 244.403 275.534 244.535C275.638 244.568 275.929 244.617 275.979 244.628L277.54 244.925C278.045 245.008 278.545 245.118 279.04 245.238C279.793 245.42 280.541 245.64 281.277 245.865C282.541 246.239 283.866 246.563 285.119 246.948C285.619 247.102 286.114 247.266 286.581 247.453C287.312 247.745 287.982 248.085 288.559 248.536C289.73 249.454 290.505 250.795 290.571 252.933C290.571 253.092 290.697 253.219 290.857 253.219C291.016 253.219 291.142 253.092 291.142 252.933C291.219 250.509 290.406 248.943 289.131 247.844C288.131 246.981 286.828 246.404 285.416 245.969C284.157 245.585 282.81 245.321 281.524 244.98C280.887 244.815 280.249 244.661 279.601 244.529C278.952 244.392 278.298 244.282 277.639 244.211L276.078 244.013ZM275.83 244.387L275.825 244.398V244.392L275.83 244.387Z" fill="black" fill-opacity="0.39"/>
<path fill-rule="evenodd" clip-rule="evenodd" d="M108.564 85.9086C117.023 86.6121 122.914 88.1455 123.574 90.9485C123.678 91.3882 123.882 94.9881 123.882 94.9881C123.882 94.9881 123.134 100.924 112.241 101.633C111.186 101.704 117.424 98.4561 115.489 96.7962C114.011 95.5212 110.548 98.6704 107.536 98.4286C105.047 98.2252 103.975 95.4937 99.9575 96.0653C96.5444 96.5489 102.722 101.039 102.722 101.039L92.5928 92.3719C92.5928 92.3719 92.8456 88.9039 92.8786 88.5357C93.0434 86.5352 100.106 85.1996 108.564 85.9086Z" fill="black"/>
<path fill-rule="evenodd" clip-rule="evenodd" d="M125.8 87.4146C124.964 87.7938 122.733 87.7883 120.683 87.1013C118.693 86.4363 115.61 86.9584 114.313 86.6067C112.955 86.244 112.884 86.7496 106.866 83.0123C100.518 79.0661 117.561 83.5729 122.53 81.4954C127.877 79.2585 131.252 73.7295 132.345 72.3335C132.752 71.8169 134.489 73.6855 132.362 77.5108C131.675 78.7474 131.439 81.3525 130.829 82.4462C130.312 83.375 129.707 83.8697 128.954 85.1118C128.015 86.6671 126.184 87.2442 125.8 87.4146Z" fill="black"/>
<path fill-rule="evenodd" clip-rule="evenodd" d="M84.8268 57.8678C82.4525 57.0159 79.7265 58.1755 77.9733 60.3135C76.0332 62.6768 78.0887 70.3657 80.397 72.6246C82.9582 75.1308 87.3385 74.8285 90.6636 74.6691C90.9054 74.6526 91.6309 77.2523 92.131 78.6757C92.6587 80.1816 94.1865 81.1764 96.2036 81.9843C101.579 84.1443 105.508 84.8588 111.708 84.8588C116.77 84.8588 123.755 84.3366 126.432 83.3583C129.13 82.3636 130.037 81.1105 130.96 79.8299C135.022 74.18 135.451 67.5133 135.506 61.9843C135.528 59.9837 134.989 56.9884 134.17 54.1195C133.928 53.2676 136.138 53.9546 135.627 52.2948C135.066 50.4866 133.208 51.1406 132.906 50.2722C131.812 47.112 130.9 42.4899 130.873 42.3909C129.515 37.5654 125.899 24.0672 120.397 21.3246C115.561 18.9229 110.636 22.4403 99.5617 24.9355C87.4869 27.6561 86.5471 39.3406 82.4525 43.6001C80.1057 46.0348 83.9474 52.02 84.2277 56.6916L84.8268 57.8678Z" fill="#FFD6BC"/>
<mask id="mask1_510_6235" style="mask-type:luminance" maskUnits="userSpaceOnUse" x="55" y="0" width="77" height="73">
<path d="M55.605 0H131.582V72.4982H55.605V0Z" fill="white"/>
</mask>
<g mask="url(#mask1_510_6235)">
<path fill-rule="evenodd" clip-rule="evenodd" d="M106.724 0.345941C106.751 0.334949 106.779 0.323956 106.806 0.318461C107.658 0.197547 109.021 -0.000309937 110.714 0.142588C111.879 0.241515 113.203 0.505326 114.627 1.05493C115.748 1.5056 116.787 2.09368 117.705 2.72572C119.425 3.91287 120.75 5.2484 121.552 6.05632C121.601 6.10578 121.601 6.18273 121.546 6.2212C121.497 6.25967 121.415 6.25418 121.36 6.20471C120.656 5.53969 119.551 4.50094 118.15 3.50616C117.078 2.74771 115.831 2.00574 114.446 1.49461C113.138 0.994474 111.917 0.758144 110.835 0.653719C117.908 1.74743 119.42 5.45175 123.695 7.84802C127.268 9.85408 130.164 14.5972 130.285 19.4062C130.395 23.6436 129.587 27.8426 128.581 30.03C127.911 31.4865 126.345 31.2886 126.07 31.1512C120.788 33.7124 116.54 31.6348 115.49 31.5469C114.61 31.4755 114.429 33.8223 110.324 35.5096C106.35 37.1474 103.8 41.3353 101.118 41.5827C99.8317 41.6981 98.9193 42.1872 98.1828 42.9127C98.0509 43.5393 97.8641 44.2482 97.5783 45.0067C97.1716 46.1059 96.5615 47.3095 95.6492 48.5351C94.9182 49.497 94.0773 50.3378 93.2254 51.0468C92.6428 51.5305 92.0603 51.9592 91.5052 52.3329C90.3895 53.1958 89.0045 53.9597 87.2347 54.5368C88.213 58.9446 87.3941 57.1474 88.4823 61.264C88.5208 61.4124 87.0424 58.0048 83.9646 57.4552C81.9146 57.087 79.5073 57.9169 78.2982 60.8078C77.2979 63.1876 76.9956 66.117 80.4142 72.1021C79.6392 72.0197 74.7917 71.8768 73.5606 70.4753C71.0105 67.5734 67.2512 57.8949 62.8763 55.0809C60.9637 53.8498 57.2264 45.9465 56.5229 42.1762C56.0173 39.4557 56.347 36.999 57.0286 34.883C57.0341 34.8225 57.0341 34.7676 57.0341 34.7071C57.078 33.7948 57.2154 32.844 57.5067 31.9151C57.8859 30.7555 58.4191 29.8157 58.9906 29.0627C59.7766 28.024 60.623 27.3424 61.1836 26.9028C61.0736 26.1883 60.9088 25.0836 61.0462 23.748C61.1451 22.8082 61.3924 21.753 61.9035 20.6428C62.3212 19.7689 62.8708 18.983 63.4589 18.296C64.0525 17.6035 64.69 17.0044 65.2671 16.5153C65.9266 15.8008 66.7181 15.0698 67.6524 14.3169C73.6101 9.55179 80.7 6.84225 91.0985 4.86917C91.4007 4.53941 91.7415 4.19866 92.1317 3.85241C93.0056 3.07747 94.1103 2.30253 95.4898 1.654C96.5835 1.14836 97.7212 0.807607 98.8094 0.58227C100.848 0.159076 102.723 0.131594 103.849 0.115107C103.921 0.10961 103.976 0.159077 103.965 0.225028C103.959 0.290982 103.893 0.345941 103.827 0.351437C102.86 0.400901 101.354 0.477845 99.6778 0.802111C98.3917 1.04943 97.0012 1.43965 95.6767 2.08818C94.3686 2.71473 93.3244 3.46219 92.489 4.20416C92.39 4.29209 92.2911 4.38003 92.1977 4.46796C94.1433 3.37425 97.6937 0.2635 106.685 0.345941H106.724ZM97.4574 43.7756C97.3584 44.1218 97.243 44.4901 97.1001 44.8638C96.7099 45.9135 96.1438 47.0677 95.2809 48.2384C94.8577 48.8209 94.3961 49.3596 93.9179 49.8487C95.5008 47.7052 96.2867 45.4079 97.4574 43.7756ZM61.3649 27.337C60.8263 27.7656 60.0679 28.4087 59.3589 29.3485C58.8148 30.063 58.2926 30.9533 57.9299 32.058C57.7705 32.5197 57.6496 32.9814 57.5672 33.4485C58.8313 30.4587 60.6724 28.3207 61.3649 27.337ZM63.3215 19.0874C61.2165 22.6543 61.9585 25.4518 61.6232 26.7928C61.5188 26.1058 61.3814 25.0561 61.5078 23.7975C61.6013 22.9017 61.8266 21.8959 62.3102 20.8351C62.5905 20.2086 62.9368 19.6205 63.3215 19.0874Z" fill="black"/>
</g>
<path fill-rule="evenodd" clip-rule="evenodd" d="M235.583 88.5957C242.712 86.8589 248.131 83.4789 248.384 83.259C249.032 82.7039 249.923 81.973 250.478 81.4014C250.972 80.8957 251.654 80.2362 251.956 79.5437C252.33 78.6918 252.044 77.6531 251.681 76.9496C251.489 76.5924 251.154 76.411 251.236 76.2296C251.813 74.982 251.555 73.7839 251.022 72.9705C250.516 72.2065 249.752 71.7998 249.741 71.6075C249.653 69.5574 248.466 68.2769 247.477 67.6118C246.784 67.1502 245.85 66.9193 246.081 66.6995C249.956 63.0996 250.104 63.204 254.446 59.1644C256.111 57.6146 257.298 54.0311 255.968 52.8825C255.435 52.4208 253.572 53.1023 251.297 54.7017C247.169 57.6036 245.278 58.428 241.036 61.852C240.508 62.2807 236.122 64.2977 233.748 65.2705C231.577 66.1554 229.543 67.4799 227.653 69.0023C227.268 69.3156 225.619 71.2337 225.245 71.5635C222.591 73.8828 221.525 74.9161 219.574 77.1255C217.535 79.4338 212.83 81.4234 212.236 83.0117C212.451 83.9021 222.014 98.2412 222.937 98.7688C223.734 97.3783 231.374 91.2723 235.583 88.5957Z" fill="#FFD6BC"/>
<path fill-rule="evenodd" clip-rule="evenodd" d="M230.84 92.6357C228.301 89.1403 221.651 78.1317 219.309 74.1471C218.65 73.0204 223.497 69.7228 224.415 71.0693C226.658 74.3559 233.967 85.5568 235.946 89.5579C236.397 90.4593 231.412 93.4217 230.84 92.6357Z" fill="#51252F"/>
<path fill-rule="evenodd" clip-rule="evenodd" d="M157.342 104.441C159.733 102.996 162.08 101.611 164.256 100.352C167.686 98.3794 171.89 95.9446 176.463 93.334C189.489 85.8814 205.455 76.9503 214.726 72.8778C220.129 70.5035 222.888 75.6423 226.603 82.2485C231.204 90.4486 232.671 92.9768 230.549 96.4942C227.922 100.847 185.004 136.61 169.631 143.002C157.342 148.107 146.889 144.299 142.146 143.002C131.511 140.094 114.314 131.625 105.641 126.887C101.904 124.848 94.7205 118.561 95.1492 115.087C95.6878 110.756 105.515 98.6047 115.545 96.3733C131.308 92.8723 145.257 99.638 157.342 104.441Z" fill="#333333"/>
<path fill-rule="evenodd" clip-rule="evenodd" d="M123.888 97.076L109.725 97.851C109.725 97.851 106.4 95.8284 101.981 95.68C101.014 95.6471 94.5558 93.2233 89.362 93.5421C81.8709 93.9982 70.4007 100.89 68.3342 108.524C62.5029 130.08 70.4227 161.374 68.4166 209.684C67.6637 227.915 66.0259 273.499 89.362 285.332C107.142 294.351 166.785 290.492 191.022 292.548C205.658 293.79 223.388 294.763 234.787 297.67C236.425 298.088 240.739 291.811 241.91 287.541C241.937 287.437 234.76 285.04 234.787 284.936C236.76 277.615 238.656 266.282 242.492 259.072C248.049 248.646 257.612 248.178 261.064 245.244C262.174 244.298 261.294 241.677 263.202 241.44C268.285 242.787 273.111 243.892 273.111 243.892C273.111 243.892 270.874 240.429 269.022 239.654C261.817 236.642 257.381 232.482 248.478 228.711C233.715 222.468 216.221 211.234 205.433 209.684C190.17 207.491 162.893 209.97 160.799 207.238C155.204 199.934 149.972 154.251 149.263 150.069C147.235 138.109 144.971 123.935 143.888 116.746C142.443 107.227 135.946 103.204 131.83 100.775C129.313 99.2964 123.888 97.076 123.888 97.076Z" fill="#333333"/>
<path fill-rule="evenodd" clip-rule="evenodd" d="M29.0152 234.51C27.6247 235.126 26.3111 248.497 21.3042 254.708C16.094 261.166 6.94309 261.737 4.06867 262.727C-5.51092 266.013 3.48609 273.906 13.9231 274.191C22.0737 274.417 31.5598 275.758 37.6659 272.24C39.7544 271.037 42.5079 264.419 43.6841 259.577C44.8163 254.911 45.2614 250.322 45.5197 248.701C46.4211 243.007 32.6865 232.894 29.0152 234.51Z" fill="#FFD6BC"/>
<path fill-rule="evenodd" clip-rule="evenodd" d="M43.7666 259.154C39.672 257.769 27.883 252.636 23.6676 250.74C22.4804 250.207 24.525 244.705 26.0528 245.277C29.7792 246.662 42.2277 251.575 46.1518 253.691C47.0422 254.17 44.6899 259.468 43.7666 259.154Z" fill="#51252F"/>
<path fill-rule="evenodd" clip-rule="evenodd" d="M22.0406 242.677C21.6119 237.615 38.831 195.081 44.1017 174.828C46.2891 166.414 49.1305 157.461 50.5815 153.229C52.3897 147.925 54.4946 141.006 55.8027 136.274C58.7376 125.639 62.0297 118.714 66.7838 110.047C68.8338 106.315 75.1377 99.1426 78.6057 99.5823C82.9311 100.132 95.0664 109.981 97.2758 120.017C101.37 138.626 91.1697 154.675 86.7783 168.145C84.5854 174.878 78.8146 189.371 74.1924 199.715C72.5766 203.325 70.598 207.766 68.4326 212.564C62.2605 226.244 56.4347 244.139 51.8785 253.185C49.867 257.187 40.7875 253.119 35.8136 251.366C30.8397 249.618 22.3923 246.772 22.0406 242.677Z" fill="#333333"/>
<path fill-rule="evenodd" clip-rule="evenodd" d="M70.0707 209.998C68.0976 214.757 69.021 215.148 71.016 210.393C71.78 208.563 72.5439 206.717 73.3079 204.859C74.4456 202.1 75.5832 199.319 76.7099 196.538C79.5789 189.454 82.4038 182.369 85.0419 175.675C85.1024 175.527 85.0309 175.356 84.8825 175.301C84.7341 175.241 84.5693 175.312 84.5088 175.461C81.7663 182.111 78.8149 189.14 75.858 196.186C74.6929 198.951 73.5332 201.721 72.3791 204.469C71.6041 206.326 70.8347 208.168 70.0707 209.998ZM200.052 216.093C202.772 217.093 206.774 218.731 211.588 220.797C213.951 221.809 216.507 222.93 219.206 224.117C221.047 224.93 222.948 225.782 224.899 226.651C226.763 227.481 228.664 228.322 230.599 229.19C233.396 230.443 236.249 231.729 239.118 233.043C241.954 234.34 244.795 235.653 247.598 236.983C247.741 237.049 247.917 236.994 247.983 236.851C248.054 236.708 247.994 236.533 247.851 236.467C243.212 234.136 238.475 231.817 233.825 229.63C231.918 228.728 230.027 227.849 228.164 227.002C226.883 226.414 225.614 225.848 224.366 225.293C221.008 223.809 217.788 222.435 214.803 221.193C208.664 218.632 203.531 216.659 200.25 215.532C200.096 215.477 199.925 215.56 199.87 215.714C199.816 215.868 199.898 216.038 200.052 216.093ZM117.644 207.244C117.337 210.229 116.941 214.081 116.496 218.297C116.243 220.666 115.974 223.144 115.693 225.65C115.468 227.695 115.232 229.756 115.001 231.779C114.759 233.873 114.517 235.928 114.264 237.896C113.583 243.26 112.835 247.948 111.978 250.855C111.928 251.009 112.016 251.169 112.165 251.213C112.319 251.262 112.478 251.18 112.528 251.026C113.313 248.602 114.077 244.925 114.775 240.644C115.133 238.445 115.473 236.082 115.787 233.653C115.968 232.268 116.138 230.861 116.292 229.443C116.529 227.332 116.743 225.211 116.935 223.122C117.501 217.093 117.914 211.383 118.238 207.299C118.249 207.134 118.128 206.991 117.963 206.975C117.804 206.964 117.655 207.085 117.644 207.244ZM86.5478 171.954C87.1304 170.608 87.702 169.283 88.2571 167.981C88.6418 167.085 89.01 166.194 89.3728 165.321C89.7685 164.353 90.1642 163.408 90.5324 162.463C90.7853 161.82 91.0271 161.177 91.2634 160.544C91.7196 159.308 92.1538 158.099 92.5715 156.917C93.0112 155.664 93.4234 154.449 93.8246 153.273C93.8795 153.125 93.8081 152.96 93.6597 152.905C93.5113 152.85 93.3409 152.927 93.286 153.075C92.8133 154.219 92.3187 155.4 91.8075 156.626C91.3294 157.78 90.8402 158.967 90.3401 160.187C90.0873 160.814 89.8344 161.446 89.5816 162.094C89.2134 163.034 88.8562 163.996 88.4824 164.969L85.9927 171.729C85.9323 171.883 86.0037 172.059 86.1576 172.119C86.3115 172.18 86.4874 172.103 86.5478 171.954Z" fill="black" fill-opacity="0.5"/>
<path fill-rule="evenodd" clip-rule="evenodd" d="M144.344 122.622C144.35 122.622 144.35 122.633 144.35 122.649C144.371 122.715 144.415 122.77 144.476 122.809C144.448 122.792 144.399 122.765 144.355 122.732L144.35 122.693C144.35 122.677 144.35 122.66 144.35 122.649V122.644L144.344 122.622C144.262 122.638 144.3 122.682 144.355 122.732C144.377 122.875 144.41 123.133 144.454 123.485C144.586 124.545 144.806 126.409 145.037 128.266C145.174 129.393 145.322 130.514 145.432 131.448C145.564 132.449 145.68 133.312 145.795 134.081C145.943 135.076 146.086 135.917 146.229 136.703C146.46 138.016 146.685 139.17 146.96 140.616C147.169 141.698 147.411 142.935 147.702 144.523C147.724 144.683 147.872 144.787 148.026 144.765C148.186 144.738 148.29 144.595 148.268 144.436C148.07 142.831 147.905 141.578 147.752 140.484C147.471 138.483 147.257 137.032 146.96 134.977C146.806 133.955 146.619 132.784 146.411 131.311C146.262 130.382 146.092 129.261 145.905 128.14C145.597 126.293 145.273 124.441 145.086 123.391C145.02 123.006 144.971 122.726 144.943 122.594C144.905 122.374 144.773 122.292 144.767 122.292C144.624 122.215 144.443 122.27 144.366 122.418C144.333 122.484 144.328 122.556 144.344 122.622Z" fill="#51252F"/>
<path fill-rule="evenodd" clip-rule="evenodd" d="M118.573 121.254C119.645 121.034 120.7 121.748 120.931 122.847C121.156 123.947 120.469 125.024 119.398 125.244C118.326 125.464 117.265 124.749 117.04 123.65C116.814 122.551 117.501 121.479 118.573 121.254ZM116.952 113.394C118.023 113.174 119.079 113.889 119.304 114.988C119.535 116.087 118.848 117.159 117.771 117.384C116.699 117.604 115.644 116.89 115.418 115.791C115.188 114.691 115.875 113.62 116.952 113.394ZM115.435 106.068C116.512 105.848 117.567 106.563 117.793 107.662C118.018 108.761 117.331 109.833 116.259 110.058C115.188 110.278 114.132 109.564 113.907 108.464C113.676 107.365 114.363 106.293 115.435 106.068Z" fill="#51252F"/>
<path fill-rule="evenodd" clip-rule="evenodd" d="M110.312 102.111C110.158 102.693 109.603 103.067 109.004 102.996C96.7862 101.462 91.4001 96.4499 91.0703 94.6472C91.0044 94.2845 91.0208 94.1306 91.1747 93.6689C91.521 92.6411 92.9335 88.3652 92.9335 88.3652V88.3707C92.2684 90.3603 99.9299 95.1913 110.356 95.8398C110.752 95.9168 111.098 96.1586 111.312 96.4994C111.527 96.8401 111.587 97.2523 111.488 97.6425C111.131 99.0001 110.62 100.946 110.312 102.111Z" fill="#51252F"/>
<path fill-rule="evenodd" clip-rule="evenodd" d="M110.654 97.4389C110.604 97.0652 110.72 96.686 110.967 96.3947C111.214 96.1089 111.572 95.9385 111.951 95.9275C117.474 95.1031 124.185 93.0696 123.58 90.9536C123.58 90.9536 124.784 95.1636 124.366 97.4279C123.927 99.8407 118.535 102.677 112.638 103.21C111.918 103.177 111.324 102.633 111.231 101.918C111.072 100.682 110.824 98.769 110.654 97.4389Z" fill="#51252F"/>
</svg>
