<svg width="395" height="522" viewBox="0 0 395 522" fill="none" xmlns="http://www.w3.org/2000/svg">
<g filter="url(#filter0_f_510_5887)">
<ellipse cx="197.5" cy="438" rx="137.5" ry="24" fill="black"/>
</g>
<g filter="url(#filter1_d_510_5887)">
<path fill-rule="evenodd" clip-rule="evenodd" d="M130.646 411.644C132.296 412.66 136.144 414.454 139.732 412.221C145.557 408.606 146.463 408.023 149.634 407.812C151.189 407.706 151.35 411.399 153.593 413.104C154.982 414.154 156.248 415.092 158.336 415.753C161.857 416.869 163.006 417.192 165.716 417.403C168.526 417.625 169.97 425.344 167.293 426.805C163.673 428.776 161.279 428.693 156.359 429.798C152.116 430.747 145.63 431.875 139.732 432.319C134.695 432.691 131.252 432.497 129.919 430.997C127.436 428.204 128.297 410.2 130.646 411.644Z" fill="#333333"/>
<path fill-rule="evenodd" clip-rule="evenodd" d="M67.6652 403.091C68.3538 404.896 70.3031 408.673 74.507 409.1C81.3266 409.794 82.404 409.883 85.0419 411.655C86.3358 412.521 84.2033 415.542 84.9475 418.263C85.4029 419.941 85.8305 421.457 87.08 423.261C89.1847 426.294 89.8956 427.254 91.9115 429.076C94.0051 430.964 90.4287 437.961 87.4187 437.484C83.3481 436.829 81.5043 435.301 76.9339 433.169C72.9965 431.331 67.1709 428.26 62.2284 425.005C58.0189 422.229 55.4088 419.968 55.2699 417.969C55.0089 414.237 66.6878 400.515 67.6652 403.091Z" fill="#333333"/>
<path fill-rule="evenodd" clip-rule="evenodd" d="M169.271 258.724C167.938 244.413 78.5165 248.939 76.7727 267.043C72.9297 306.9 73.9849 332.213 65.0772 360.807C59.4016 379.028 51.9711 389.241 49.522 398.11C47.6616 404.83 65.8047 415.065 79.3495 414.737C88.8514 414.504 87.252 415.609 90.8618 420.14C94.527 424.75 113.298 436.706 129.092 421.129C129.658 415.403 137.544 423.367 151.65 423.372C160.774 423.378 162.984 419.224 162.679 417.341C165.644 416.064 188.958 415.703 186.608 409.733C184.137 403.441 180.85 377.707 177.923 353.71C173.763 319.595 173.014 299.064 169.271 258.724Z" fill="#51252F"/>
<path fill-rule="evenodd" clip-rule="evenodd" d="M190.324 236.056C191.124 236.278 193.084 236.961 194.306 237.66C196.105 238.688 198.732 239.971 201.103 242.214C201.947 243.014 200.581 245.097 198.132 244.391C196.96 244.052 194.417 243.514 193.212 243.269C192.129 243.058 194.067 244.974 196.433 247.312C196.544 247.423 197.56 245.868 197.643 246.007C198.154 246.896 198.265 247.401 198.265 248.09C198.265 249.2 197.832 249.817 197.183 250.65C196.766 251.178 195.694 251.066 195.444 251.822C195.006 253.182 192.612 254.11 191.646 253.338C191.485 253.205 191.701 254.154 190.741 254.848C188.886 256.198 188.019 255.087 187.869 255.704C187.608 256.753 184.821 256.848 184.082 256.059C183.166 255.07 182.127 254.149 181.389 253.143C179.828 251.022 178.456 246.946 177.796 246.268C176.446 244.891 176.446 244.891 175.43 244.03C175.402 243.469 183.999 235.456 184.465 234.989C185.193 235.678 186.131 235.556 187.003 235.717C187.981 235.894 188.913 235.661 190.324 236.056Z" fill="#FFD6BC"/>
<path fill-rule="evenodd" clip-rule="evenodd" d="M179.451 254.021C183.599 252.804 195.072 239.987 196.228 235.878C197.294 232.096 187.725 230.557 186.398 229.363C185.587 228.63 183.766 221.872 181.172 219.006C179.878 217.568 178.44 212.487 176.091 210.221C170.254 204.584 161.946 200.735 159.264 199.33C158.231 198.792 138.405 179.805 130.625 170.453C124.999 181.732 106.212 184.097 107.439 192.111C108.072 196.237 135.517 219.617 139.671 223.571C148.546 232.029 159.925 240.032 161.68 241.037C165.312 243.114 167.211 241.798 171.337 243.158C172.309 243.48 175.302 255.231 179.451 254.021Z" fill="#51252F"/>
<path fill-rule="evenodd" clip-rule="evenodd" d="M172.625 243.419C172.958 242.892 173.53 242.603 174.08 242.298C174.78 241.903 175.446 241.492 175.818 240.798C176.535 239.471 176.579 238.46 177.673 237.083C178.151 236.489 178.639 236.256 179.15 236.022C179.772 235.745 180.427 235.467 181.166 234.773C182.427 233.59 182.66 232.779 183.221 231.33C183.282 231.169 183.404 231.058 183.554 230.958C183.765 230.824 184.021 230.719 184.287 230.624C184.954 230.386 185.659 230.18 186.092 229.814C186.292 229.641 186.314 229.342 186.142 229.142C185.975 228.936 185.67 228.914 185.47 229.086C185.276 229.253 184.992 229.364 184.698 229.469C184.332 229.603 183.937 229.719 183.587 229.869C182.999 230.119 182.527 230.463 182.327 230.985C181.827 232.279 181.638 233.018 180.511 234.079C179.872 234.673 179.295 234.906 178.756 235.15C178.117 235.439 177.523 235.739 176.923 236.489C175.785 237.916 175.724 238.96 174.98 240.348C174.691 240.876 174.152 241.159 173.613 241.459C172.925 241.848 172.236 242.242 171.814 242.909C171.675 243.131 171.742 243.431 171.964 243.569C172.186 243.714 172.481 243.647 172.625 243.419Z" fill="#333333" fill-opacity="0.42"/>
<path fill-rule="evenodd" clip-rule="evenodd" d="M179 214.58C177.323 204.573 174.53 190.373 171.337 178.5C166.483 160.473 149.961 107.855 149.895 106.444C149.484 97.2808 153.621 79.5376 152.222 73.4288C150.422 65.5985 147.729 64.149 143.547 63.1938C135.828 61.4389 126.748 60.7781 120.534 61.8666C110.96 63.5437 107.605 63.9769 100.441 69.6969C94.0661 74.7894 91.4338 81.3424 89.6178 88.262C87.4075 96.6644 88.0684 109.509 87.1854 120.128C85.997 134.372 84.3087 149.994 82.4428 174.107C80.0104 189.307 77.5502 204.873 75.551 217.313C70.153 250.916 62.0783 300.02 59.8681 318.629C59.496 321.756 73.5573 349.345 89.7011 350.029C128.392 351.667 135.522 330.547 154.371 320.79C161.335 317.186 171.092 291.879 171.114 291.329C171.148 290.329 174.413 287.502 171.114 242.309C170.159 229.264 176.529 217.068 179 214.58Z" fill="#7B2C2C"/>
<path fill-rule="evenodd" clip-rule="evenodd" d="M151.544 71.4182C150.983 69.5134 150.911 77.2882 146.568 87.5732C143.558 94.6982 142.597 98.6634 142.486 105.577C142.481 105.905 143.63 108.959 144.591 110.542C145.874 112.658 146.113 114.291 150.033 115.64C153.282 116.762 156.625 110.148 156.814 104.139C157.047 96.6697 155.265 95.6756 154.682 91.6494C154.632 91.2995 154.582 90.9497 154.537 90.5887C154.476 90.1167 154.421 89.628 154.371 89.1281C154.149 86.879 154.137 84.9853 153.799 81.8531C153.36 77.8158 152.738 75.5 151.544 71.4182Z" fill="#FFD6BC"/>
<path fill-rule="evenodd" clip-rule="evenodd" d="M154.038 129.779C150.6 121.827 141.987 111.475 142.326 103.689C142.587 97.6803 145.441 89.1558 145.735 89.1002C148.123 88.6893 152.749 88.0839 154.221 87.4231C154.216 87.2176 154.199 86.9399 154.199 86.9399C154.199 86.9399 154.999 87.051 155.11 87.6064C156.415 93.9428 160.191 113.047 163.551 133.733C165.139 143.552 171.359 161.05 171.576 167.237C171.781 172.935 170.926 175.073 170.92 177.239C169.065 170.73 168.332 166.543 162.934 151.404C161.685 148.666 157.126 136.932 154.038 129.779Z" fill="#51252F"/>
<path fill-rule="evenodd" clip-rule="evenodd" d="M90.829 273.341C89.835 281.116 88.7243 288.718 87.5969 296.004C86.1808 305.151 84.748 313.792 83.4985 321.617C83.4596 321.872 83.2153 322.05 82.9598 322.006C82.6988 321.967 82.5267 321.722 82.5655 321.467C83.8151 313.642 85.2478 305.007 86.664 295.86C87.7858 288.585 88.8964 280.988 89.8905 273.219C89.9238 272.963 90.1626 272.78 90.4181 272.813C90.6791 272.847 90.8624 273.08 90.829 273.341ZM119.301 233.323C118.968 237.055 118.613 240.764 118.23 244.391C117.075 255.331 115.675 265.538 113.992 273.269C113.937 273.524 113.687 273.685 113.431 273.63C113.176 273.574 113.015 273.324 113.071 273.069C114.742 265.366 116.142 255.198 117.291 244.291C117.674 240.67 118.03 236.966 118.357 233.24C118.38 232.984 118.613 232.79 118.868 232.812C119.129 232.834 119.324 233.067 119.301 233.323ZM153.388 254.792C153.227 257.658 153.005 260.712 152.728 263.778C152.705 264.033 152.478 264.228 152.217 264.206C151.956 264.183 151.767 263.95 151.789 263.695C152.061 260.635 152.283 257.597 152.45 254.737C152.461 254.476 152.689 254.276 152.944 254.293C153.205 254.309 153.405 254.531 153.388 254.792ZM153.727 239.854C153.644 243.619 153.538 247.44 153.394 251.222C153.383 251.483 153.161 251.683 152.9 251.671C152.639 251.666 152.439 251.444 152.45 251.183C152.594 247.406 152.7 243.591 152.783 239.832C152.789 239.571 153 239.365 153.261 239.371C153.522 239.376 153.733 239.593 153.727 239.854ZM122.128 191.589C121.634 201.263 120.901 213.764 119.873 226.52C119.851 226.775 119.624 226.97 119.368 226.948C119.107 226.931 118.913 226.703 118.935 226.442C119.324 221.616 119.668 216.829 119.973 212.214C120.479 204.645 120.879 197.548 121.184 191.539C121.201 191.278 121.423 191.078 121.684 191.095C121.939 191.106 122.145 191.328 122.128 191.589ZM109.566 119.244C109.455 124.97 108.717 134.383 108.106 140.075C107.323 147.35 106.567 153.348 105.79 159.001C105.757 159.262 105.518 159.44 105.257 159.407C105.001 159.368 104.818 159.135 104.857 158.874C105.629 153.226 106.384 147.239 107.167 139.97C107.773 134.305 108.511 124.925 108.622 119.228C108.628 118.967 108.844 118.761 109.105 118.767C109.366 118.772 109.572 118.983 109.566 119.244Z" fill="black" fill-opacity="0.71"/>
<path fill-rule="evenodd" clip-rule="evenodd" d="M87.7185 388.658C86.6411 398.432 85.4027 407.179 84.1254 411.711C84.0588 411.966 83.7978 412.111 83.5479 412.038C83.2924 411.966 83.148 411.705 83.2202 411.455C84.4864 406.951 85.7082 398.26 86.78 388.558C86.8077 388.297 87.041 388.109 87.302 388.142C87.5575 388.17 87.7463 388.403 87.7185 388.658ZM158.308 380.406C158.469 381.7 158.636 382.988 158.808 384.266C160.069 393.695 161.507 402.486 162.79 406.979C162.862 407.229 162.718 407.49 162.468 407.562C162.212 407.635 161.951 407.485 161.879 407.235C160.591 402.72 159.141 393.873 157.875 384.388C157.703 383.111 157.536 381.817 157.37 380.528C157.336 380.267 157.52 380.028 157.781 380.001C158.036 379.967 158.275 380.151 158.308 380.406ZM156.381 363.246C156.781 367.389 157.292 372.07 157.864 376.824C157.897 377.085 157.708 377.318 157.453 377.352C157.192 377.379 156.959 377.196 156.925 376.941C156.353 372.17 155.842 367.489 155.443 363.335C155.415 363.074 155.604 362.846 155.865 362.818C156.126 362.796 156.353 362.985 156.381 363.246ZM90.9284 351.706C90.5341 357.526 89.9177 365.723 89.1457 374.286C89.118 374.547 88.8903 374.736 88.6293 374.714C88.3738 374.692 88.1794 374.464 88.2017 374.203C88.9736 365.645 89.59 357.454 89.9899 351.639C90.0065 351.378 90.2287 351.184 90.4897 351.201C90.7507 351.217 90.9451 351.445 90.9284 351.706ZM126.609 344.881C126.598 349.718 126.704 355.243 126.87 361.025C126.992 365.217 127.148 369.549 127.32 373.853C127.331 374.114 127.126 374.336 126.865 374.347C126.609 374.358 126.387 374.153 126.376 373.892C126.204 369.582 126.048 365.251 125.926 361.052C125.76 355.26 125.654 349.723 125.665 344.875C125.665 344.62 125.876 344.409 126.137 344.409C126.398 344.409 126.609 344.62 126.609 344.881Z" fill="black" fill-opacity="0.5"/>
<path fill-rule="evenodd" clip-rule="evenodd" d="M307.374 410.783L316.992 361.158L295.228 358.303L292.168 409.517L307.374 410.783Z" fill="#FFD6BC"/>
<path fill-rule="evenodd" clip-rule="evenodd" d="M289.775 326.654C291.724 286.986 326.905 340.377 326.022 347.768C323.534 368.672 321.296 385.893 319.902 393.245C319.369 396.055 309.212 394.734 303.903 394.301C298.466 393.851 287.226 393.295 287.27 390.569C287.431 380.423 288.281 357.07 289.775 326.654Z" fill="#51252F"/>
<path fill-rule="evenodd" clip-rule="evenodd" d="M245.708 411.322L242.715 360.88L263.646 360.741L260.941 411.955L245.708 411.322Z" fill="#FFD6BC"/>
<path fill-rule="evenodd" clip-rule="evenodd" d="M242.999 412.86C243.315 411.633 243.071 411.388 243.682 410.072C243.771 409.878 244.626 407.978 245.487 407.923C245.548 407.917 245.525 409.189 245.592 409.211C247.941 409.928 250.413 410.222 253.184 410.394C257.526 410.661 259.676 410.155 261.036 409.689C261.131 409.656 261.031 408.711 261.12 408.706C261.769 408.673 262.763 411.144 262.78 411.36C262.98 414.554 262.808 416.003 263.646 417.497C265.351 420.518 265.895 430.67 263.646 433.263C262.647 434.418 257.138 436.429 251.879 435.912C244.765 435.212 233.413 428.709 229.782 424.428C227.882 422.195 228.538 417.286 230.22 414.931C231.153 413.615 232.464 412.732 235.135 412.649C235.846 412.627 242.804 413.621 242.999 412.86Z" fill="#51252F"/>
<mask id="mask0_510_5887" style="mask-type:luminance" maskUnits="userSpaceOnUse" x="285" y="399" width="39" height="40">
<path d="M285.032 399.648H323.417V438.228H285.032V399.648Z" fill="white"/>
</mask>
<g mask="url(#mask0_510_5887)">
<path fill-rule="evenodd" clip-rule="evenodd" d="M310.884 411.222C309.884 406.624 310.295 404.897 309.546 404.047C308.763 403.17 307.208 401.52 301.554 401.065C296.667 400.676 292.541 400.987 291.464 401.67C290.103 402.531 290.647 408.973 289.498 410.417C287.165 413.332 285.194 417.031 286.243 420.685C286.938 423.095 289.97 427.144 295.401 428.765C298.344 429.648 300.382 434.086 305.542 436.479C310.073 438.584 312.678 438.623 316.682 437.767C321.297 436.779 322.346 434.708 322.896 432.803C324.168 428.404 321.497 423.573 315.516 418.975C312.122 416.37 310.962 412.066 310.884 411.222Z" fill="#51252F"/>
</g>
<mask id="mask1_510_5887" style="mask-type:luminance" maskUnits="userSpaceOnUse" x="285" y="409" width="39" height="30">
<path d="M285.032 409.6H323.417V438.228H285.032V409.6Z" fill="white"/>
</mask>
<g mask="url(#mask1_510_5887)">
<path fill-rule="evenodd" clip-rule="evenodd" d="M288.503 411.749C286.654 414.415 285.343 417.569 286.243 420.685C286.937 423.095 289.969 427.143 295.4 428.765C298.344 429.648 300.382 434.085 305.541 436.479C310.073 438.583 312.677 438.622 316.681 437.767C321.296 436.778 322.346 434.707 322.895 432.797C324.162 428.409 321.507 423.584 315.532 418.991L315.515 418.98C314.404 418.402 307.801 417.053 306.718 415.903C304.103 413.11 299.91 410.944 296.855 410.278C294.173 409.689 289.841 410.405 288.503 411.749Z" fill="black" fill-opacity="0.5"/>
</g>
<path fill-rule="evenodd" clip-rule="evenodd" d="M233.413 223.216C233.413 223.216 235.307 371.526 238.755 397.477C239.128 400.259 248.735 400.087 253.811 400.032C258.987 399.97 269.655 399.393 269.81 397.116C271.56 371.076 275.936 232.062 275.936 232.062L233.413 223.216Z" fill="#51252F"/>
<path fill-rule="evenodd" clip-rule="evenodd" d="M341.277 163C341.838 181.637 322.707 198.37 322.612 222.549C322.607 223.599 322.49 224.843 322.163 225.487C321.796 226.22 317.886 227.764 316.176 227.975C313.971 228.247 310.75 228.008 307.618 227.77C303.975 227.486 302.126 227.875 299.993 227.475C298.188 227.142 296.05 227.225 295.567 226.448C295.001 225.543 294.457 223.877 294.451 222.555C294.39 205.35 312.849 179.288 312.494 166.027C309.256 153.304 294.629 117.784 288.192 105.4C286.01 101.201 288.786 101.385 289.075 99.6908C289.264 98.5857 286.221 94.7316 287.554 95.0537C297.039 97.3251 314.132 104.406 319.275 110.709C325.5 118.334 340.722 144.357 341.277 163Z" fill="#333333"/>
<path fill-rule="evenodd" clip-rule="evenodd" d="M192.618 238.527C191.707 238.882 189.486 239.926 188.136 240.898C186.148 242.32 183.216 244.147 180.706 247.068C179.806 248.117 181.672 250.394 184.46 249.267C185.793 248.728 188.714 247.784 190.108 247.357C191.352 246.973 189.236 249.678 186.748 252.71C186.626 252.854 183.777 252.843 183.755 253.032C183.505 255.126 185.237 255.97 186.031 256.747C186.626 257.325 188.136 256.814 188.519 257.675C189.202 259.219 192.129 260.018 193.168 258.991C193.345 258.819 193.201 259.957 194.417 260.663C196.761 262.018 197.644 260.607 197.894 261.318C198.327 262.517 201.609 262.29 202.381 261.268C203.347 259.996 204.452 258.786 205.196 257.514C206.773 254.832 208.123 249.978 208.584 249C211.444 242.969 199.932 237.849 196.477 237.721C195.178 237.677 194.234 237.894 192.618 238.527Z" fill="#FFD6BC"/>
<path fill-rule="evenodd" clip-rule="evenodd" d="M194.772 232.934C198.204 234.595 208.017 240.359 211.522 242.475C212.505 243.069 210.272 247.518 208.995 246.857C205.874 245.235 195.478 239.582 192.246 237.311C191.513 236.8 193.995 232.557 194.772 232.934Z" fill="#51252F"/>
<path fill-rule="evenodd" clip-rule="evenodd" d="M253.028 146.389C250.351 155.347 250.107 178.188 244.592 192.977C238.833 208.438 220.646 235.483 218.458 239.16C217.908 240.087 215.814 243.469 214.104 244.119C212.393 244.774 209.789 243.991 208.195 243.075C205.285 241.403 205.318 241.414 202.447 239.715C199.565 238.01 199.926 238.36 197.827 237.155C194.134 235.028 190.713 232.495 190.602 230.085C190.507 228.058 191.69 223.593 192.107 222.305C193.084 219.295 210.139 192.861 215.253 178.294C226.721 145.618 226.082 127.247 242.376 105.988C248.096 98.53 254.638 98.8687 264.684 96.5141C270.393 95.1813 257.432 131.656 253.028 146.389Z" fill="#333333"/>
<path fill-rule="evenodd" clip-rule="evenodd" d="M287.559 95.1203C287.359 95.087 281.089 91.4661 274.78 91.4439C269.843 91.4272 264.556 94.9981 264.312 95.0425C256.182 96.5475 243.642 99.091 238.816 112.353C236.051 119.95 227.487 219.078 226.121 257.747C225.105 286.436 221.939 379.184 221.939 384.548C221.939 384.548 241.604 391.929 260.147 391.507C278.407 391.096 277.924 386.376 292.168 384.548C301.07 383.41 334.674 379.523 334.674 379.523C334.674 376.607 330.703 321.328 328.954 295.732C327.36 272.475 324.489 237.205 324.167 225.959C323.023 186.235 314.893 127.713 312.327 119.672C307.501 104.533 295.467 96.5086 287.559 95.1203Z" fill="#333333"/>
<path fill-rule="evenodd" clip-rule="evenodd" d="M260.031 90.9441C260.875 90.9275 262.741 90.05 264.185 88.6783C265.584 87.34 268.367 86.568 269.311 85.7683C270.299 84.9298 270.56 85.3241 274.12 79.8428C277.88 74.0617 265.407 84.5021 260.442 84.7132C255.099 84.9464 250.112 81.6421 248.652 80.9091C248.108 80.637 247.391 82.8805 250.668 85.2352C251.728 86.0016 252.945 88.0841 253.883 88.7616C254.677 89.3336 255.377 89.5113 256.493 90.2555C257.887 91.1829 259.642 90.9497 260.031 90.9441Z" fill="black"/>
<path fill-rule="evenodd" clip-rule="evenodd" d="M282.677 50.2044C284.327 48.5606 287.054 48.4661 289.358 49.5657C291.902 50.7764 293.201 58.0069 292.157 60.8003C290.997 63.8936 287.226 65.3597 284.382 66.5259C284.177 66.6092 284.582 69.0638 284.727 70.4522C284.877 71.9127 283.988 73.3455 282.622 74.8116C278.979 78.7268 275.974 80.8593 270.793 83.2862C266.567 85.2687 260.53 87.5734 257.909 87.8011C255.266 88.0288 254.016 87.3402 252.744 86.6293C247.136 83.5027 244.164 78.0993 241.949 73.501C241.149 71.8405 240.427 69.1249 239.988 66.4093C239.855 65.604 238.278 67.0424 238.056 65.4596C237.811 63.727 239.627 63.5437 239.533 62.6996C239.211 59.6341 238.161 55.4135 238.145 55.3191C237.389 50.7597 235.118 38.0646 238.644 33.6218C241.738 29.7178 247.235 30.7229 257.465 28.4682C268.611 26.0136 273.981 35.4045 279.068 37.3537C281.983 38.4755 281.117 44.9786 282.716 48.9882L282.677 50.2044Z" fill="#FFD6BC"/>
<path fill-rule="evenodd" clip-rule="evenodd" d="M256.677 8.38697C266.134 5.96568 273.115 5.44921 279.957 7.09857C281.023 7.35403 281.967 7.65392 282.789 7.98712C283.472 8.17594 284.238 8.42584 285.016 8.77571C285.777 9.12002 286.543 9.55874 287.232 10.1252C288.098 10.8527 288.72 11.6357 289.17 12.3854C289.803 13.4461 290.103 14.4347 290.286 15.0733C290.93 15.2232 291.908 15.4565 292.974 16.0174C293.746 16.4228 294.562 17.0003 295.334 17.8222C295.939 18.4776 296.428 19.2217 296.817 19.9659C296.845 20.0214 296.872 20.0714 296.9 20.1269C298.294 21.6208 299.527 23.5478 300.171 26.008C301.06 29.4345 301.032 37.5036 299.916 39.2807C297.367 43.3403 298.016 52.8977 297.022 56.3242C296.545 57.9736 292.557 59.995 291.935 60.3671C292.452 54.0306 291.052 51.7037 289.281 50.1043C287.137 48.1662 284.805 48.4161 283.233 49.5268C280.879 51.1928 280.979 54.6137 280.951 54.4805C280.245 50.6097 280.268 52.4312 279.357 48.3717C278.757 48.4439 278.191 48.4772 277.646 48.4827C277.635 48.4827 277.624 48.4883 277.613 48.4827H277.585C276.658 48.4827 275.808 48.3883 275.031 48.2217C274.392 48.1273 273.698 47.994 272.993 47.8052C271.999 47.5442 270.966 47.1777 269.977 46.6612C268.739 45.9948 267.756 45.2229 266.984 44.4676C266.445 43.94 266.012 43.418 265.657 42.946C264.757 42.6294 263.802 42.5794 262.686 42.9848C260.348 43.8345 256.577 41.3299 252.617 41.5187C248.524 41.7187 247.452 39.8249 246.747 40.2359C245.909 40.719 243.171 44.1177 237.756 44.0511C237.573 44.2732 236.351 45.0507 235.218 44.0955C233.519 42.6627 231.198 39.4695 229.626 35.8931C227.843 31.8225 228.41 26.7244 230.609 23.6534C233.252 19.9548 233.047 16.2451 238.617 12.5465C237.728 13.063 236.768 13.7516 235.84 14.7179C234.885 15.6842 234.13 16.7893 233.53 17.85C232.753 19.2273 232.236 20.5268 231.908 21.3598C231.881 21.4209 231.82 21.4597 231.758 21.4486C231.697 21.432 231.67 21.3709 231.692 21.3098C232.047 20.3213 232.625 18.6886 233.597 17.0226C234.119 16.134 234.752 15.2344 235.518 14.418C236.49 13.4017 237.49 12.6631 238.428 12.1244C239.783 11.3414 240.999 10.9749 241.76 10.7416C241.794 10.7305 241.821 10.7305 241.849 10.7305L241.877 10.7194C249.385 7.11523 253.572 8.34254 255.616 8.48693C255.494 8.44806 255.372 8.40918 255.244 8.37031C254.255 8.08153 253.095 7.86495 251.751 7.85939C250.396 7.83718 249.08 8.05376 247.908 8.3481C246.381 8.73684 245.092 9.25886 244.265 9.59762C244.204 9.61983 244.132 9.60317 244.098 9.54764C244.07 9.49766 244.093 9.43657 244.148 9.4088C245.103 8.98119 246.675 8.27035 248.546 7.82607C249.546 7.58728 250.629 7.42623 251.74 7.41512C253.145 7.42067 254.372 7.63726 255.411 7.9427C255.871 8.07598 256.294 8.23148 256.677 8.38697ZM266.595 43.3791C266.817 43.6346 267.062 43.8956 267.328 44.1622C268.067 44.8841 268.994 45.6283 270.172 46.2669C270.76 46.5946 271.371 46.8667 271.976 47.0888C269.788 45.9171 268.222 44.2899 266.595 43.3791ZM290.308 15.5065C291.263 16.0507 293.651 17.1225 295.895 19.1384C295.634 18.7774 295.351 18.4331 295.034 18.1055C294.296 17.328 293.513 16.7893 292.78 16.4006C291.813 15.8952 290.925 15.6509 290.308 15.5065ZM285.427 9.37548C288.598 11.5302 289.075 14.1625 289.881 15.151C289.697 14.5402 289.403 13.6072 288.803 12.6076C288.37 11.8912 287.787 11.1415 286.971 10.4473C286.488 10.0252 285.965 9.67537 285.427 9.37548Z" fill="black"/>
<path fill-rule="evenodd" clip-rule="evenodd" d="M277.68 86.0186C275.692 85.8909 271.565 85.7909 268.583 86.3351C265.434 86.9127 261.441 87.9012 258.792 89.4839C258.792 89.4839 258.465 92.3606 258.798 96.4313C258.837 96.8867 261.936 95.465 269.25 94.06C272.104 93.5102 274.986 93.4546 277.752 93.7656C286.498 94.7652 289.314 96.0037 289.336 95.5483C289.508 91.4665 288.936 88.8786 288.936 88.8786C286.932 87.5236 280.934 86.2241 277.68 86.0186Z" fill="#51252F"/>
<path fill-rule="evenodd" clip-rule="evenodd" d="M277.057 342.093C276.88 344.309 276.68 346.48 276.469 348.579C276.324 350.051 276.174 351.495 276.019 352.889C275.886 354.121 275.747 355.315 275.608 356.476C275.458 357.715 275.314 358.909 275.153 360.053C274.747 362.985 274.286 365.556 273.714 367.622C273.67 367.761 273.753 367.911 273.892 367.95C274.031 367.994 274.181 367.916 274.225 367.772C274.775 366.078 275.28 364.034 275.719 361.713C275.963 360.43 276.191 359.058 276.397 357.62C276.508 356.815 276.613 355.993 276.708 355.149C276.846 353.949 276.963 352.705 277.068 351.434C277.307 348.479 277.468 345.347 277.602 342.126C277.613 341.976 277.496 341.848 277.346 341.837C277.196 341.826 277.063 341.943 277.057 342.093ZM278.035 297.104C277.996 299.987 277.946 303.552 277.885 307.545C277.852 309.744 277.807 312.076 277.768 314.498C277.735 316.38 277.696 318.319 277.668 320.296C277.635 322.2 277.607 324.138 277.574 326.088C277.507 330.214 277.418 334.407 277.263 338.505C277.257 338.655 277.368 338.777 277.513 338.788C277.663 338.794 277.785 338.683 277.796 338.533C278.057 334.435 278.274 330.242 278.429 326.116C278.49 324.444 278.54 322.778 278.585 321.14C278.612 320.023 278.635 318.918 278.646 317.824C278.69 314.948 278.696 312.16 278.696 309.539C278.685 304.735 278.623 300.459 278.585 297.104C278.585 296.954 278.457 296.832 278.307 296.832C278.157 296.832 278.035 296.954 278.035 297.104ZM230.636 184.309C230.192 188.901 229.725 193.616 229.331 198.126C229.165 200.014 229.009 201.863 228.87 203.657C228.77 204.923 228.687 206.156 228.604 207.35C228.459 209.549 228.337 211.62 228.237 213.509C228.021 217.646 227.915 220.917 227.943 222.772C227.943 222.916 228.059 223.038 228.209 223.038C228.354 223.038 228.47 222.916 228.47 222.772C228.498 221.161 228.67 218.484 228.92 215.097C229.081 212.903 229.287 210.415 229.498 207.722C229.62 206.145 229.753 204.501 229.875 202.807C230.053 200.425 230.231 197.948 230.409 195.427C230.67 191.772 230.919 188.024 231.186 184.359C231.197 184.209 231.086 184.075 230.931 184.059C230.781 184.048 230.647 184.159 230.636 184.314V184.309ZM287.959 164.011L289.003 175.795C289.303 179.227 289.625 183.52 290.03 188.368C290.252 191.012 290.502 193.822 290.769 196.748C291.019 199.453 291.291 202.257 291.58 205.123C291.991 209.216 292.44 213.436 292.912 217.674C292.924 217.818 293.057 217.924 293.201 217.912C293.346 217.896 293.451 217.768 293.44 217.618C292.979 212.503 292.568 207.411 292.163 202.535C291.874 199.047 291.602 195.671 291.33 192.478C291.074 189.507 290.819 186.691 290.58 184.098C290.291 180.954 290.014 178.128 289.775 175.723C289.597 174.001 289.375 171.88 289.153 169.836C288.908 167.565 288.664 165.383 288.503 163.955C288.492 163.805 288.353 163.694 288.203 163.711C288.053 163.728 287.942 163.861 287.959 164.011ZM320.219 179.061C320.419 181.926 320.607 184.786 320.83 187.635C320.974 189.546 321.135 191.45 321.313 193.344C321.385 194.105 321.457 194.866 321.54 195.627C321.663 196.771 321.79 197.909 321.924 199.047C322.262 201.907 322.634 204.751 323.018 207.572C323.034 207.722 323.162 207.822 323.312 207.805C323.456 207.789 323.556 207.661 323.54 207.511C323.267 204.679 323.023 201.824 322.768 198.959C322.673 197.82 322.568 196.676 322.462 195.538C322.396 194.777 322.323 194.016 322.246 193.255C322.062 191.362 321.862 189.462 321.668 187.557C321.374 184.714 321.063 181.865 320.768 179.016C320.757 178.861 320.624 178.75 320.469 178.761C320.319 178.777 320.208 178.911 320.219 179.061ZM232.835 158.952C232.652 160.568 232.413 162.578 232.169 164.877C232.036 166.116 231.902 167.437 231.775 168.831C231.725 169.353 231.686 169.881 231.641 170.414C231.58 171.191 231.525 171.986 231.475 172.796C231.347 174.707 231.242 176.7 231.119 178.75C231.108 178.894 231.214 179.027 231.364 179.038C231.508 179.05 231.636 178.944 231.647 178.794C231.88 176.756 232.113 174.773 232.324 172.869C232.408 172.063 232.491 171.269 232.569 170.497C232.619 169.959 232.669 169.431 232.713 168.915C232.824 167.521 232.924 166.193 233.008 164.949C233.169 162.639 233.28 160.623 233.38 158.996C233.396 158.846 233.28 158.713 233.13 158.702C232.98 158.685 232.847 158.796 232.835 158.952ZM317.159 143.463C317.414 146.651 317.642 149.872 317.886 153.104C318.047 155.236 318.214 157.38 318.386 159.529C318.458 160.384 318.53 161.24 318.608 162.1C318.725 163.383 318.847 164.666 318.969 165.949C319.28 169.153 319.608 172.363 319.935 175.573C319.947 175.717 320.074 175.829 320.219 175.817C320.369 175.801 320.474 175.673 320.463 175.529C320.246 172.308 320.041 169.092 319.819 165.877C319.73 164.588 319.636 163.306 319.536 162.023C319.469 161.162 319.402 160.307 319.325 159.451C319.136 157.302 318.936 155.164 318.725 153.032C318.408 149.8 318.058 146.595 317.703 143.408C317.692 143.258 317.559 143.147 317.403 143.163C317.253 143.174 317.142 143.308 317.159 143.463Z" fill="black" fill-opacity="0.5"/>
</g>
<defs>
<filter id="filter0_f_510_5887" x="0.416519" y="354.417" width="394.167" height="167.167" filterUnits="userSpaceOnUse" color-interpolation-filters="sRGB">
<feFlood flood-opacity="0" result="BackgroundImageFix"/>
<feBlend mode="normal" in="SourceGraphic" in2="BackgroundImageFix" result="shape"/>
<feGaussianBlur stdDeviation="29.7917" result="effect1_foregroundBlur_510_5887"/>
</filter>
<filter id="filter1_d_510_5887" x="33.6378" y="0.179024" width="337.643" height="477.829" filterUnits="userSpaceOnUse" color-interpolation-filters="sRGB">
<feFlood flood-opacity="0" result="BackgroundImageFix"/>
<feColorMatrix in="SourceAlpha" type="matrix" values="0 0 0 0 0 0 0 0 0 0 0 0 0 0 0 0 0 0 127 0" result="hardAlpha"/>
<feOffset dx="7.1195" dy="16.9088"/>
<feGaussianBlur stdDeviation="11.4357"/>
<feComposite in2="hardAlpha" operator="out"/>
<feColorMatrix type="matrix" values="0 0 0 0 0 0 0 0 0 0 0 0 0 0 0 0 0 0 0.25 0"/>
<feBlend mode="normal" in2="BackgroundImageFix" result="effect1_dropShadow_510_5887"/>
<feBlend mode="normal" in="SourceGraphic" in2="effect1_dropShadow_510_5887" result="shape"/>
</filter>
</defs>
</svg>
