<svg width="388" height="252" viewBox="0 0 388 252" fill="none" xmlns="http://www.w3.org/2000/svg">
<path fill-rule="evenodd" clip-rule="evenodd" d="M195.869 158.185C198.977 143.211 213.45 111.634 213.49 110.855C214.086 99.7281 216.756 83.0774 220.214 76.3058C224.895 67.1419 227.152 65.0914 232.199 63.8117C238.096 62.3175 244.359 60.3385 249.97 59.806C258.006 59.0271 269.045 59.0112 277.685 66.0292C285.37 72.2762 288.756 77.498 290.202 84.8895C292.436 96.3503 291.911 131.686 305.693 178.245C311.209 196.883 323.949 224.041 336.896 237.234C345.329 245.834 186.88 239.356 187.039 228.062C187.325 207.573 192.968 172.157 195.869 158.185Z" fill="#7B2C2C"/>
<path fill-rule="evenodd" clip-rule="evenodd" d="M306.035 196.096C306.369 198.179 307.061 200.651 308.006 203.218C308.563 204.72 309.206 206.254 309.906 207.756C310.184 208.352 310.478 208.948 310.772 209.528C311.233 210.411 311.71 211.277 312.195 212.111C313.594 214.512 315.048 216.634 316.367 218.207C316.479 218.342 316.677 218.366 316.82 218.255C316.964 218.152 316.979 217.945 316.876 217.81C315.66 216.197 314.365 214.019 313.101 211.611C312.656 210.768 312.219 209.902 311.782 209.02C311.495 208.439 311.217 207.859 310.939 207.271C310.232 205.801 309.564 204.307 308.96 202.844C307.943 200.372 307.116 197.996 306.695 195.977C306.655 195.794 306.48 195.675 306.305 195.707C306.123 195.739 306.003 195.914 306.035 196.096ZM288.248 163.51C288.319 165.895 288.598 168.398 289.035 170.926C289.313 172.547 289.647 174.176 290.028 175.79C290.314 177.006 290.624 178.206 290.95 179.398C291.284 180.606 291.642 181.79 292.007 182.959C292.572 184.803 293.16 186.575 293.716 188.252C294.352 190.159 294.948 191.932 295.433 193.521C295.48 193.696 295.663 193.792 295.83 193.744C296.005 193.696 296.1 193.521 296.053 193.346C295.488 191.145 294.749 188.602 293.962 185.852C293.501 184.246 293.025 182.577 292.548 180.868C292.238 179.779 291.936 178.667 291.634 177.546C291.189 175.893 290.752 174.216 290.37 172.547C289.671 169.455 289.114 166.387 288.916 163.478C288.908 163.296 288.749 163.153 288.566 163.16C288.383 163.168 288.24 163.327 288.248 163.51ZM211.329 140.755C211.352 140.748 211.424 140.716 211.392 140.7C211.48 140.589 211.495 140.422 211.408 140.294C211.305 140.143 211.09 140.104 210.939 140.215C210.907 140.239 210.844 140.294 210.78 140.406C210.717 140.533 210.613 140.811 210.486 141.193C209.938 142.822 208.881 146.549 208.133 148.672C207.641 150.094 207.005 151.914 206.321 153.965C205.948 155.085 205.55 156.278 205.153 157.502C204.772 158.654 204.39 159.846 204.001 161.046C203.42 162.827 202.84 164.631 202.252 166.348C201.735 167.897 201.219 169.384 200.718 170.743C200.655 170.902 200.734 171.092 200.901 171.156C201.068 171.22 201.259 171.14 201.322 170.973C202.014 169.32 202.745 167.476 203.476 165.545C204.152 163.757 204.819 161.897 205.463 160.061C205.789 159.131 206.115 158.209 206.417 157.311C206.735 156.357 207.037 155.427 207.323 154.537C208.006 152.391 208.602 150.468 209.079 148.981C209.302 148.274 209.556 147.384 209.803 146.454C210.359 144.419 210.915 142.178 211.225 141.153C211.273 141.01 211.297 140.843 211.329 140.755ZM211.392 140.7C211.36 140.684 211.344 140.708 211.329 140.755C211.352 140.74 211.368 140.716 211.392 140.7Z" fill="black" fill-opacity="0.71"/>
<path fill-rule="evenodd" clip-rule="evenodd" d="M234.417 71.601C239.71 71.5453 249.088 77.5698 254.294 84.6911C263.514 97.3043 263.466 107.891 262.902 112.278C262.234 117.563 260.629 124.772 258.721 126.648C256.4 128.929 253.039 130.455 247.491 132.386C242.611 134.087 237.246 134.961 233.964 133.952C230.212 132.807 224.124 126.131 221.994 120.337C218.29 110.267 219.514 112.064 220.818 94.7372C221.152 90.2705 221.843 85.3269 223.806 81.4404C226.787 75.559 231.643 71.6328 234.417 71.601Z" fill="#FFD6BC"/>
<path fill-rule="evenodd" clip-rule="evenodd" d="M225.682 78.3091C228.559 74.208 232.175 71.6249 234.416 71.6011C238.335 71.5534 244.494 74.8518 249.541 79.4536C243.962 76.8626 238.041 74.9392 233.272 75.3366C230.713 75.5432 228.145 76.6718 225.682 78.3091Z" fill="#51252F"/>
<path fill-rule="evenodd" clip-rule="evenodd" d="M262.281 101.628C261.828 100.023 249.231 100.889 231.658 98.6874C224.171 97.7496 220.412 95.3493 220.356 96.3666C219.919 104.219 217.821 126.664 214.173 151.859C210.501 177.268 204.198 191.328 202.704 204.179C200.232 225.392 275.729 231.52 272.733 215.783C269.657 199.641 267.527 171.013 266.223 150.984C265.118 133.936 263.767 106.874 262.281 101.628Z" fill="#51252F"/>
<path fill-rule="evenodd" clip-rule="evenodd" d="M117.479 115.998C120.134 110.896 116.764 111.118 116.406 109.06C116.176 107.716 130.569 99.6572 128.908 99.6572C115.921 99.6652 89.6297 104.362 82.127 110.784C63.37 126.847 54.9373 178.508 49.3897 197.94C43.2937 219.336 80.9427 202.828 84.8769 186.058C87.1898 176.219 97.061 155.745 105.827 138.506C110.445 129.43 114.753 121.252 117.479 115.998Z" fill="#333333"/>
<path fill-rule="evenodd" clip-rule="evenodd" d="M147.673 115.997C145.019 110.895 148.389 111.117 148.746 109.059C148.977 107.716 146.942 99.6167 148.611 99.6564C161.431 99.9664 181.682 101.771 189.4 107.954C199.247 115.846 206.082 182.362 205.526 205.442C204.985 227.696 170.786 202.581 166.844 185.811C163.315 170.79 155.589 131.233 147.673 115.997Z" fill="#333333"/>
<path fill-rule="evenodd" clip-rule="evenodd" d="M118.259 103.496C118.688 103.425 145.806 103.274 146.49 103.401C156.361 105.229 175.563 117 181.42 133.11C183.511 138.856 186.801 184.429 189.384 229.319C190.942 256.445 74.7681 240.835 75.6821 229.319C79.0759 186.686 85.7203 141.002 88.1682 133.317C94.0337 114.925 108.642 105.181 118.259 103.496Z" fill="#333333"/>
<path fill-rule="evenodd" clip-rule="evenodd" d="M141.371 93.9658C150.614 93.9658 157.147 95.0865 158.117 98.0749C158.268 98.5358 158.816 102.43 158.816 102.43C158.816 102.43 158.546 108.94 146.783 110.696C145.647 110.863 152.124 106.778 149.875 105.148C148.15 103.901 144.685 107.636 141.395 107.644C138.668 107.644 137.262 104.783 132.954 105.768C129.29 106.595 136.403 110.911 136.403 110.911L124.625 102.43C124.625 102.43 124.593 98.6392 124.593 98.2418C124.593 96.0482 132.127 93.9658 141.371 93.9658Z" fill="black"/>
<path fill-rule="evenodd" clip-rule="evenodd" d="M140.672 111.38C140.56 112.024 139.988 112.485 139.336 112.453C130.626 112.032 123.703 106.953 123.178 105.022C123.075 104.64 123.083 104.465 123.202 103.957C123.48 102.804 124.633 98.0674 124.633 98.0674V98.0753C124.092 100.301 132.04 103.639 140.155 104.577C140.592 104.624 140.99 104.847 141.252 105.197C141.514 105.546 141.617 105.991 141.546 106.421C141.284 107.931 140.902 110.085 140.672 111.38Z" fill="#51252F"/>
<path fill-rule="evenodd" clip-rule="evenodd" d="M140.616 106.285C140.536 105.88 140.623 105.459 140.862 105.125C141.108 104.791 141.482 104.569 141.887 104.529C150.375 103.543 158.967 100.316 158.117 98.0752C158.117 98.0752 159.802 102.534 159.555 105.03C159.293 107.684 151.957 111.944 143.294 112.365C142.507 112.397 141.816 111.857 141.649 111.086C141.363 109.766 140.925 107.708 140.616 106.285Z" fill="#51252F"/>
<path fill-rule="evenodd" clip-rule="evenodd" d="M146.672 103.05C145.67 103.305 142.896 103.845 140.989 102.367C138.501 100.444 136.324 101.056 134.964 100.42C133.534 99.76 133.359 100.3 127.43 95.0152C121.183 89.4358 139.129 97.6936 145.019 96.3584C151.353 94.9198 156.138 89.4676 157.616 88.1323C158.164 87.6396 158.872 92.5195 155.383 95.1662C154.119 96.1279 154.008 97.5108 153.125 98.5997C152.37 99.5296 151.663 99.8872 150.59 101.111C149.255 102.645 147.125 102.939 146.672 103.05Z" fill="black"/>
<path fill-rule="evenodd" clip-rule="evenodd" d="M106.542 61.626C104.086 60.3067 101.042 60.3385 98.793 62.4367C96.3212 64.7495 97.3863 73.6034 99.564 76.4806C102.147 79.8902 106.717 80.0571 110.548 80.4465C111.39 83.2601 114.379 86.2246 117.017 88.4024C119.863 90.7549 123.837 93.0518 127.644 94.5619C131.705 96.1754 137.253 98.2021 141.37 98.059C144.756 97.9398 149.922 98.2577 154.666 94.3156C160.023 89.8648 165.793 81.2493 167.097 76.2183C169.211 68.1194 168.432 62.6831 167.892 56.6268C167.264 49.4658 166.811 42.2491 165.937 37.6155C165.436 34.9768 163.544 24.3903 162.32 23.1902C158.712 19.6136 152.226 20.7661 147.482 19.5341C144.032 18.644 140.424 20.2812 136.037 20.6389C122.454 21.7357 111.12 39.5151 106.002 43.5844C103.069 45.921 106.582 54.1868 106.169 59.4165L106.542 61.626Z" fill="#FFD6BC"/>
<path fill-rule="evenodd" clip-rule="evenodd" d="M89.6942 29.374C90.5208 27.4665 91.4269 25.7339 92.2217 24.3748C94.3358 20.7585 102.212 17.031 102.307 16.8482C103.953 13.6452 111.328 5.25224 118.712 3.01095C132.613 -1.20937 141.141 -0.414579 148.23 1.87441C157.672 4.92638 161.098 11.5152 162.362 15.0917C162.369 14.7658 162.354 14.4241 162.33 14.0585C162.242 13.0729 162.02 11.9682 161.511 10.7999C161.01 9.60767 160.271 8.55856 159.516 7.66045C158.523 6.50006 157.482 5.594 156.814 5.02176C156.766 4.98202 156.758 4.91049 156.798 4.85485C156.846 4.80716 156.917 4.79922 156.965 4.8469C157.776 5.49068 159.119 6.5557 160.303 7.99426C160.931 8.7652 161.519 9.63946 161.956 10.6012C162.497 11.8251 162.751 12.9855 162.838 14.0187C162.91 14.9248 162.862 15.7355 162.775 16.4031C162.838 16.6097 162.886 16.8005 162.926 16.9515C163.466 17.0866 164.031 17.2535 164.587 17.4681C165.366 17.7701 166.343 18.406 167.249 19.3438C167.949 20.0671 168.616 20.9811 169.125 22.054C169.372 22.5706 169.523 23.0713 169.626 23.5721C169.793 24.3827 169.817 25.1696 169.888 25.9644C169.92 26.3379 169.96 26.7194 170.039 27.1089C170.111 27.4665 170.206 27.8321 170.349 28.1977C170.381 28.2613 170.349 28.3328 170.293 28.3646C170.246 28.3885 170.198 28.3805 170.166 28.3567C170.286 28.7779 170.413 29.223 170.54 29.684C172.789 37.9736 168.847 46.1996 168.847 46.1996C168.847 46.1996 168.028 48.5204 167.337 50.1259C167.075 47.7336 166.169 41.2958 166.169 41.2958C166.169 41.2958 162.791 38.3233 160.192 36.2886C157.283 34.0076 157.076 31.6789 155.129 33.2923C152.53 35.4382 141.999 38.069 138.717 33.8963C135.601 40.2705 127.049 39.6903 124.887 41.7329C119.189 47.1057 122.59 52.693 108.61 53.8137C109.143 58.7731 109.031 59.7269 109.659 64.3923C109.683 64.5592 108.92 63.3273 107.521 62.2702L107.529 62.294C106.679 61.6503 105.439 61.086 104.112 60.8634C104.04 60.8555 103.961 60.8555 103.889 60.8475C103.857 60.8475 103.826 60.8396 103.786 60.8237C102.013 60.6091 100.122 61.0621 98.7866 62.8504C97.8169 59.9494 95.7426 59.2659 94.1609 56.659C93.39 55.4032 93.1118 52.1605 92.4124 50.9286C91.2838 48.9257 88.3034 45.3492 87.5483 42.0667C86.7456 38.5856 87.7311 34.3732 89.1776 30.6536C88.9948 30.7887 88.7882 30.9556 88.5736 31.1702C88.3908 31.353 88.2 31.5676 88.0013 31.8219C87.7629 32.1319 87.5006 32.4896 87.2542 32.9426C87.1112 33.1969 86.9761 33.4672 86.841 33.7692C86.8171 33.8486 86.7456 33.8884 86.674 33.8645C86.6025 33.8407 86.5628 33.7692 86.5787 33.6976C86.6899 33.0539 86.841 32.5134 87.0238 32.0524C87.1191 31.7981 87.2304 31.5756 87.3496 31.3769C87.5404 31.051 87.7629 30.7887 87.9696 30.5741C88.3352 30.2006 88.7008 29.9621 88.9869 29.7952C88.7484 29.4376 88.5338 28.9846 88.3987 28.3726C88.3669 28.2454 88.3431 28.1182 88.3272 27.9831C88.2954 27.705 88.2795 27.4029 88.2875 27.0691C88.2954 26.5287 88.351 25.9087 88.4623 25.1775C88.4703 25.106 88.5338 25.0424 88.6054 25.0504C88.6849 25.0504 88.7405 25.1139 88.7325 25.1934C88.7802 25.9087 88.8597 26.4969 88.9551 27.0214C88.9869 27.2281 89.0346 27.4268 89.0664 27.6096C89.114 27.8162 89.1617 27.999 89.2094 28.1739C89.3445 28.6984 89.5114 29.0799 89.6942 29.374ZM163.188 17.5396C165.66 18.4377 167.607 20.2499 169.697 26.8307C169.65 26.5605 169.618 26.2902 169.586 26.02C169.491 25.2491 169.451 24.4781 169.268 23.6833C169.157 23.2224 169.006 22.7534 168.76 22.2686C168.259 21.2513 167.599 20.3929 166.916 19.7015C166.049 18.8272 165.135 18.2232 164.396 17.937C163.991 17.786 163.585 17.6509 163.188 17.5396Z" fill="black"/>
<path fill-rule="evenodd" clip-rule="evenodd" d="M140.942 132.172C142.174 132.172 143.167 133.197 143.167 134.453C143.167 135.709 142.174 136.734 140.942 136.734C139.718 136.734 138.725 135.709 138.725 134.453C138.725 133.197 139.718 132.172 140.942 132.172ZM140.942 123.183C142.174 123.183 143.167 124.2 143.167 125.464C143.167 126.72 142.174 127.737 140.942 127.737C139.718 127.737 138.725 126.72 138.725 125.464C138.725 124.2 139.718 123.183 140.942 123.183ZM140.942 114.798C142.174 114.798 143.167 115.815 143.167 117.079C143.167 118.335 142.174 119.36 140.942 119.36C139.718 119.36 138.725 118.335 138.725 117.079C138.725 115.815 139.718 114.798 140.942 114.798Z" fill="#51252F"/>
<path fill-rule="evenodd" clip-rule="evenodd" d="M40.7506 249.148C47.9673 249.45 55.2634 249.132 62.5198 249.164C75.1092 249.22 99.8827 249.228 116.287 249.482C148.802 249.999 183.232 249.951 213.919 250.166C242.73 250.372 271.715 251.461 300.367 250.801C308.395 250.619 316.812 250.539 324.346 250.42C331.436 250.301 338.605 250.539 345.615 250.054C355.859 249.355 380.792 248.632 385.839 246.192C395.058 241.725 372.836 227.872 355.7 224.001C347.157 222.07 335.02 221.084 321.596 220.528C304.063 219.805 284.353 219.837 267.614 219.503C224.632 218.652 140.512 217.492 97.8004 218.883C68.3694 219.844 26.3968 223.198 11.3435 227.872C-0.284188 231.472 -5.20391 244.276 7.46498 246.883C14.0617 248.242 31.5788 248.775 40.7506 249.148Z" fill="black"/>
<path fill-rule="evenodd" clip-rule="evenodd" d="M364.84 248.965C368.965 248.703 373.05 248.393 376.555 248.003C373.447 247.956 370.427 247.94 367.741 247.916C360.214 247.836 352.473 247.932 344.978 247.662C340.79 247.519 336.609 247.248 332.413 247.201C331.26 247.185 322.096 247.01 317.169 246.287C316.43 246.183 315.794 246.064 315.325 245.929C315.174 245.881 315.047 245.834 314.943 245.786C314.88 245.754 314.816 245.722 314.848 245.683C314.927 245.579 315.245 245.524 315.603 245.444C316.255 245.301 317.121 245.19 318.107 245.094C322.828 244.633 330.163 244.61 332.286 244.618L332.262 244.602C331.721 244.26 331.642 243.902 331.96 243.545C329.345 243.545 322.231 243.592 317.566 244.045C316.08 244.196 314.832 244.379 313.974 244.61C313.171 244.824 312.67 245.086 312.456 245.357C312.146 245.762 312.336 246.128 312.956 246.454C313.576 246.779 314.768 247.073 316.342 247.304C321.5 248.059 331.109 248.25 332.317 248.266C336.466 248.321 340.607 248.584 344.748 248.735C351.36 248.965 358.164 248.925 364.84 248.965ZM21.1188 248.266C22.5176 248.353 23.9483 248.433 25.3789 248.504C28.1924 247.892 31.0775 247.368 33.8036 246.97C34.1931 246.915 35.3375 246.859 36.9748 246.803C44.1517 246.541 60.1746 246.303 68.0191 246.358C69.9584 246.366 71.8103 246.446 71.9931 246.454C72.5733 246.565 73.2727 246.469 73.5985 246.231C73.9482 245.977 73.7496 245.651 73.1455 245.5C72.9707 245.46 72.6051 245.396 72.0408 245.365C71.2539 245.325 69.871 245.293 68.0827 245.285C58.1082 245.214 35.1627 245.635 33.0088 245.953C29.1382 246.525 24.9735 247.328 21.1188 248.266ZM377.175 232.664C340.686 232.736 304.222 234.055 267.781 235.064C218.162 236.431 168.313 233.777 118.679 234.301C115.635 234.333 112.591 234.389 109.547 234.46C109.435 234.476 109.324 234.492 109.197 234.492C94.6842 234.866 80.4099 235.668 65.8335 235.97C57.9015 236.137 49.9934 236.161 42.0614 236.201C38.016 236.217 27.032 236.749 18.9014 236.217C15.5474 236.336 12.1616 236.662 8.7758 237.035C5.93841 237.337 3.10897 237.719 0.271586 237.814C-0.666263 241.327 0.764352 244.729 5.50923 246.358C7.71078 246.167 9.91234 245.929 12.1139 245.698C29.5674 239.634 56.1848 239.579 77.3658 240.906C78.0493 240.954 78.5183 241.224 78.407 241.518C78.3037 241.812 77.6599 242.011 76.9764 241.971C58.1559 240.787 34.8448 240.652 18.0907 245.174C18.9093 245.118 19.7359 245.079 20.5545 245.055C29.178 244.769 37.7537 244.22 46.3851 243.974C56.3994 243.688 66.2627 244.133 76.277 244.085C90.5275 244.014 104.746 243.314 119.013 243.163C168.917 242.639 219.052 245.293 268.941 243.91C291.187 243.29 313.449 242.551 335.711 242.066C338.119 241.494 341.004 241.073 341.918 241.009C347.569 240.58 353.188 240.175 358.951 240.262C363.664 240.334 368.742 240.938 373.471 240.58C374.6 240.493 376.976 240.183 378.32 239.698C378.788 239.531 379.162 239.348 378.804 239.126C378.622 239.014 378.264 238.935 377.819 238.863C377.167 238.744 376.348 238.657 375.442 238.585C370.817 238.22 363.87 238.299 361.748 238.315C344.748 238.386 328.121 237.806 311.128 238.633C308.211 238.776 299.747 239.197 295.042 239.698C294.064 239.801 292.983 239.992 292.626 240.055C292.467 240.214 292.125 240.35 291.68 240.381C290.996 240.437 290.345 240.238 290.225 239.952C290.146 239.761 290.241 239.563 290.615 239.372C290.909 239.221 291.577 239.046 292.562 238.895C296.6 238.291 307.448 237.735 310.858 237.568C327.946 236.741 344.652 237.321 361.748 237.242C363.942 237.226 371.135 237.155 375.919 237.528C377.255 237.639 378.423 237.782 379.281 237.957C380.02 238.116 380.561 238.307 380.895 238.522C381.395 238.839 381.546 239.149 381.467 239.436C381.364 239.833 380.807 240.207 379.925 240.516C378.598 240.993 376.46 241.351 374.934 241.534C379.122 241.518 383.319 241.518 387.507 241.542C386.188 238.871 382.262 235.66 377.175 232.664ZM387.793 244.395C387.936 244.053 388 243.696 388 243.314C385.616 243.378 383.351 243.441 381.912 243.394C366.255 242.798 350.613 243.616 334.964 243.561C334.805 243.624 334.67 243.68 334.551 243.743C334.392 243.831 334.217 243.91 334.352 243.998C334.773 244.268 335.369 244.475 336.085 244.633C351.281 244.641 366.469 243.878 381.666 244.459C383.112 244.514 385.385 244.451 387.793 244.387V244.395ZM344.811 241.876C351.575 241.748 358.339 241.653 365.102 241.589C362.988 241.486 360.874 241.367 358.839 241.335C354.094 241.264 349.453 241.542 344.811 241.876ZM45.9003 235.104C47.6806 235.064 49.4609 235.04 51.2333 235.025C53.0136 235.017 54.786 235.025 56.5504 235.032C53.0056 235.072 49.4529 235.088 45.9003 235.104ZM94.0166 221.895C93.9371 221.934 93.802 221.99 93.6748 222.03C93.1503 222.205 92.3793 222.395 91.4574 222.586C86.8079 223.548 78.6454 224.581 77.5884 224.692C70.4512 225.439 47.8475 226.536 33.0962 228.301C29.2018 228.77 25.8399 229.286 23.4158 229.85C21.6275 230.272 20.324 230.725 19.5928 231.194C18.496 231.909 19.259 232.64 22.1044 233.117C29.4959 234.365 53.0931 234.476 58.4817 233.88C60.6356 233.642 71.6831 233.61 78.8203 233.705C81.7451 233.737 83.9943 233.785 84.5745 233.864C85.2342 233.959 85.9495 233.801 86.1641 233.522C86.3787 233.236 86.021 232.934 85.3693 232.847C84.7097 232.759 82.1981 232.672 78.9157 232.632C71.5321 232.537 60.0951 232.592 57.8618 232.839C53.3315 233.348 35.4091 233.316 26.2293 232.497C25.1007 232.402 24.1072 232.29 23.2965 232.163C22.9468 232.108 22.6369 232.052 22.3746 231.988C22.1918 231.949 22.0249 231.909 21.8898 231.869C21.8182 231.845 21.7388 231.806 21.6911 231.782C22.2395 231.424 23.2647 231.106 24.6079 230.788C26.8969 230.256 30.0761 229.779 33.7559 229.334C48.4754 227.569 71.0473 226.481 78.1686 225.733C79.4243 225.598 90.3526 224.207 94.4458 223.103C95.3836 222.848 96.0115 222.586 96.2817 222.372C96.5202 222.181 96.5758 221.99 96.5043 221.823C96.3851 221.529 95.7254 221.338 95.0419 221.394C94.4617 221.442 94.0404 221.656 94.0166 221.895ZM374.679 231.265C374.123 230.963 373.559 230.669 372.979 230.375C372.533 230.351 372.073 230.319 371.961 230.311C369.585 230.033 366.859 230.017 364.403 230.025C357.107 230.065 349.962 230.311 342.65 230.129C323.821 229.66 302.831 228.69 284.01 229.676C277.398 230.025 271.047 231.043 264.379 231.202C240.48 231.774 217.415 230.637 193.842 229.652C166.676 228.523 138.159 228.396 110.969 229.31C95.1055 229.835 79.774 229.739 63.9498 229.811C58.132 229.842 52.5367 230.399 46.7666 230.621C45.5585 230.669 42.5542 230.693 41.1792 230.693C40.9408 230.645 40.6785 230.629 40.4003 230.645C39.5658 230.693 39.224 230.836 39.1525 230.86C38.8108 231.019 38.7392 231.178 38.771 231.329C38.7949 231.432 38.93 231.79 39.9791 231.861C40.6229 231.909 45.2326 231.869 46.9971 231.798C52.6877 231.575 58.2194 231.019 63.9498 230.995C79.8376 230.923 95.2406 231.019 111.16 230.486C138.191 229.58 166.541 229.707 193.548 230.828C217.264 231.822 240.464 232.958 264.506 232.386C271.246 232.227 277.644 231.202 284.328 230.852C302.99 229.866 323.797 230.844 342.467 231.313C349.842 231.496 357.043 231.241 364.411 231.21C366.612 231.202 369.068 231.202 371.198 231.448C371.333 231.464 372.2 231.519 372.684 231.551C372.867 231.583 373.074 231.607 373.289 231.607C374.139 231.599 374.52 231.408 374.679 231.265ZM340.09 221.712C338.445 221.815 336.8 221.926 335.155 222.054C328.153 222.594 321.135 223.27 314.141 222.848C311.78 222.705 309.412 222.538 307.043 222.356C305.851 222.427 304.675 222.499 303.53 222.578C299.985 222.832 296.743 223.166 294.16 223.691C292.34 224.064 290.853 224.517 289.884 225.121C297.53 225.662 305.144 226.385 312.718 226.846C320.705 227.339 328.749 226.647 336.744 226.035C343.222 225.543 349.667 225.082 356.034 225.757C356.534 226.29 357.552 226.727 358.919 226.918C360.691 227.164 362.567 226.942 363.799 226.409C361.065 225.416 358.323 224.589 355.7 224.001C351.337 223.015 346.027 222.276 340.09 221.712ZM210.858 218.62C214.943 219.59 218.536 220.869 222.255 222.046C227.239 223.619 232.429 225.002 238.739 225.598C244.891 226.171 250.788 225.877 256.654 225.4C261.621 224.994 266.557 224.438 271.675 224.414C276.865 224.39 282.047 224.613 287.221 224.947C288.389 223.985 290.424 223.262 293.095 222.721C295.034 222.332 297.315 222.03 299.819 221.791C290.464 221.052 281.069 220.329 271.659 220.377C265.961 220.4 260.461 220.981 254.945 221.434C250.327 221.807 245.694 222.101 240.853 221.648C235.949 221.187 231.976 220.059 228.097 218.843C222.518 218.763 216.747 218.684 210.858 218.62ZM98.4674 218.859C98.2449 218.867 98.0223 218.874 97.7998 218.882C73.2647 219.685 40.0109 222.149 20.9042 225.654C23.686 225.4 26.5631 225.217 29.4959 225.066C44.5014 223.381 60.5958 224.263 75.5378 222.777L75.6014 222.769C75.7524 222.753 75.8955 222.737 76.0465 222.713C84.05 221.72 91.4256 220.647 98.4674 218.859Z" fill="#FFD6BC" fill-opacity="0.11"/>
<path fill-rule="evenodd" clip-rule="evenodd" d="M22.1118 113.518C21.6747 112.286 21.2137 111.181 20.6812 110.323C18.7022 107.096 16.1191 108.543 15.9284 110.037C15.7456 111.452 15.1575 117.444 15.3959 119.638C16.1191 126.179 19.8467 136.535 24.2498 139.364C24.8618 139.754 25.6009 139.953 26.3004 140.294C31.5618 142.854 32.3805 143.799 33.978 144.777C37.2287 146.78 47.7119 162.334 49.826 163.923C50.6447 163.788 68.3922 154.505 65.1654 151.302C60.3887 146.565 48.9041 134.341 49.0869 134.063C47.4337 132.958 47.7278 128.198 46.7899 126.139C45.2322 122.73 43.3167 121.649 41.441 119.709C39.5971 117.794 37.6737 115.68 35.5358 114.464C34.9794 114.154 33.8588 114.782 33.0401 115.378C31.5936 116.435 32.1579 119.622 33.6998 122.412C34.8523 124.51 38.2619 128.198 37.0379 129.167C36.7915 129.366 36.5372 129.533 36.2749 129.652C35.9888 129.279 35.6391 128.929 35.2258 128.635C33.9224 127.713 31.228 126.139 30.1551 123.667C28.3906 119.566 28.2953 115.664 26.5865 113.168C24.4485 110.053 22.6761 111.626 22.2311 113.025C22.1834 113.176 22.1436 113.343 22.1118 113.518Z" fill="#FFD6BC"/>
<path fill-rule="evenodd" clip-rule="evenodd" d="M32.748 148.529C36.873 146.415 48.6278 139.158 52.8323 136.496C54.0085 135.749 51.1791 130.4 49.6452 131.242C45.9017 133.293 33.4236 140.438 29.5609 143.275C28.6867 143.919 31.8102 149.006 32.748 148.529Z" fill="#51252F"/>
<path fill-rule="evenodd" clip-rule="evenodd" d="M44.5322 197.511C49.9606 211.34 56.1122 224.407 70.784 220.703C77.7225 218.947 88.2534 209.902 87.2758 201.533C85.7021 188.141 64.3144 145.079 61.3499 140.334C60.6505 139.222 58.0197 135.168 55.9294 134.421C53.8312 133.682 50.6918 134.699 48.7843 135.852C45.2952 137.958 45.3349 137.942 41.8935 140.088C38.4441 142.234 38.8654 141.797 36.3538 143.315C31.9269 146.001 29.4074 147.01 29.3359 149.943C29.2723 152.407 30.8221 157.796 31.3705 159.354C32.6342 162.978 39.4932 184.683 44.5322 197.511Z" fill="#333333"/>
<path fill-rule="evenodd" clip-rule="evenodd" d="M116.247 209.321C115.285 208.622 112.758 207.04 110.874 206.293C108.116 205.204 104.325 203.408 99.6913 202.764C98.0302 202.534 96.9255 205.935 99.9139 208.041C101.344 209.051 104.222 211.419 105.573 212.556C106.789 213.573 102.632 213.192 97.903 212.643C97.752 212.627 96.9016 211.364 96.2737 210.529C95.9479 210.084 95.8366 210.1 95.5823 210.084C95.32 210.06 94.9623 210.171 94.716 210.394C93.3728 211.61 93.5397 213.446 93.3092 214.567C93.1105 215.552 94.6206 216.76 93.9927 217.714C92.8721 219.423 93.9768 222.944 95.7094 223.333C95.9956 223.397 94.7398 224.001 94.8193 225.702C94.9782 228.984 96.997 228.96 96.4406 229.683C95.4948 230.915 97.8872 234.118 99.437 234.238C101.368 234.389 103.331 234.722 105.12 234.643C108.895 234.492 114.737 232.68 116.04 232.505C124.083 231.464 121.739 216.347 119.601 212.731C118.798 211.372 117.955 210.553 116.247 209.321Z" fill="#FFD6BC"/>
<path fill-rule="evenodd" clip-rule="evenodd" d="M123.376 207.835C123.933 212.437 124.497 226.242 124.64 231.21C124.68 232.609 118.671 233.252 118.504 231.512C118.115 227.26 117.05 212.93 117.24 208.137C117.288 207.048 123.249 206.794 123.376 207.835Z" fill="#51252F"/>
<path fill-rule="evenodd" clip-rule="evenodd" d="M170.563 190.198C185.068 186.956 199.335 184.746 204.477 198.981C206.901 205.705 205.304 219.502 197.817 223.373C185.831 229.564 138.184 235.93 132.589 236.129C131.277 236.169 126.445 236.256 124.657 234.937C122.868 233.618 121.954 230.446 121.843 228.221C121.636 224.152 121.644 224.191 121.493 220.138C121.342 216.077 121.223 216.673 121.072 213.74C120.818 208.574 120.246 205.919 122.638 204.218C124.641 202.788 129.982 201.063 131.571 200.642C135.283 199.656 157.116 193.203 170.563 190.198Z" fill="#333333"/>
<path fill-rule="evenodd" clip-rule="evenodd" d="M222.861 118.096C224.196 119.804 225.15 120.623 227.24 121.585C229.33 122.546 228.965 126.187 227.311 127.077C226.978 127.259 225.34 128.245 224.681 128.253C225.197 129.453 226.827 131.059 225.952 131.035C224.132 130.971 218.624 132.6 216.065 131.186C214.746 130.462 215.374 126.258 215.247 126.202C215.628 125.368 214.738 121.124 214.603 118.262C214.364 113.406 215.326 111.864 215.827 109.234C216.264 106.929 216.725 104.282 217.599 102.478C218.108 101.429 219.467 101.405 219.912 101.755C220.357 102.112 220.405 103.44 220.27 104.584C220.055 106.476 220.111 109.027 220.413 111.682C220.683 114.034 222.177 117.221 222.861 118.096Z" fill="#FFD6BC"/>
<path fill-rule="evenodd" clip-rule="evenodd" d="M206.305 128.333C210.199 125.671 228.964 124.852 233.232 126.712C237.166 128.428 231.849 137.584 231.944 139.532C232 140.716 236.824 143.394 239.153 150.492C239.789 152.447 243.159 168.223 243.405 177.252C243.707 188.681 245.122 217.309 240.981 219.066C233.725 222.158 221.596 224.383 217.384 222.07C206.305 215.974 207.727 202.256 205.875 191.542C203.944 180.336 205.248 158.058 205.788 154.863C206.543 150.357 208.156 147.138 209.857 142.703C210.263 141.662 202.402 131.004 206.305 128.333Z" fill="#51252F"/>
<path fill-rule="evenodd" clip-rule="evenodd" d="M210.692 143.107C211.328 142.869 212.028 143.028 212.719 143.155C213.601 143.314 214.46 143.433 215.231 143.068C216.709 142.368 217.369 141.454 219.22 141.001C220.023 140.795 220.611 140.946 221.223 141.113C221.962 141.319 222.725 141.558 223.83 141.462C225.714 141.311 226.429 140.731 227.836 139.793C227.987 139.69 228.178 139.682 228.368 139.706C228.647 139.738 228.941 139.833 229.243 139.944C229.998 140.222 230.769 140.564 231.389 140.54C231.675 140.532 231.881 140.27 231.858 139.952C231.826 139.634 231.563 139.388 231.269 139.396C230.991 139.404 230.665 139.3 230.332 139.173C229.918 139.022 229.489 138.839 229.076 138.712C228.384 138.498 227.741 138.466 227.232 138.8C225.976 139.642 225.348 140.183 223.663 140.318C222.71 140.397 222.042 140.183 221.406 140.008C220.643 139.793 219.912 139.626 218.91 139.881C216.987 140.357 216.28 141.279 214.746 142.011C214.158 142.289 213.482 142.146 212.814 142.027C211.948 141.868 211.074 141.725 210.279 142.027C210.009 142.13 209.882 142.456 210.001 142.75C210.12 143.052 210.43 143.211 210.692 143.107Z" fill="#333333" fill-opacity="0.42"/>
<path fill-rule="evenodd" clip-rule="evenodd" d="M246.983 202.073C246.275 204.115 245.791 209.647 246.816 214.75C248.032 220.806 250.973 226.504 252.562 228.468C255.264 231.806 262.672 224.247 264.571 223.826C265.74 223.564 269.602 227.506 277.057 227.871C279.108 227.967 288.343 226.91 290.02 226.791C294.447 226.496 301.807 221.966 304.056 220.138C307.474 217.364 302.348 191.351 297.825 191.613C291.427 191.987 285.419 192.114 284.369 192.281C279.013 193.131 275.357 193.171 272.416 194.538C268.275 196.461 265.597 198.87 261.782 201.691C260.884 202.351 248.517 197.606 246.983 202.073Z" fill="#51252F"/>
<path fill-rule="evenodd" clip-rule="evenodd" d="M233.535 223.245C232.836 223.683 232.176 224.048 231.572 224.271C229.331 225.089 228.615 223.357 229.108 222.546C229.569 221.767 231.636 218.572 232.613 217.579C235.538 214.622 241.443 210.958 244.734 211.284C245.195 211.332 245.64 211.522 246.117 211.626C247.515 211.936 249.51 212.214 250.241 212.317C251.45 213.168 252.928 220.543 252.983 224.756C252.999 225.829 251.386 226.337 250.71 226.679C248.604 227.76 247.229 227.537 245.536 227.768C243.875 227.99 242.095 228.284 240.553 228.038C240.156 227.982 239.846 227.227 239.679 226.607C239.377 225.527 240.911 224.167 242.763 223.389C244.161 222.8 247.293 222.316 247.07 221.354C247.031 221.155 246.967 220.972 246.88 220.813C246.593 220.885 246.283 220.925 245.966 220.901C244.956 220.853 243.001 220.567 241.507 221.378C239.019 222.713 237.437 224.613 235.617 225.177C233.336 225.876 233.074 224.406 233.4 223.54C233.44 223.444 233.479 223.349 233.535 223.245Z" fill="#FFD6BC"/>
<path fill-rule="evenodd" clip-rule="evenodd" d="M260.246 204.283C260.517 204.879 260.318 204.935 260.231 205.61C260.111 206.469 260.04 207.311 260.437 208.018C261.2 209.378 262.138 209.95 262.686 211.69C262.917 212.453 262.806 213.026 262.663 213.63C262.496 214.353 262.297 215.116 262.44 216.165C262.686 217.961 263.298 218.605 264.292 219.885C264.403 220.028 264.419 220.203 264.411 220.393C264.395 220.664 264.308 220.958 264.212 221.252C263.974 221.999 263.672 222.77 263.728 223.366C263.744 223.644 264.022 223.819 264.332 223.763C264.642 223.708 264.88 223.437 264.856 223.159C264.832 222.889 264.92 222.571 265.031 222.237C265.158 221.824 265.317 221.395 265.428 220.989C265.603 220.314 265.603 219.686 265.246 219.225C264.356 218.088 263.791 217.524 263.569 215.919C263.442 215.005 263.624 214.345 263.767 213.717C263.942 212.962 264.069 212.247 263.775 211.301C263.211 209.489 262.257 208.885 261.462 207.462C261.16 206.922 261.264 206.262 261.351 205.61C261.47 204.76 261.637 204.537 261.296 203.798C261.184 203.544 260.858 203.456 260.564 203.591C260.27 203.727 260.127 204.037 260.246 204.283Z" fill="#333333" fill-opacity="0.42"/>
<path fill-rule="evenodd" clip-rule="evenodd" d="M185.314 187.147L185.298 187.155C185.186 187.219 185.027 187.274 184.813 187.338C184.177 187.545 183.183 187.751 181.952 187.982C178.073 188.713 171.921 189.595 167.176 190.652C160.182 192.25 153.602 193.839 147.068 195.612C140.535 197.384 134.058 199.347 127.254 201.636C127.08 201.692 126.992 201.875 127.048 202.042C127.103 202.208 127.286 202.304 127.453 202.248C134.272 200.07 140.774 198.235 147.315 196.542C153.856 194.849 160.437 193.307 167.423 191.765C172.152 190.692 178.288 189.794 182.15 189.039C184.145 188.649 185.56 188.268 185.973 187.966C186.084 187.878 186.22 187.704 186.291 187.425C186.371 187.147 186.418 186.694 186.434 186.146C186.49 184.199 186.204 180.916 186.196 180.288C186.132 176.799 186.021 173.334 185.814 169.741C185.616 166.395 185.337 162.93 184.956 159.226C184.94 159.044 184.781 158.909 184.598 158.924C184.407 158.948 184.272 159.107 184.296 159.29C184.622 162.986 184.845 166.443 184.988 169.789C185.147 173.366 185.218 176.823 185.234 180.296C185.234 180.781 185.385 182.863 185.417 184.683C185.433 185.582 185.417 186.408 185.337 186.925C185.329 186.996 185.329 187.084 185.314 187.147ZM68.9648 154.815C69.3781 155.523 69.9026 156.588 70.459 157.764C71.6988 160.403 73.0818 163.622 73.662 164.861C74.727 167.135 75.7125 169.4 76.6663 171.673C77.31 173.199 77.93 174.733 78.5419 176.267C79.4718 178.572 80.37 180.884 81.2522 183.213C82.5636 186.67 83.8511 190.16 85.1307 193.712C85.1864 193.879 85.3692 193.967 85.544 193.911C85.7109 193.855 85.7983 193.672 85.7427 193.506C84.5664 189.905 83.4219 186.368 82.19 182.871C81.3634 180.511 80.513 178.174 79.607 175.845C78.995 174.304 78.3591 172.762 77.6995 171.228C76.7139 168.955 75.6648 166.697 74.5521 164.432C73.9401 163.208 72.4698 160.029 71.1504 157.422C70.5543 156.246 69.9821 155.181 69.537 154.466C69.4416 154.315 69.2429 154.259 69.084 154.354C68.925 154.45 68.8694 154.656 68.9648 154.815ZM185.314 187.147C185.329 187.139 185.337 187.131 185.353 187.123C185.345 187.131 185.329 187.139 185.321 187.147H185.314L185.298 187.155C185.266 187.179 185.25 187.195 185.274 187.211C185.298 187.227 185.314 187.195 185.314 187.147ZM87.1654 147.988L86.3309 160.983C86.2434 162.62 86.1322 164.393 86.0288 166.292C85.9732 167.429 85.9176 168.613 85.8619 169.829C85.7745 171.935 85.695 174.153 85.6235 176.473C85.552 178.611 85.4963 180.829 85.4407 183.126C85.4327 183.3 85.5679 183.452 85.7507 183.459C85.9255 183.467 86.0765 183.332 86.0845 183.149C86.2911 179.899 86.5137 176.791 86.7044 173.866C86.8475 171.697 86.9905 169.63 87.1018 167.675C87.2369 165.275 87.3243 163.049 87.4118 161.039C87.4992 158.686 87.6025 155.785 87.6899 153.226C87.7615 151.064 87.8092 149.141 87.833 148.012C87.833 147.829 87.6899 147.67 87.5071 147.67C87.3243 147.662 87.1733 147.805 87.1654 147.988Z" fill="black" fill-opacity="0.5"/>
<path fill-rule="evenodd" clip-rule="evenodd" d="M231.817 126.513C232.119 126.632 232.588 126.815 232.985 126.982C233.319 127.125 233.605 127.236 233.661 127.284C233.788 127.387 233.907 127.498 234.011 127.618C234.114 127.737 234.209 127.864 234.289 127.999C234.567 128.46 234.607 129.032 234.543 129.613C234.44 130.55 234.066 131.536 233.804 132.275C232.954 134.667 232.095 136.591 231.761 137.918C231.579 138.649 231.563 139.237 231.722 139.651C231.801 139.857 231.96 140.104 232.198 140.406C232.954 141.328 234.575 142.846 236.594 145.548C237.913 147.297 238.851 149.403 239.574 151.628C240.663 154.982 241.259 158.606 241.855 161.746C242.499 165.1 242.984 168.756 243.365 172.428C243.739 176.108 244.009 179.795 244.168 183.205C244.375 187.354 244.462 191.201 244.438 195.047C244.414 198.902 244.287 202.749 244.049 206.898C244.041 207.08 244.176 207.231 244.351 207.239C244.526 207.255 244.685 207.12 244.693 206.945C245.002 202.781 245.201 198.926 245.281 195.063C245.36 191.193 245.328 187.33 245.177 183.165C245.05 179.732 244.836 176.02 244.478 172.316C244.12 168.613 243.62 164.917 242.968 161.531C242.348 158.352 241.72 154.68 240.583 151.294C239.805 148.966 238.787 146.772 237.388 144.944C236.88 144.284 236.395 143.696 235.95 143.164C234.702 141.709 233.701 140.732 233.089 140.048C232.818 139.746 232.628 139.516 232.556 139.325C232.389 138.912 232.54 138.276 232.803 137.433C233.192 136.17 233.875 134.516 234.551 132.529C234.821 131.743 235.195 130.694 235.29 129.692C235.354 128.937 235.266 128.214 234.901 127.626C234.797 127.451 234.67 127.292 234.535 127.141C234.4 126.99 234.249 126.855 234.09 126.735C234.042 126.696 233.875 126.608 233.637 126.505C233.192 126.322 232.477 126.052 232.055 125.885C231.889 125.821 231.69 125.909 231.626 126.076C231.563 126.251 231.642 126.441 231.817 126.513ZM247.514 202.622C247.872 202.272 248.349 201.978 248.825 201.755C249.414 201.469 249.994 201.286 250.328 201.223C251.17 201.056 252.076 201.183 252.974 201.429C254.357 201.819 255.724 202.518 256.869 203.075C257.322 203.289 257.838 203.623 258.363 203.798C258.649 203.901 258.943 203.957 259.221 203.949C259.674 203.949 260.143 203.782 260.596 203.52C261.407 203.035 262.17 202.208 262.742 201.731C264.006 200.659 265.285 199.601 266.597 198.584C267.463 197.909 268.345 197.249 269.259 196.629C269.41 196.534 269.458 196.335 269.363 196.184C269.267 196.033 269.061 195.993 268.918 196.089C267.717 196.812 266.549 197.583 265.413 198.393C264.284 199.204 263.179 200.047 262.074 200.905C261.598 201.278 260.97 201.898 260.31 202.351C259.944 202.598 259.579 202.804 259.213 202.804C258.991 202.812 258.768 202.741 258.546 202.653C258.124 202.487 257.711 202.232 257.346 202.065C256.129 201.517 254.675 200.833 253.213 200.492C252.164 200.237 251.114 200.166 250.145 200.396C249.771 200.492 249.127 200.722 248.484 201.08C247.951 201.374 247.419 201.739 247.037 202.161C246.91 202.296 246.91 202.502 247.045 202.63C247.18 202.757 247.387 202.757 247.514 202.622Z" fill="black" fill-opacity="0.5"/>
</svg>
