<svg width="107" height="109" viewBox="0 0 107 109" fill="none" xmlns="http://www.w3.org/2000/svg">
<path fill-rule="evenodd" clip-rule="evenodd" d="M71.1803 75.1526H36.0452C32.4301 75.1526 29.4487 72.1731 29.4487 68.5579V40.0808C29.4487 36.4024 32.4301 33.4229 36.0452 33.4229H71.1803C74.8587 33.4229 77.84 36.4024 77.84 40.0808V68.5579C77.84 72.1731 74.8587 75.1526 71.1803 75.1526ZM37.2497 61.9614C37.1233 61.9614 36.9951 61.9614 36.8687 61.8982C36.2981 61.7086 36.0452 61.073 36.2981 60.5023L38.5806 54.7943V54.7311L42.7032 44.458V44.3948C42.7664 44.2666 42.8314 44.1402 42.9578 44.077C43.021 43.9505 43.1474 43.8873 43.2738 43.8223C43.2738 43.8223 43.2738 43.8223 43.3388 43.8223C43.4652 43.7591 43.5284 43.7591 43.6548 43.7591C43.7812 43.7591 43.9094 43.7591 44.0358 43.8223H44.099C44.2254 43.8873 44.3518 43.9505 44.4168 44.077C44.5432 44.1402 44.6064 44.2666 44.6697 44.3948V44.458L48.7922 54.7311V54.7943L51.0748 60.5023C51.2662 61.073 51.0116 61.7086 50.5041 61.8982C49.9335 62.0878 49.2997 61.835 49.1101 61.3276L47.0804 56.2533H40.2942L38.2645 61.3276C38.0731 61.7086 37.6939 61.9614 37.2497 61.9614ZM61.4128 62.0246H55.768C55.1973 62.0246 54.7531 61.5804 54.7531 61.0098C54.7531 60.3759 55.1973 59.9317 55.768 59.9317H60.3348V45.7888H55.768C55.1973 45.7888 54.7531 45.3446 54.7531 44.774C54.7531 44.1402 55.1973 43.6959 55.768 43.6959H66.9945C67.5651 43.6959 68.0726 44.1402 68.0726 44.774C68.0726 45.3446 67.5651 45.7888 66.9945 45.7888H62.4277V59.9317H66.9945C67.5651 59.9317 68.0726 60.3759 68.0726 61.0098C68.0726 61.5804 67.5651 62.0246 66.9945 62.0246H61.4128ZM46.2551 54.0972L43.6548 47.6921L41.1177 54.0972H46.2551Z" fill="#C7413E"/>
<path fill-rule="evenodd" clip-rule="evenodd" d="M48.0315 35.5791C47.4591 35.5791 46.9517 35.0717 46.9517 34.5011V10.5907C46.9517 10.0201 47.4591 9.5127 48.0315 9.5127C48.6021 9.5127 49.0446 10.0201 49.0446 10.5907V34.5011C49.0446 35.0717 48.6021 35.5791 48.0315 35.5791Z" fill="#C7413E"/>
<mask id="mask0_510_5755" style="mask-type:luminance" maskUnits="userSpaceOnUse" x="41" y="0" width="13" height="13">
<path d="M41.8574 0.189453H53.8767V12.0227H41.8574V0.189453Z" fill="white"/>
</mask>
<g mask="url(#mask0_510_5755)">
<path fill-rule="evenodd" clip-rule="evenodd" d="M48.0314 11.6688C44.8586 11.6688 42.2583 9.06847 42.2583 5.89752C42.2583 2.78978 44.8586 0.189453 48.0314 0.189453C51.2023 0.189453 53.7376 2.78978 53.7376 5.89752C53.7376 9.06847 51.2023 11.6688 48.0314 11.6688Z" fill="#C7413E"/>
</g>
<path fill-rule="evenodd" clip-rule="evenodd" d="M59.2563 35.5793C58.6856 35.5793 58.1782 35.0718 58.1782 34.5012V24.6073C58.1782 24.0367 58.6856 23.5293 59.2563 23.5293C59.8269 23.5293 60.3343 24.0367 60.3343 24.6073V34.5012C60.3343 35.0718 59.8269 35.5793 59.2563 35.5793Z" fill="#C7413E"/>
<path fill-rule="evenodd" clip-rule="evenodd" d="M59.2559 25.6854C56.085 25.6854 53.5479 23.0851 53.5479 19.9141C53.5479 16.8064 56.085 14.2061 59.2559 14.2061C62.4269 14.2061 64.964 16.8064 64.964 19.9141C64.964 23.0851 62.4269 25.6854 59.2559 25.6854Z" fill="#C7413E"/>
<path fill-rule="evenodd" clip-rule="evenodd" d="M70.4819 35.5793C69.9112 35.5793 69.4038 35.0719 69.4038 34.5013V19.0257C69.4038 15.918 71.9409 13.3809 75.0487 13.3809H81.7716C82.3422 13.3809 82.8497 13.8883 82.8497 14.4589C82.8497 15.0295 82.3422 15.537 81.7716 15.537H75.0487C73.1472 15.537 71.5617 17.0592 71.5617 19.0257V34.5013C71.5617 35.0719 71.0543 35.5793 70.4819 35.5793Z" fill="#C7413E"/>
<path fill-rule="evenodd" clip-rule="evenodd" d="M86.4641 20.1671C83.2932 20.1671 80.6929 17.63 80.6929 14.459C80.6929 11.2881 83.2932 8.75098 86.4641 8.75098C89.6351 8.75098 92.1722 11.2881 92.1722 14.459C92.1722 17.63 89.6351 20.1671 86.4641 20.1671Z" fill="#C7413E"/>
<path fill-rule="evenodd" clip-rule="evenodd" d="M36.8048 35.5793C36.171 35.5793 35.7267 35.0719 35.7267 34.5013V19.0257C35.7267 17.0592 34.1413 15.537 32.238 15.537H25.5151C24.8812 15.537 24.437 15.0295 24.437 14.4589C24.437 13.8883 24.8812 13.3809 25.5151 13.3809H32.238C35.3457 13.3809 37.8196 15.918 37.8196 19.0257V34.5013C37.8196 35.0719 37.3754 35.5793 36.8048 35.5793Z" fill="#C7413E"/>
<path fill-rule="evenodd" clip-rule="evenodd" d="M20.8243 20.1671C17.6515 20.1671 15.1162 17.63 15.1162 14.459C15.1162 11.2881 17.6515 8.75098 20.8243 8.75098C23.9952 8.75098 26.5305 11.2881 26.5305 14.459C26.5305 17.63 23.9952 20.1671 20.8243 20.1671Z" fill="#C7413E"/>
<path fill-rule="evenodd" clip-rule="evenodd" d="M96.6756 43.8878H76.7597C76.1891 43.8878 75.6816 43.3804 75.6816 42.8098C75.6816 42.2373 76.1891 41.7949 76.7597 41.7949H96.6756C97.2463 41.7949 97.6887 42.2373 97.6887 42.8098C97.6887 43.3804 97.2463 43.8878 96.6756 43.8878Z" fill="#C7413E"/>
<mask id="mask1_510_5755" style="mask-type:luminance" maskUnits="userSpaceOnUse" x="95" y="36" width="12" height="14">
<path d="M95.4814 36.9854H106.977V49.0046H95.4814V36.9854Z" fill="white"/>
</mask>
<g mask="url(#mask1_510_5755)">
<path fill-rule="evenodd" clip-rule="evenodd" d="M101.304 48.5799C98.1965 48.5799 95.5962 45.9796 95.5962 42.8087C95.5962 39.6359 98.1965 37.1006 101.304 37.1006C104.475 37.1006 107.076 39.6359 107.076 42.8087C107.076 45.9796 104.475 48.5799 101.304 48.5799Z" fill="#C7413E"/>
</g>
<path fill-rule="evenodd" clip-rule="evenodd" d="M82.7224 55.3673H76.7597C76.1891 55.3673 75.6816 54.9231 75.6816 54.2875C75.6816 53.7168 76.1891 53.2744 76.7597 53.2744H82.7224C83.293 53.2744 83.7372 53.7168 83.7372 54.2875C83.7372 54.9231 83.293 55.3673 82.7224 55.3673Z" fill="#C7413E"/>
<path fill-rule="evenodd" clip-rule="evenodd" d="M87.3521 60.0604C84.2444 60.0604 81.644 57.4601 81.644 54.2873C81.644 51.1814 84.2444 48.5811 87.3521 48.5811C90.5231 48.5811 93.1234 51.1814 93.1234 54.2873C93.1234 57.4601 90.5231 60.0604 87.3521 60.0604Z" fill="#C7413E"/>
<path fill-rule="evenodd" clip-rule="evenodd" d="M96.6756 66.7814H76.7597C76.1891 66.7814 75.6816 66.339 75.6816 65.7033C75.6816 65.1327 76.1891 64.6885 76.7597 64.6885H96.6756C97.2463 64.6885 97.6887 65.1327 97.6887 65.7033C97.6887 66.339 97.2463 66.7814 96.6756 66.7814Z" fill="#C7413E"/>
<mask id="mask2_510_5755" style="mask-type:luminance" maskUnits="userSpaceOnUse" x="95" y="59" width="12" height="13">
<path d="M95.4814 59.6377H106.977V71.657H95.4814V59.6377Z" fill="white"/>
</mask>
<g mask="url(#mask2_510_5755)">
<path fill-rule="evenodd" clip-rule="evenodd" d="M101.304 71.4745C98.1965 71.4745 95.5962 68.8741 95.5962 65.7032C95.5962 62.5954 98.1965 59.9951 101.304 59.9951C104.475 59.9951 107.076 62.5954 107.076 65.7032C107.076 68.8741 104.475 71.4745 101.304 71.4745Z" fill="#C7413E"/>
</g>
<path fill-rule="evenodd" clip-rule="evenodd" d="M48.0315 99.0628C47.4591 99.0628 46.9517 98.6186 46.9517 98.048V74.1376C46.9517 73.5038 47.4591 73.0596 48.0315 73.0596C48.6021 73.0596 49.0446 73.5038 49.0446 74.1376V98.048C49.0446 98.6186 48.6021 99.0628 48.0315 99.0628Z" fill="#C7413E"/>
<mask id="mask3_510_5755" style="mask-type:luminance" maskUnits="userSpaceOnUse" x="41" y="96" width="13" height="13">
<path d="M41.8574 96.6201H53.8767V108.363H41.8574V96.6201Z" fill="white"/>
</mask>
<g mask="url(#mask3_510_5755)">
<path fill-rule="evenodd" clip-rule="evenodd" d="M48.0314 108.45C44.8586 108.45 42.2583 105.85 42.2583 102.679C42.2583 99.5078 44.8586 96.9707 48.0314 96.9707C51.2023 96.9707 53.7376 99.5078 53.7376 102.679C53.7376 105.85 51.2023 108.45 48.0314 108.45Z" fill="#C7413E"/>
</g>
<path fill-rule="evenodd" clip-rule="evenodd" d="M59.2563 85.0463C58.6856 85.0463 58.1782 84.6021 58.1782 84.0315V74.1376C58.1782 73.5038 58.6856 73.0596 59.2563 73.0596C59.8269 73.0596 60.3343 73.5038 60.3343 74.1376V84.0315C60.3343 84.6021 59.8269 85.0463 59.2563 85.0463Z" fill="#C7413E"/>
<path fill-rule="evenodd" clip-rule="evenodd" d="M59.2559 94.4334C56.085 94.4334 53.5479 91.8331 53.5479 88.6622C53.5479 85.4912 56.085 82.9541 59.2559 82.9541C62.4269 82.9541 64.964 85.4912 64.964 88.6622C64.964 91.8331 62.4269 94.4334 59.2559 94.4334Z" fill="#C7413E"/>
<path fill-rule="evenodd" clip-rule="evenodd" d="M81.7716 95.1948H75.0487C71.9409 95.1948 69.4038 92.7209 69.4038 89.6132V74.1376C69.4038 73.5038 69.9112 73.0596 70.4819 73.0596C71.0543 73.0596 71.5617 73.5038 71.5617 74.1376V89.6132C71.5617 91.5164 73.1472 93.1019 75.0487 93.1019H81.7716C82.3422 93.1019 82.8497 93.5461 82.8497 94.18C82.8497 94.7506 82.3422 95.1948 81.7716 95.1948Z" fill="#C7413E"/>
<path fill-rule="evenodd" clip-rule="evenodd" d="M86.4641 99.8885C83.2932 99.8885 80.6929 97.2882 80.6929 94.1805C80.6929 91.0095 83.2932 88.4092 86.4641 88.4092C89.6351 88.4092 92.1722 91.0095 92.1722 94.1805C92.1722 97.2882 89.6351 99.8885 86.4641 99.8885Z" fill="#C7413E"/>
<path fill-rule="evenodd" clip-rule="evenodd" d="M32.238 95.1948H25.5151C24.8812 95.1948 24.437 94.7506 24.437 94.18C24.437 93.5461 24.8812 93.1019 25.5151 93.1019H32.238C34.1413 93.1019 35.7267 91.5164 35.7267 89.6132V74.1376C35.7267 73.5038 36.171 73.0596 36.8048 73.0596C37.3754 73.0596 37.8196 73.5038 37.8196 74.1376V89.6132C37.8196 92.7209 35.3457 95.1948 32.238 95.1948Z" fill="#C7413E"/>
<path fill-rule="evenodd" clip-rule="evenodd" d="M20.8243 99.8885C17.6515 99.8885 15.1162 97.2882 15.1162 94.1805C15.1162 91.0095 17.6515 88.4092 20.8243 88.4092C23.9952 88.4092 26.5305 91.0095 26.5305 94.1805C26.5305 97.2882 23.9952 99.8885 20.8243 99.8885Z" fill="#C7413E"/>
<path fill-rule="evenodd" clip-rule="evenodd" d="M30.5264 43.8878H10.6122C10.0416 43.8878 9.53418 43.4436 9.53418 42.873C9.53418 42.2373 10.0416 41.7949 10.6122 41.7949H30.5264C31.097 41.7949 31.5412 42.2373 31.5412 42.873C31.5412 43.4436 31.097 43.8878 30.5264 43.8878Z" fill="#C7413E"/>
<mask id="mask4_510_5755" style="mask-type:luminance" maskUnits="userSpaceOnUse" x="0" y="36" width="12" height="14">
<path d="M0.191406 36.9854H11.8098V49.0046H0.191406V36.9854Z" fill="white"/>
</mask>
<g mask="url(#mask4_510_5755)">
<path fill-rule="evenodd" clip-rule="evenodd" d="M5.91852 48.5809C2.81077 48.5809 0.210449 46.0438 0.210449 42.8728C0.210449 39.7019 2.81077 37.1016 5.91852 37.1016C9.08947 37.1016 11.6898 39.7019 11.6898 42.8728C11.6898 46.0438 9.08947 48.5809 5.91852 48.5809Z" fill="#C7413E"/>
</g>
<path fill-rule="evenodd" clip-rule="evenodd" d="M30.5262 55.3673H24.5654C23.9947 55.3673 23.4873 54.9231 23.4873 54.3525C23.4873 53.7818 23.9947 53.2744 24.5654 53.2744H30.5262C31.0969 53.2744 31.5411 53.7818 31.5411 54.3525C31.5411 54.9231 31.0969 55.3673 30.5262 55.3673Z" fill="#C7413E"/>
<path fill-rule="evenodd" clip-rule="evenodd" d="M19.8726 60.0604C16.7017 60.0604 14.1646 57.5233 14.1646 54.3523C14.1646 51.1814 16.7017 48.5811 19.8726 48.5811C23.0436 48.5811 25.6439 51.1814 25.6439 54.3523C25.6439 57.5233 23.0436 60.0604 19.8726 60.0604Z" fill="#C7413E"/>
<path fill-rule="evenodd" clip-rule="evenodd" d="M30.5264 66.8446H10.6122C10.0416 66.8446 9.53418 66.339 9.53418 65.7665C9.53418 65.1959 10.0416 64.6885 10.6122 64.6885H30.5264C31.097 64.6885 31.5412 65.1959 31.5412 65.7665C31.5412 66.339 31.097 66.8446 30.5264 66.8446Z" fill="#C7413E"/>
<mask id="mask5_510_5755" style="mask-type:luminance" maskUnits="userSpaceOnUse" x="0" y="59" width="12" height="13">
<path d="M0.191406 59.6377H11.8098V71.657H0.191406V59.6377Z" fill="white"/>
</mask>
<g mask="url(#mask5_510_5755)">
<path fill-rule="evenodd" clip-rule="evenodd" d="M5.91852 71.4749C2.81077 71.4749 0.210449 68.9378 0.210449 65.7668C0.210449 62.5959 2.81077 60.0605 5.91852 60.0605C9.08947 60.0605 11.6898 62.5959 11.6898 65.7668C11.6898 68.9378 9.08947 71.4749 5.91852 71.4749Z" fill="#C7413E"/>
</g>
</svg>
