<svg width="114" height="98" viewBox="0 0 114 98" fill="none" xmlns="http://www.w3.org/2000/svg">
<mask id="mask0_510_5862" style="mask-type:luminance" maskUnits="userSpaceOnUse" x="0" y="0" width="114" height="98">
<path d="M0.509766 0.171875H113.25V97.0681H0.509766V0.171875Z" fill="white"/>
</mask>
<g mask="url(#mask0_510_5862)">
<path fill-rule="evenodd" clip-rule="evenodd" d="M79.0072 51.0592C75.184 51.0592 72.0835 47.9587 72.0835 44.1355C72.0835 40.3124 75.184 37.2119 79.0072 37.2119C82.8321 37.2119 85.9308 40.3124 85.9308 44.1355C85.9308 47.9587 82.8321 51.0592 79.0072 51.0592ZM55.9283 51.0592C52.1034 51.0592 49.0047 47.9587 49.0047 44.1355C49.0047 40.3124 52.1034 37.2119 55.9283 37.2119C59.7532 37.2119 62.852 40.3124 62.852 44.1355C62.852 47.9587 59.7532 51.0592 55.9283 51.0592ZM32.8495 51.0592C29.0246 51.0592 25.9241 47.9587 25.9241 44.1355C25.9241 40.3124 29.0246 37.2119 32.8495 37.2119C36.6726 37.2119 39.7731 40.3124 39.7731 44.1355C39.7731 47.9587 36.6726 51.0592 32.8495 51.0592ZM57.7428 0.26821C26.7009 -0.344193 1.14972 18.7838 0.673792 42.9912C0.507568 51.4056 3.39636 59.3266 8.53705 66.1068H8.5353C17.3767 77.4643 7.72693 96.9912 7.72693 96.9912L36.2177 84.7204C42.3557 86.6608 49.0257 87.7911 56.0158 87.9294C87.0559 88.54 112.605 69.4138 113.083 45.2064C113.561 20.9989 88.7829 0.880613 57.7428 0.26821Z" fill="#C7413E"/>
</g>
</svg>
