<svg width="399" height="349" viewBox="0 0 399 349" fill="none" xmlns="http://www.w3.org/2000/svg">
<path fill-rule="evenodd" clip-rule="evenodd" d="M233.305 182.675C233.305 182.675 210.558 218.447 194.77 266.482C193.264 271.068 263.602 284.42 339.61 267.76C346.88 266.165 352.714 249.531 351.551 239.952C348.117 211.63 340.292 210.891 322.612 201.723C311.669 196.048 312.441 174.295 312.441 174.295L308.784 121.837L255.703 110.947L233.305 182.675Z" fill="#333333"/>
<path fill-rule="evenodd" clip-rule="evenodd" d="M219.087 208.28C234.272 200.513 253.833 186.881 259.259 166.469C263.212 151.627 287.464 147.606 310.645 148.52L312.441 174.295C312.441 174.295 311.67 196.048 322.612 201.723C333.761 207.503 340.99 209.934 345.671 218.045C333.037 216.607 312.758 209.48 303.733 200.698C293.985 191.208 288.32 176.096 283.782 177.132C272.765 179.642 294.698 202.864 286.682 209.945C281.24 214.753 268.252 214.874 259.434 216.275C245.379 218.504 224.64 221.791 217.375 221.558C215.752 221.511 214.236 221.358 212.825 221.141C214.992 216.502 217.095 212.201 219.081 208.28H219.087Z" fill="black" fill-opacity="0.1"/>
<path fill-rule="evenodd" clip-rule="evenodd" d="M286.868 194.965C286.868 194.965 303.337 201.369 295.681 212.608C287.058 225.262 276.876 210.927 276.876 210.927L286.868 194.965Z" fill="#FBDECC"/>
<path fill-rule="evenodd" clip-rule="evenodd" d="M292.917 193.063C292.331 197.776 280.458 212.481 276.205 214.467C272.289 216.29 268.929 206.182 267.396 204.957C266.461 204.206 261.23 206.071 254.324 203.097C252.422 202.283 244.549 197.247 243.08 196.402C239.212 194.178 232.465 188.492 229.591 185.005C226.225 180.926 222.917 175.092 221.195 165.249C220.439 160.942 218.627 160.71 222.547 157.693C225.987 155.051 226.78 152.388 229.707 152.187C232.18 152.018 235.894 152.081 240.275 153.772C244.359 155.352 248.866 157.143 252.839 159.378C258.456 162.543 262.562 167.077 263.434 167.69C267.898 170.828 271.19 172.477 273.246 175.013C276.136 178.58 277.494 181.94 279.702 186.178C280.22 187.176 293.498 188.344 292.917 193.063Z" fill="#333333"/>
<path fill-rule="evenodd" clip-rule="evenodd" d="M279.877 0.0186794C293.964 0.42025 304.251 5.00132 310.576 14.8134C316.848 24.5462 319.078 34.3424 319.87 41.6605C320.917 51.3457 315.802 63.3083 315.823 71.1653C315.855 81.0513 324.621 91.9096 330.38 110.947C339.104 139.765 345.55 173.745 349.782 195.266C352.181 207.451 352.979 213.971 351.822 218.616C350.263 224.877 331.653 202.368 317.308 201.528C306.492 200.899 295.935 152.452 290.144 152.124C278.842 151.49 294.672 182.358 283.639 184.498C273.595 186.442 260.729 198.104 251.376 207.044C239.44 218.457 189.55 221.152 190.174 215.984C191.421 205.654 195.188 190.891 196.879 184.197C202.966 160.124 209.808 124.014 219.087 97.1142C220.672 92.5225 223.784 85.7856 227.028 80.6234C229.765 76.2695 234.426 72.4968 233.39 70.4943C231.282 66.3993 231.002 48.9521 231.292 43.8638C231.546 39.436 233.3 30.2104 236.397 24.599C242.764 13.0433 247.001 9.94169 253.358 6.07394C258.805 2.76098 269.875 -0.266648 279.877 0.0186794Z" fill="#7B2C2C"/>
<path fill-rule="evenodd" clip-rule="evenodd" d="M263.106 130.292C263.106 130.292 246.684 123.756 254.435 112.575C263.159 99.9889 273.224 114.408 273.224 114.408L263.106 130.292Z" fill="#FBDECC"/>
<path fill-rule="evenodd" clip-rule="evenodd" d="M274.334 111.042C269.769 112.353 257.093 126.371 255.799 130.883C254.61 135.036 265.114 136.78 266.567 138.101C267.449 138.909 266.43 144.368 270.44 150.729C271.544 152.473 277.748 159.469 278.81 160.79C281.61 164.261 285.008 168.768 286.878 171.003C289.874 174.57 296.04 178.49 304.521 180.366C305.662 180.62 307.749 184.477 308.933 184.498C312.383 184.556 315.368 180.541 317.64 177.46C320.774 173.212 324.89 170.723 324.568 167.099C324.346 164.631 323.706 160.969 321.355 156.911C319.157 153.118 316.684 148.949 313.857 145.371C309.852 140.315 304.737 136.97 303.992 136.204C300.199 132.283 298.059 129.293 295.232 127.655C291.253 125.356 287.724 124.537 283.195 123.021C282.128 122.662 278.9 109.732 274.334 111.042Z" fill="#333333"/>
<path fill-rule="evenodd" clip-rule="evenodd" d="M339.521 192.814L324.382 152.647C324.382 152.647 291.047 123.089 295.506 127.665C301.171 133.477 296.769 144.214 297.652 155.41C299.369 177.042 304.515 186.511 310.121 194.891C312.061 197.792 333.381 182.891 332.673 184.498L339.521 192.814Z" fill="#7B2C2C"/>
<path fill-rule="evenodd" clip-rule="evenodd" d="M285.62 50.5375C282.619 41.2063 261.705 15.6379 254.651 15.2363C250.657 15.0091 239.238 28.039 238.34 35.8485C237.209 45.6923 235.286 51.124 235.931 56.8306C236.295 60.0643 238.567 64.4921 240.131 67.2027C242.081 70.5896 247.767 76.8879 255.005 77.3001C259.977 77.5854 265.23 75.6938 269.906 73.8075C275.765 71.4456 280.722 68.6875 283.052 65.5541C284.748 63.2715 285.282 61.1791 285.514 57.1317C285.662 54.4951 286.074 51.9377 285.62 50.5375Z" fill="#FBDECC"/>
<path fill-rule="evenodd" clip-rule="evenodd" d="M248.364 19.2096C250.858 16.758 253.225 15.157 254.652 15.2362C256.755 15.3577 260.1 17.7196 263.825 21.2228C260.644 20.0022 256.163 18.7605 251.36 18.9402C250.309 18.9772 249.31 19.0723 248.364 19.2096Z" fill="black"/>
<path fill-rule="evenodd" clip-rule="evenodd" d="M328.922 259.85L269.415 245.88L262.837 282.925L325.862 281.815L328.922 259.85Z" fill="#FBDECC"/>
<mask id="mask0_1067_1609" style="mask-type:luminance" maskUnits="userSpaceOnUse" x="319" y="231" width="43" height="61">
<path d="M319.363 231.096H361.644V291.965H319.363V231.096Z" fill="white"/>
</mask>
<g mask="url(#mask0_1067_1609)">
<path fill-rule="evenodd" clip-rule="evenodd" d="M320.647 282.676C322.987 280.843 327.616 276.336 326.115 270.666C323.679 261.472 323.273 260.03 324.567 255.681C325.201 253.557 330.781 254.73 334.458 252.342C336.725 250.873 338.77 249.525 340.82 246.958C344.26 242.641 346.68 238.361 348.365 234.794C350.12 231.096 359.705 231.154 360.518 235.301C361.617 240.918 361.58 247.866 360.724 254.899C359.99 260.965 358.378 270.122 356.038 278.227C354.046 285.138 352.006 289.704 349.1 290.929C343.673 293.228 317.302 285.297 320.647 282.676Z" fill="#333333"/>
</g>
<path fill-rule="evenodd" clip-rule="evenodd" d="M158.565 218.426C158.565 218.426 281.525 240.708 306.818 249.584C313.243 251.841 311.473 264.823 310.316 271.681C309.159 278.545 306.48 290.048 299.87 290.751C275.02 293.398 188.117 288.183 161.217 287.565C153.64 287.39 145.905 288.463 138.486 287.047C120.786 283.665 104.078 273.256 87.4658 269.869L158.565 218.426Z" fill="#7B2C2C"/>
<path fill-rule="evenodd" clip-rule="evenodd" d="M158.919 218.489C164.33 219.472 230.932 231.619 274.281 241.262C275.332 241.717 276.299 242.177 277.166 242.636C294.116 251.619 306.438 263.571 310.274 271.586L310.316 271.681C309.164 278.519 306.501 289.958 299.949 290.745L299.87 290.751C290.576 291.744 272.606 291.633 252.337 291.073C238.8 287.95 224.264 284.035 210.611 283.459C189.687 282.577 171.468 287.802 161.217 287.565C160.684 287.554 160.15 287.549 159.616 287.549H159.442C155.638 287.543 151.812 287.781 148.008 287.792H147.654C144.568 287.786 141.498 287.623 138.486 287.047C120.786 283.665 104.078 273.256 87.4658 269.869L158.565 218.426L158.919 218.489Z" fill="black" fill-opacity="0.31"/>
<path fill-rule="evenodd" clip-rule="evenodd" d="M313.916 294.444L256.121 274.561L269.283 242.784L322.438 276.041L313.916 294.444Z" fill="#FBDECC"/>
<mask id="mask1_1067_1609" style="mask-type:luminance" maskUnits="userSpaceOnUse" x="296" y="262" width="62" height="51">
<path d="M296.368 262.207H357.238V312.187H296.368V262.207Z" fill="white"/>
</mask>
<g mask="url(#mask1_1067_1609)">
<path fill-rule="evenodd" clip-rule="evenodd" d="M297.372 289.603C300.331 289.307 306.656 287.976 308.421 282.386C311.285 273.313 311.713 271.876 315.137 268.901C316.811 267.443 320.896 271.422 325.276 271.374C327.981 271.342 330.428 271.295 333.529 270.227C338.75 268.426 343.083 266.101 346.422 263.993C349.872 261.805 357.946 266.983 356.408 270.925C354.332 276.256 350.58 282.105 346.094 287.59C342.227 292.319 335.965 299.193 329.651 304.784C324.267 309.56 320.103 312.318 316.991 311.801C311.179 310.839 293.151 290.026 297.372 289.603Z" fill="#333333"/>
</g>
<path fill-rule="evenodd" clip-rule="evenodd" d="M241.59 225.231C233.522 221.263 224.688 218.235 215.721 217.601C202.955 216.703 164.986 219.846 164.986 219.846L124.2 242.725L99.8203 286.259C99.8203 286.259 121.045 287.77 131.682 288.008C147.169 288.356 177.376 286.026 202.945 273.049C207.616 270.693 213.1 270.582 217.866 272.743C241.379 283.268 265.278 291.342 274.646 294.443C281.098 296.583 289.425 281.53 292.289 275.966C295.158 270.397 299.454 260.537 294.408 256.284C285.531 248.797 254.705 231.677 241.59 225.231Z" fill="#7B2C2C"/>
<path fill-rule="evenodd" clip-rule="evenodd" d="M144.59 228.576C141.267 224.634 143.227 224.941 135.729 205.089C132.612 196.841 129.716 187.764 128.432 183.41C126.826 177.962 124.517 171.004 122.826 166.317C119.022 155.802 117.69 148.135 116.549 138.18C116.058 133.885 125.854 119.428 128.982 117.758C132.887 115.677 142.154 120.3 148.146 128.833C156.009 140.03 157.62 163.173 161.213 177.909C166.296 198.775 170.555 209.982 173.873 218.067C174.935 220.656 160.341 219.461 155.322 224.544C152.474 227.424 147.275 231.757 144.59 228.576Z" fill="#333333"/>
<path fill-rule="evenodd" clip-rule="evenodd" d="M140.025 122.165C146.852 128.284 147.427 133.229 149.404 139.491C154.381 155.289 154.286 189.639 167.717 218.426C168.568 220.254 164.964 220.391 161.599 222.267C157.837 224.37 154.17 227.968 153.308 224.972C148.764 209.19 138.366 149.921 135.946 128.199C135.534 124.501 138.218 120.543 140.025 122.165Z" fill="black" fill-opacity="0.2"/>
<path fill-rule="evenodd" clip-rule="evenodd" d="M125.648 114.889L111.661 111.613C111.661 111.613 108.623 109.711 104.142 109.558C103.165 109.526 95.8838 109.235 90.6158 109.558C83.0177 110.023 71.388 117.013 69.2903 124.759C63.3777 146.613 71.4092 178.348 69.3749 227.334C68.6087 245.822 71.071 273.055 63.7793 285.852C58.3951 295.289 68.6616 298.518 77.1051 298.972C81.3692 299.199 90.7321 297.287 94.7161 297.25C117.933 297.033 111.207 250.826 174.824 218.304C177.551 216.909 165.741 220.999 160.6 214.288C154.925 206.886 152.077 171.125 151.359 166.882C149.303 154.756 147.005 140.378 145.906 133.092C144.442 123.438 133.679 116.897 133.679 116.897L125.648 114.889Z" fill="#333333"/>
<path fill-rule="evenodd" clip-rule="evenodd" d="M69.391 193.718C80.989 170.812 99.5933 144.23 99.6039 146.681C99.7782 184.968 83.4988 210.88 78.2308 232.723C75.721 243.111 73.2376 258.085 72.128 267.321C70.7965 278.37 66.226 286.179 63.7373 285.921L63.7796 285.852C71.0712 273.054 68.609 245.822 69.3751 227.333C69.8824 215.091 69.7661 203.926 69.391 193.718Z" fill="black" fill-opacity="0.2"/>
<path fill-rule="evenodd" clip-rule="evenodd" d="M29.4239 252.511C28.0131 253.129 26.6816 266.693 21.6038 272.991C16.32 279.543 7.03633 280.119 4.12495 281.123C-5.58672 284.452 3.53316 292.457 14.1167 292.747C22.3805 292.974 32.0024 294.338 38.195 290.766C40.3138 289.551 43.1037 282.84 44.2978 277.926C45.4444 273.197 45.8988 268.542 46.1577 266.899C47.0718 261.124 33.1437 250.868 29.4239 252.511Z" fill="#FBDECC"/>
<path fill-rule="evenodd" clip-rule="evenodd" d="M23.11 259.856C22.6715 254.72 39.3789 212.529 44.7209 191.991C46.9401 183.457 49.8197 174.38 51.2886 170.084C53.1274 164.71 55.2621 157.693 56.5883 152.89C59.5578 142.111 62.8972 135.084 67.7213 126.297C69.7979 122.514 76.1913 115.238 79.705 115.687C84.0959 116.242 96.4019 126.228 98.6422 136.405C102.795 155.279 92.4496 171.553 87.9953 185.206C85.7709 192.038 79.9217 206.738 75.2296 217.226C73.5917 220.888 71.5838 225.39 69.391 230.256C63.135 244.126 55.3413 260.96 50.1579 269.821C47.1356 274.989 41.8095 272.416 34.8295 269.198C26.1694 265.214 23.4641 264.009 23.11 259.856Z" fill="#333333"/>
<path fill-rule="evenodd" clip-rule="evenodd" d="M134.445 116.96C134.022 118.498 127.116 117.943 119.026 115.713C110.942 113.483 104.718 110.424 105.14 108.881L107.339 100.86V100.866C107.011 102.155 113.283 105.003 121.351 107.227C129.441 109.457 136.289 110.223 136.643 108.934L134.445 116.96Z" fill="#7B2C2C"/>
<path fill-rule="evenodd" clip-rule="evenodd" d="M122.631 102.567C130.715 104.797 136.992 107.65 136.644 108.934C136.29 110.223 129.442 109.457 121.352 107.228C113.268 104.998 106.985 102.144 107.339 100.861C107.693 99.5713 114.541 100.337 122.631 102.567Z" fill="#7B2C2C"/>
<path fill-rule="evenodd" clip-rule="evenodd" d="M149.081 93.6797C148.902 93.722 149.293 94.1182 149.34 94.319C149.509 95.0746 149.557 95.6241 149.752 96.6333C149.795 96.8658 149.985 97.5527 149.911 97.7852C149.879 97.9015 149.287 97.4893 149.139 97.632C148.891 97.8803 149.298 98.6359 149.192 98.9952C149.081 99.3492 148.585 98.8737 148.431 99.122C148.252 99.4179 148.791 100.089 148.542 100.427C148.431 100.58 147.649 100.485 147.66 100.549C147.692 100.728 147.776 100.903 147.84 101.082C148.125 101.944 147.533 101.516 147.031 101.959C146.788 102.176 147.195 102.837 146.889 103.085C146.64 103.286 146.128 102.884 145.937 103.138C145.721 103.439 145.996 103.914 145.605 104.073C145.388 104.163 145.002 103.74 144.78 103.978C144.416 104.369 144.701 104.86 144.088 105.024C143.776 105.103 143.058 104.601 142.852 104.749C142.45 105.04 142.392 105.663 141.679 105.267C141.425 105.124 141.156 104.654 140.897 104.607C140.617 104.554 140.479 105.278 140.025 105.045C139.586 104.823 139.401 104.168 138.984 103.93C138.884 103.877 138.545 104.147 138.323 104.057C138.028 103.93 137.843 103.629 137.568 103.476C137.43 103.397 137.24 103.608 137.024 103.508C136.405 103.222 135.65 102.477 135.164 101.933C134.635 101.347 133.721 101.5 133.23 100.776C133.129 100.628 132.865 99.661 132.929 99.4391C133.04 99.085 133.52 98.8261 133.769 98.6412C134.672 97.9543 135.84 97.8328 136.886 97.484C139.042 96.7602 141.124 95.6928 143.296 95.0535C144.907 94.5779 146.672 94.6308 148.215 94.0126L149.081 93.6797Z" fill="black"/>
<path fill-rule="evenodd" clip-rule="evenodd" d="M115.772 74.996C117.135 78.6894 108.443 90.6784 108.221 92.3217C107.434 91.7193 102.119 91.7246 97.1624 90.2134C91.8363 88.586 87.9368 86.5359 84.6661 84.4382C81.2211 82.2349 74.4367 75.1017 72.3971 70.4467C70.4421 65.9924 71.9533 63.5301 71.0444 60.6082C68.0961 51.1343 69.2215 42.4794 76.3494 35.4572C77.8764 33.946 78.5897 22.5964 85.8497 16.9004C88.2433 15.0247 93.0674 12.1556 96.1849 11.0301C100.312 9.53479 104.052 6.99327 108.227 6.11087C111.883 5.33944 115.804 6.34336 119.629 6.43319C125.383 6.57585 132.569 8.34593 136.981 11.2837C144.12 16.0445 145.562 17.0589 148.986 21.4128C152.505 25.8882 157.683 26.9925 159.142 29.1642C160.573 31.2988 155.755 38.5377 152.732 40.572C150.164 42.2945 114.773 72.3066 115.772 74.996Z" fill="black"/>
<path fill-rule="evenodd" clip-rule="evenodd" d="M151.977 35.0713C151.977 35.0713 157.097 56.4708 157.535 69.3104C157.757 75.762 157.894 81.0722 154.719 87.2754C151.85 92.8816 146.006 97.6106 136.643 99.8932C130.324 101.436 119.645 98.5828 113.584 96.1998C108.306 94.1233 104.787 93.7957 100.28 85.5899C98.256 87.1169 95.1386 86.0179 92.6182 84.0629C87.7042 80.2585 87.6091 75.1913 88.3119 72.5441C90.1136 65.802 98.0235 71.8784 101.511 73.9708C102.346 70.3355 101.157 67.44 101.875 64.2961C102.816 60.1853 107.439 59.3293 107.143 49.3059C107.096 47.5887 112.115 48.0325 115.238 47.2346C124.089 44.9785 124.77 40.3974 130.926 38.8281C134.54 37.9034 142.334 38.1729 144.484 36.9629C146.73 35.7001 151.977 35.0713 151.977 35.0713Z" fill="#FBDECC"/>
<g filter="url(#filter0_f_1067_1609)">
<ellipse cx="204.036" cy="301.118" rx="157.964" ry="11.5182" fill="black"/>
</g>
<defs>
<filter id="filter0_f_1067_1609" x="9.70772" y="253.235" width="388.657" height="95.7652" filterUnits="userSpaceOnUse" color-interpolation-filters="sRGB">
<feFlood flood-opacity="0" result="BackgroundImageFix"/>
<feBlend mode="normal" in="SourceGraphic" in2="BackgroundImageFix" result="shape"/>
<feGaussianBlur stdDeviation="18.1823" result="effect1_foregroundBlur_1067_1609"/>
</filter>
</defs>
</svg>
