<svg width="952" height="315" viewBox="0 0 952 315" fill="none" xmlns="http://www.w3.org/2000/svg">
<g clip-path="url(#clip0_918_3885)">
<path d="M826.795 76.5178C827.426 75.0269 828.608 74.0172 830.249 73.7078C831.893 73.3972 833.475 73.8169 834.487 74.9992L893.735 136.038L815.601 102.952L826.795 76.5178Z" fill="#C7413E" fill-opacity="0.2"/>
<path d="M794.07 182.327C795.039 181.227 795.368 179.859 794.966 178.432C794.841 178.128 793.996 172.992 799.132 159.079C803.548 146.869 823.515 147.28 828.629 147.688C832.267 150.987 846.457 165.04 840.975 176.798C834.557 190.168 830.371 192.921 829.976 193.257C828.671 193.961 827.917 195.15 827.802 196.611C827.9 198.16 828.607 199.464 830.102 200.097L836.079 202.628L812.428 258.48L760.338 236.422L783.989 180.57L789.966 183.101C791.249 183.644 792.89 183.335 794.07 182.327Z" fill="#C7413E" fill-opacity="0.2"/>
<path d="M784.746 97.9302L904.508 148.645L843.937 291.682C841.681 297.01 835.607 299.467 830.269 297.207L720.326 250.65C714.989 248.391 712.525 242.318 714.781 236.99L771.29 103.545C773.334 98.1264 779.622 95.7605 784.746 97.9302ZM752.064 236.94C751.252 238.858 752.114 240.984 754.036 241.797L812.955 266.747C814.877 267.561 817.004 266.701 817.816 264.783L844.355 202.11C845.167 200.193 844.305 198.067 842.383 197.253L838.328 195.536C840.84 192.577 843.86 187.823 847.626 180.117C856.514 161.506 833.472 142.195 832.587 141.317C832.036 140.833 831.395 140.562 830.666 140.503C829.417 140.478 799.302 137.279 792.334 156.703C789.423 164.771 788.11 170.249 787.732 174.111L783.676 172.393C781.755 171.579 779.628 172.439 778.816 174.357L752.276 237.03L752.064 236.94Z" fill="#C7413E" fill-opacity="0.2"/>
</g>
<g clip-path="url(#clip1_918_3885)">
<path d="M124.479 76.5178C123.848 75.0269 122.667 74.0172 121.026 73.7078C119.382 73.3972 117.799 73.8169 116.787 74.9992L57.5398 136.038L135.673 102.952L124.479 76.5178Z" fill="#C7413E" fill-opacity="0.2"/>
<path d="M157.202 182.327C156.233 181.227 155.904 179.859 156.307 178.432C156.431 178.128 157.276 172.992 152.141 159.079C147.724 146.869 127.758 147.28 122.644 147.688C119.005 150.987 104.815 165.04 110.298 176.798C116.716 190.168 120.901 192.921 121.296 193.257C122.602 193.961 123.355 195.15 123.471 196.611C123.373 198.16 122.665 199.464 121.171 200.097L115.193 202.628L138.844 258.48L190.935 236.422L167.284 180.57L161.306 183.101C160.024 183.644 158.383 183.335 157.202 182.327Z" fill="#C7413E" fill-opacity="0.2"/>
<path d="M166.529 97.9302L46.7666 148.645L107.337 291.682C109.594 297.01 115.667 299.467 121.005 297.207L230.949 250.65C236.285 248.391 238.749 242.318 236.493 236.99L179.984 103.545C177.94 98.1264 171.652 95.7605 166.529 97.9302ZM199.211 236.94C200.023 238.858 199.16 240.984 197.238 241.797L138.319 266.747C136.398 267.561 134.271 266.701 133.459 264.783L106.919 202.11C106.107 200.193 106.97 198.067 108.891 197.253L112.947 195.536C110.435 192.577 107.415 187.823 103.648 180.117C94.7606 161.506 117.802 142.195 118.687 141.317C119.238 140.833 119.88 140.562 120.609 140.503C121.858 140.478 151.973 137.279 158.94 156.703C161.851 164.771 163.164 170.249 163.542 174.111L167.598 172.393C169.52 171.579 171.647 172.439 172.459 174.357L198.998 237.03L199.211 236.94Z" fill="#C7413E" fill-opacity="0.2"/>
</g>
<mask id="mask0_918_3885" style="mask-type:luminance" maskUnits="userSpaceOnUse" x="262" y="0" width="430" height="193">
<path d="M262 0H691.333V192.509H262V0Z" fill="white"/>
</mask>
<g mask="url(#mask0_918_3885)">
<path d="M688.483 135.349V111.124H689.171L690.344 108.156H687.413V82.6357H688.038L689.045 79.6637H686.104C685.7 77.3437 684.594 74.4886 681.721 74.1693V73.9041C682.116 73.7107 682.386 73.3106 682.386 72.8475C682.386 72.3799 682.116 71.9797 681.721 71.7864V70.9411C682.116 70.7477 682.386 70.3476 682.386 69.8845C682.386 69.4169 682.116 69.0167 681.721 68.8234V62.2544C681.721 61.9667 681.491 61.7329 681.204 61.7329C680.92 61.7329 680.682 61.9667 680.682 62.2544V68.8234C680.291 69.0167 680.021 69.4124 680.021 69.8845C680.021 70.3476 680.291 70.7522 680.682 70.9411V71.7864C680.291 71.9797 680.017 72.3799 680.017 72.8475C680.017 73.3196 680.291 73.7152 680.682 73.9086V74.1738C677.813 74.4976 676.707 77.3482 676.298 79.6727H673.358L674.365 82.6402H674.99V108.161H672.058L673.232 111.128H673.92V135.354H671.083L672.382 138.321H672.845V161.742H670.156V160.141H668.785C668.785 152.43 660.107 147.138 657.729 145.83C658.057 145.623 658.286 145.277 658.286 144.859C658.286 144.405 658.026 144.018 657.648 143.825L658.003 143.137L657.113 138.82L656.223 143.137L656.578 143.825C656.205 144.018 655.944 144.405 655.944 144.859C655.944 145.277 656.178 145.623 656.501 145.83C654.577 146.886 648.507 150.56 646.277 156.032H641.88V148.465L643.512 146.167H639.874C639.874 134.481 625.905 126.671 623.544 125.44V124.806L624.088 123.349L623.544 122.769V122.031L624.088 121.456L623.553 117.427C626.166 117.252 628.229 115.076 628.229 112.419C628.229 110.728 627.393 109.226 626.112 108.318C626.723 109.006 627.105 109.914 627.105 110.912C627.105 113.07 625.361 114.815 623.203 114.815L623.198 114.779L623.194 114.815C621.04 114.815 619.291 113.07 619.291 110.912C619.291 109.914 619.673 109.006 620.289 108.318C619.003 109.226 618.167 110.728 618.167 112.419C618.167 115.076 620.231 117.252 622.843 117.427L622.308 121.456L622.852 122.031V122.773L622.308 123.353L622.852 124.801V125.444C620.487 126.68 606.522 134.49 606.522 146.172H602.884L604.516 148.469V156.036H596.729L596.36 118.466L598.734 112.203H596.302L596.113 92.7611H596.135L598.734 86.4934H595.942L595.169 66.8585L597.817 60.9775H594.935L594.198 41.1627L596.608 35.2547H593.86C593.55 33.4697 592.799 31.325 591.05 30.4573L589.769 12.0363H589.773V11.3619C590.137 11.1776 590.394 10.8089 590.394 10.3727C590.394 9.93211 590.137 9.56342 589.773 9.38357V8.59674C590.137 8.41239 590.394 8.0437 590.394 7.60308C590.394 7.16695 590.137 6.79826 589.773 6.61391V0.48559C589.773 0.215818 589.557 0 589.288 0C589.018 0 588.798 0.215818 588.798 0.48559V6.61391C588.433 6.79826 588.177 7.16695 588.177 7.60308C588.177 8.0437 588.433 8.41239 588.798 8.59674V9.38357C588.433 9.56342 588.177 9.93661 588.177 10.3682C588.177 10.8089 588.433 11.1776 588.798 11.3574V12.0273L587.521 30.4483C585.767 31.316 585.025 33.4607 584.711 35.2457H581.963L584.364 41.1537L583.636 60.9685H580.745L583.398 66.8495L582.62 86.4844H579.837L582.431 92.7522H582.458L582.274 112.194H579.837L582.211 118.457L581.712 169.457H579.837V162.088H572.036V158.572H572.297C572.674 158.572 572.98 158.266 572.98 157.889H573.263C573.636 157.889 573.942 157.587 573.942 157.21C573.942 156.832 573.641 156.526 573.263 156.526H570.849C570.849 154.98 569.428 153.199 567.207 151.945L566.537 126.636H567.71C568.151 125.633 567.49 124.518 566.447 124.378L565.719 105.832H567.063C567.481 104.779 566.735 103.637 565.624 103.57L564.9 84.0385H566.2C566.559 82.9729 565.813 81.8713 564.72 81.7769C564.41 80.0009 563.565 77.8113 561.366 77.564V77.483C561.663 77.3347 561.87 77.0289 561.87 76.6737C561.87 76.314 561.663 76.0128 561.366 75.8599V75.217C561.663 75.0641 561.874 74.7628 561.874 74.4031C561.874 74.048 561.663 73.7422 561.366 73.5938V68.5761C561.366 68.3558 561.186 68.1759 560.966 68.1759C560.746 68.1759 560.57 68.3558 560.57 68.5761V73.6028C560.269 73.7512 560.058 74.0524 560.058 74.4121C560.058 74.7673 560.269 75.0731 560.57 75.2215V75.8689C560.269 76.0173 560.058 76.3185 560.058 76.6782C560.058 77.0334 560.269 77.3437 560.57 77.4875V77.5685C558.367 77.8158 557.522 80.0054 557.216 81.7814C556.119 81.8758 555.373 82.9774 555.737 84.043H557.032L556.308 103.575C555.198 103.642 554.451 104.784 554.869 105.841H556.214L555.485 124.387C554.442 124.522 553.781 125.637 554.222 126.64H555.395L554.725 151.949C552.504 153.204 551.083 154.989 551.083 156.531H548.669C548.296 156.531 547.99 156.837 547.99 157.214C547.99 157.587 548.291 157.893 548.669 157.893H548.952C548.952 158.271 549.258 158.577 549.636 158.577H549.896V162.093H544.236V144.877H542.172C542.172 135.412 534.501 127.742 525.037 127.742C515.563 127.742 507.893 135.412 507.893 144.877H505.829V115.525H507.331C508.32 115.525 509.125 114.725 509.125 113.736C509.125 113.241 508.918 112.796 508.594 112.472C508.271 112.149 507.826 111.942 507.331 111.942H502.56C501.284 95.5668 491.338 88.2964 484.153 85.1491C482.773 81.6915 479.158 79.268 477.508 78.3014V77.8472C478.151 77.537 478.587 76.8851 478.587 76.1297C478.587 75.3653 478.151 74.7179 477.508 74.4031V72.7261C477.993 72.4383 478.326 71.9078 478.326 71.3053C478.326 70.6983 477.993 70.1722 477.508 69.8845V67.6409C477.993 67.3576 478.326 66.8315 478.326 66.2201C478.326 65.6176 477.993 65.0915 477.508 64.7993V58.8957C477.508 58.8957 477.508 58.8957 477.508 58.8913C477.508 58.2753 477.445 57.6728 477.314 57.2007C477.269 56.9894 477.197 56.7915 477.107 56.6297C476.914 56.2565 476.833 55.4831 476.928 54.8357C476.932 54.8267 476.932 54.8132 476.932 54.8087C476.995 54.404 476.968 53.9229 476.869 53.6037L476.667 52.9787L476.465 53.6172C476.361 53.9364 476.334 54.4175 476.397 54.8222V54.8537C476.496 55.4966 476.415 56.27 476.217 56.6432C476.136 56.805 476.064 57.0028 476.01 57.2142C475.889 57.6863 475.822 58.2933 475.822 58.9047V64.8128C475.336 65.105 475.008 65.6311 475.008 66.2336C475.008 66.8405 475.336 67.3666 475.822 67.6544V69.9025C475.336 70.1857 475.008 70.7118 475.008 71.3188C475.008 71.9257 475.336 72.4473 475.822 72.7396V74.4166C475.183 74.7269 474.738 75.3833 474.738 76.1432C474.738 76.903 475.183 77.5505 475.822 77.8697V78.3193C474.176 79.2815 470.561 81.7095 469.181 85.1626C461.987 88.3054 452.041 95.5803 450.764 111.96H445.994C445.009 111.96 444.204 112.756 444.204 113.749C444.204 114.244 444.407 114.694 444.73 115.017C445.054 115.337 445.504 115.543 445.994 115.543H447.5V144.886H445.441C445.441 135.421 437.77 127.751 428.306 127.751C418.832 127.751 411.162 135.421 411.162 144.886H409.098V162.102H403.437V158.586H403.698C404.071 158.586 404.381 158.28 404.381 157.902H404.665C405.038 157.902 405.344 157.601 405.344 157.223C405.344 156.846 405.042 156.54 404.665 156.54H402.255C402.255 154.998 400.834 153.213 398.613 151.958L397.938 126.649H399.116C399.557 125.646 398.896 124.531 397.853 124.392L397.12 105.85H398.464C398.883 104.793 398.141 103.651 397.026 103.583L396.302 84.052H397.601C397.961 82.9864 397.219 81.8848 396.122 81.7904C395.812 80.0144 394.971 77.8248 392.768 77.5775V77.4965C393.069 77.3482 393.276 77.0424 393.276 76.6872C393.276 76.3275 393.069 76.0218 392.768 75.8779V75.2305C393.069 75.0821 393.276 74.7763 393.276 74.4211C393.276 74.0614 393.069 73.7557 392.768 73.6073V68.5761C392.768 68.3558 392.592 68.1759 392.372 68.1759C392.152 68.1759 391.972 68.3558 391.972 68.5761V73.6028C391.671 73.7512 391.464 74.0524 391.464 74.4121C391.464 74.7673 391.671 75.0731 391.972 75.2215V75.8689C391.671 76.0173 391.464 76.3185 391.464 76.6782C391.464 77.0334 391.671 77.3392 391.972 77.4875V77.5685C389.773 77.8158 388.928 80.0054 388.618 81.7814C387.521 81.8758 386.779 82.9774 387.138 84.043H388.438L387.714 103.575C386.599 103.642 385.853 104.784 386.275 105.841H387.62L386.887 124.387C385.844 124.522 385.183 125.637 385.623 126.64H386.797L386.127 151.949C383.906 153.204 382.485 154.989 382.485 156.531H380.07C379.697 156.531 379.392 156.837 379.392 157.214C379.392 157.587 379.693 157.893 380.07 157.893H380.354C380.354 158.271 380.659 158.577 381.037 158.577H381.298V162.093H373.488V169.462H371.613L371.119 118.461L373.488 112.194H371.056L370.867 92.7522H370.898L373.488 86.4844H370.705L369.927 66.8495L372.58 60.9685H369.689L368.96 41.1537L371.361 35.2457H368.614C368.304 33.4607 367.562 31.316 365.804 30.4483L364.527 12.0273V11.3619C364.891 11.1776 365.148 10.8089 365.148 10.3727C365.148 9.9411 364.891 9.56342 364.527 9.38807V8.59674C364.891 8.41239 365.148 8.0437 365.148 7.60308C365.148 7.16695 364.891 6.79826 364.527 6.61391V0.48559C364.527 0.215818 364.307 0 364.037 0C363.772 0 363.551 0.215818 363.551 0.48559V6.61391C363.187 6.79826 362.931 7.16695 362.931 7.60308C362.931 8.0437 363.187 8.41239 363.551 8.59674V9.37908C363.187 9.56342 362.931 9.93211 362.931 10.3682C362.931 10.8089 363.187 11.1776 363.551 11.3574V12.0273H363.556L362.274 30.4483C360.521 31.316 359.779 33.4607 359.464 35.2457H356.713L359.123 41.1537L358.39 60.9685H355.503L358.156 66.8495L357.378 86.4844H354.586L357.185 92.7522H357.212L357.027 112.194H354.595L356.969 118.457L356.605 156.027H348.817V148.46L350.445 146.163H346.808C346.808 134.481 332.847 126.671 330.477 125.435V124.792L331.021 123.344L330.477 122.764V122.022L331.021 121.447L330.486 117.418C333.099 117.243 335.162 115.067 335.162 112.41C335.162 110.719 334.326 109.217 333.045 108.309C333.656 108.997 334.038 109.905 334.038 110.903C334.038 113.061 332.294 114.806 330.136 114.806L330.131 114.77L330.127 114.806C327.973 114.806 326.224 113.061 326.224 110.903C326.224 109.905 326.606 108.997 327.222 108.309C325.941 109.217 325.104 110.719 325.104 112.41C325.104 115.067 327.168 117.243 329.78 117.418L329.241 121.447L329.785 122.022V122.76L329.241 123.34L329.785 124.797V125.431C327.429 126.667 313.455 134.472 313.455 146.158H309.817L311.449 148.456V156.023H307.057C304.818 150.555 298.757 146.877 296.828 145.821C297.156 145.614 297.385 145.268 297.385 144.85C297.385 144.396 297.125 144.009 296.751 143.816L297.107 143.128L296.216 138.811L295.326 143.128L295.681 143.816C295.308 144.009 295.047 144.396 295.047 144.85C295.047 145.268 295.277 145.614 295.605 145.821C293.226 147.129 284.544 152.417 284.544 160.132H283.177V161.737H280.489V138.312H280.956L282.256 135.345H279.418V111.119H280.106L281.28 108.152H278.344V82.6312H278.973L279.98 79.6637H277.035C276.631 77.3437 275.525 74.4841 272.652 74.1648V73.8996C273.043 73.7107 273.322 73.3106 273.322 72.8385C273.322 72.3709 273.047 71.9707 272.652 71.7774V70.9321C273.043 70.7432 273.317 70.3431 273.317 69.8755C273.317 69.4079 273.043 69.0077 272.652 68.8144V62.2454C272.652 61.9577 272.422 61.7284 272.13 61.7284C271.847 61.7284 271.613 61.9577 271.613 62.2454V68.8144C271.222 69.0077 270.952 69.4034 270.952 69.8755C270.952 70.3431 271.222 70.7432 271.613 70.9321V71.7774C271.222 71.9707 270.952 72.3709 270.952 72.8385C270.952 73.3016 271.222 73.7062 271.613 73.8951V74.1604C268.744 74.4841 267.634 77.3347 267.234 79.6592H264.289L265.296 82.6267H265.925V108.147H262.989L264.163 111.115H264.851V135.34H262.014L263.313 138.308H263.776V192.694H416.759V170.267C416.759 163.891 421.93 158.725 428.306 158.725C434.677 158.725 439.843 163.891 439.843 170.267V192.694H465.121V170.267C465.121 163.891 470.291 158.725 476.662 158.725C483.038 158.725 488.204 163.891 488.204 170.267V192.694H513.486V170.267C513.486 163.891 518.657 158.725 525.028 158.725C531.404 158.725 536.57 163.891 536.57 170.267V192.694H689.549V138.317H690.016L691.32 135.349H688.483ZM274.823 154.184H269.446V148.964C269.446 147.475 270.651 146.275 272.135 146.275C273.618 146.275 274.823 147.475 274.823 148.964V154.184ZM274.729 126.087V131.136H269.54V126.087C269.54 126.087 268.146 124.621 272.135 122.539C276.123 124.621 274.729 126.087 274.729 126.087ZM274.729 98.4443V103.494H269.54V98.4443C269.54 98.4443 268.146 96.9786 272.135 94.8968C276.123 96.9741 274.729 98.4443 274.729 98.4443ZM299.777 177.204H292.66V170.289C292.66 168.324 294.26 166.733 296.221 166.733C298.19 166.733 299.782 168.324 299.782 170.289V177.204H299.777ZM316.175 154.301H313.644V150.191H316.179V154.301H316.175ZM319.983 154.301H317.447V150.191H319.983V154.301ZM323.787 154.301H321.251V150.191H323.787V154.301ZM327.595 154.301H325.059V150.191H327.595V154.301ZM331.404 154.301H328.868V150.191H331.404V154.301ZM335.207 154.301H332.671V150.191H335.207V154.301ZM339.011 154.301H336.475V150.191H339.011V154.301ZM342.815 154.301H340.279V150.191H342.815V154.301ZM346.628 154.301H344.087V150.191H346.628V154.301ZM366.55 80.9811H361.537V76.1072C361.537 74.7224 362.661 73.6028 364.046 73.6028C365.431 73.6028 366.55 74.7269 366.55 76.1072V80.9811ZM366.55 55.1864H361.537V50.3125C361.537 48.9277 362.661 47.8081 364.046 47.8081C365.431 47.8081 366.55 48.9322 366.55 50.3125V55.1864ZM384.095 161.351H382.593V159.669C382.593 159.255 382.93 158.918 383.344 158.918C383.757 158.918 384.095 159.255 384.095 159.669V161.351ZM386.352 161.351H384.85V159.669C384.85 159.255 385.183 158.918 385.601 158.918C386.014 158.918 386.356 159.255 386.356 159.669V161.351H386.352ZM388.609 161.351H387.103V159.669C387.103 159.255 387.44 158.918 387.858 158.918C388.272 158.918 388.609 159.255 388.609 159.669V161.351ZM390.313 94.1235C390.313 92.9904 391.23 92.0687 392.368 92.0687C393.505 92.0687 394.422 92.9904 394.422 94.1235V98.1206H390.313V94.1235ZM390.313 115.269C390.313 114.132 391.23 113.214 392.368 113.214C393.505 113.214 394.422 114.136 394.422 115.269V119.266H390.313V115.269ZM390.313 134.787C390.313 133.65 391.23 132.732 392.368 132.732C393.505 132.732 394.422 133.65 394.422 134.787V138.78H390.313V134.787ZM390.861 161.351H389.36V159.669C389.36 159.255 389.697 158.918 390.11 158.918C390.529 158.918 390.866 159.255 390.866 159.669V161.351H390.861ZM393.118 161.351H391.617V159.669C391.617 159.255 391.954 158.918 392.368 158.918C392.781 158.918 393.118 159.255 393.118 159.669V161.351ZM395.376 161.351H393.874V159.669C393.874 159.255 394.211 158.918 394.625 158.918C395.043 158.918 395.38 159.255 395.38 159.669V161.351H395.376ZM397.633 161.351H396.126V159.669C396.126 159.255 396.464 158.918 396.882 158.918C397.295 158.918 397.633 159.255 397.633 159.669V161.351ZM399.885 161.351H398.383V159.669C398.383 159.255 398.721 158.918 399.134 158.918C399.552 158.918 399.89 159.255 399.89 159.669V161.351H399.885ZM402.142 161.351H400.641V159.669C400.641 159.255 400.978 158.918 401.391 158.918C401.805 158.918 402.142 159.255 402.142 159.669V161.351ZM445.032 150.178H411.58V147.341H445.032V150.178ZM486.72 121.038C486.72 120.579 486.9 120.143 487.206 119.819L488.6 118.228C488.6 118.228 488.95 118.623 489.297 119.023C489.647 119.424 489.994 119.819 489.994 119.819C490.304 120.143 490.479 120.579 490.479 121.038V124.639H486.716V121.038H486.72ZM480.754 121.038C480.754 120.579 480.929 120.143 481.235 119.819L482.633 118.228C482.633 118.228 482.98 118.623 483.335 119.023C483.681 119.424 484.027 119.819 484.027 119.819C484.333 120.143 484.508 120.579 484.508 121.038V124.639H480.749V121.038H480.754ZM474.783 121.038C474.783 120.579 474.963 120.143 475.269 119.819L476.667 118.228C476.671 118.228 477.018 118.623 477.364 119.023C477.71 119.424 478.056 119.819 478.056 119.819C478.371 120.143 478.546 120.579 478.546 121.038V124.639H474.783V121.038ZM468.821 121.038C468.821 120.579 468.992 120.143 469.307 119.819L470.696 118.228C470.7 118.228 471.047 118.623 471.397 119.023C471.743 119.424 472.094 119.819 472.094 119.819C472.4 120.143 472.58 120.579 472.58 121.038V124.639H468.816V121.038H468.821ZM462.855 121.038C462.855 120.579 463.03 120.143 463.336 119.819L464.734 118.228C464.734 118.228 465.08 118.623 465.435 119.023C465.782 119.424 466.128 119.819 466.128 119.819C466.433 120.143 466.609 120.579 466.609 121.038V124.639H462.85V121.038H462.855ZM454.685 124.639H450.922V121.038C450.922 120.579 451.092 120.143 451.403 119.819L452.797 118.228C452.801 118.228 453.147 118.623 453.498 119.023C453.844 119.424 454.195 119.819 454.195 119.819C454.501 120.143 454.68 120.579 454.68 121.038V124.639H454.685ZM456.884 121.038C456.884 120.579 457.063 120.143 457.369 119.819L458.767 118.228C458.772 118.228 459.118 118.623 459.464 119.023C459.811 119.424 460.157 119.819 460.157 119.819C460.472 120.143 460.647 120.579 460.647 121.038V124.639H456.879V121.038H456.884ZM493.393 150.178H459.941V147.341H493.397V150.178H493.393ZM496.446 124.639H492.687V121.038C492.687 120.579 492.862 120.143 493.168 119.819L494.562 118.228C494.571 118.228 494.912 118.623 495.263 119.023C495.609 119.424 495.96 119.819 495.96 119.819C496.266 120.143 496.441 120.579 496.441 121.038V124.639H496.446ZM502.412 124.639H498.649V121.038C498.649 120.579 498.824 120.143 499.139 119.819L500.528 118.228C500.528 118.228 500.879 118.623 501.23 119.023C501.58 119.424 501.927 119.819 501.927 119.819C502.232 120.143 502.412 120.579 502.412 121.038V124.639ZM541.763 150.178H508.307V147.341H541.763V150.178ZM552.693 161.351H551.191V159.669C551.191 159.255 551.529 158.918 551.947 158.918C552.36 158.918 552.698 159.255 552.698 159.669V161.351H552.693ZM554.95 161.351H553.448V159.669C553.448 159.255 553.781 158.918 554.199 158.918C554.613 158.918 554.95 159.255 554.95 159.669V161.351ZM557.207 161.351H555.701V159.669C555.701 159.255 556.043 158.918 556.456 158.918C556.87 158.918 557.207 159.255 557.207 159.669V161.351ZM558.911 94.1235C558.911 92.9904 559.833 92.0687 560.966 92.0687C562.104 92.0687 563.021 92.9904 563.021 94.1235V98.1206H558.911V94.1235ZM558.911 115.269C558.911 114.132 559.833 113.214 560.966 113.214C562.104 113.214 563.021 114.136 563.021 115.269V119.266H558.911V115.269ZM558.911 134.787C558.911 133.65 559.833 132.732 560.966 132.732C562.104 132.732 563.021 133.65 563.021 134.787V138.78H558.911V134.787ZM559.464 161.351H557.963V159.669C557.963 159.255 558.3 158.918 558.714 158.918C559.127 158.918 559.464 159.255 559.464 159.669V161.351ZM561.717 161.351H560.215V159.669C560.215 159.255 560.552 158.918 560.971 158.918C561.389 158.918 561.721 159.255 561.721 159.669V161.351H561.717ZM563.974 161.351H562.472V159.669C562.472 159.255 562.81 158.918 563.223 158.918C563.641 158.918 563.979 159.255 563.979 159.669V161.351H563.974ZM566.231 161.351H564.725V159.669C564.725 159.255 565.067 158.918 565.48 158.918C565.894 158.918 566.231 159.255 566.231 159.669V161.351ZM568.484 161.351H566.982V159.669C566.982 159.255 567.319 158.918 567.733 158.918C568.151 158.918 568.488 159.255 568.488 159.669V161.351H568.484ZM570.741 161.351H569.239V159.669C569.239 159.255 569.576 158.918 569.995 158.918C570.408 158.918 570.745 159.255 570.745 159.669V161.351H570.741ZM591.801 80.9811H586.788V76.1072C586.788 74.7224 587.912 73.6028 589.297 73.6028C590.682 73.6028 591.801 74.7269 591.801 76.1072V80.9811ZM591.801 55.1864H586.788V50.3125C586.788 48.9277 587.912 47.8081 589.297 47.8081C590.682 47.8081 591.801 48.9322 591.801 50.3125V55.1864ZM609.251 154.301H606.71V150.191H609.251V154.301ZM613.055 154.301H610.519V150.191H613.055V154.301ZM616.858 154.301H614.323V150.191H616.858V154.301ZM620.662 154.301H618.126V150.191H620.662V154.301ZM624.466 154.301H621.93V150.191H624.466V154.301ZM628.274 154.301H625.738V150.191H628.274V154.301ZM632.083 154.301H629.547V150.191H632.083V154.301ZM635.886 154.301H633.35V150.191H635.886V154.301ZM639.69 154.301H637.154V150.191H639.69V154.301ZM660.674 177.204H653.552V170.289C653.552 168.324 655.144 166.733 657.113 166.733C659.078 166.733 660.674 168.324 660.674 170.289V177.204ZM683.888 154.184H678.51V148.964C678.51 147.475 679.715 146.275 681.199 146.275C682.683 146.275 683.888 147.475 683.888 148.964V154.184ZM683.793 126.087V131.136H678.605V126.087C678.605 126.087 677.206 124.621 681.199 122.539C685.192 124.621 683.793 126.087 683.793 126.087ZM683.793 98.4443V103.494H678.605V98.4443C678.605 98.4443 677.206 96.9786 681.199 94.8968C685.192 96.9741 683.793 98.4443 683.793 98.4443Z" fill="#C7413E"/>
</g>
<defs>
<clipPath id="clip0_918_3885">
<rect width="206.957" height="206.957" fill="white" transform="matrix(-0.920841 -0.389939 -0.389939 0.920841 951.273 123.7)"/>
</clipPath>
<clipPath id="clip1_918_3885">
<rect width="206.957" height="206.957" fill="white" transform="translate(0 123.7) rotate(-22.9507)"/>
</clipPath>
</defs>
</svg>
