<svg width="541" height="308" viewBox="0 0 541 308" fill="none" xmlns="http://www.w3.org/2000/svg">
<g filter="url(#filter0_f_864_3885)">
<ellipse cx="266" cy="180.5" rx="163" ry="67.5" fill="#989898"/>
</g>
<path fill-rule="evenodd" clip-rule="evenodd" d="M336.482 19.9308C350.946 19.5168 361.756 23.5988 368.815 33.266C375.815 42.8517 378.674 52.7406 379.916 60.1744C381.556 70.021 382.413 70.0014 382.896 78.0384C383.501 88.1425 389.079 108.452 393.138 128.419C401.099 167.573 412.68 192.682 418.902 214.533C420.226 219.189 410.576 214.116 398.755 214.533C386.873 214.957 372.818 220.846 370.887 215.525C365.468 200.602 361.655 188.509 361.772 192.34C362.004 199.848 360.988 207.973 359.096 215.525C358.158 219.268 347.812 216.421 333.466 216.516C304.646 216.702 261.885 215.769 262.198 213.131C265.208 187.873 273.189 143.854 281.123 115.804C282.479 111.018 285.273 103.943 288.296 98.4748C290.845 93.8613 295.401 89.7336 294.224 87.748C291.822 83.6822 289.25 72.8249 289.25 67.6082C289.25 63.0632 290.509 53.5264 293.355 47.6054C299.208 35.4147 303.368 31.9945 309.659 27.6711C315.044 23.9673 326.214 20.221 336.482 19.9308Z" fill="#7B2C2C"/>
<path fill-rule="evenodd" clip-rule="evenodd" d="M433.027 214.534C433.027 213.239 432.51 211.994 431.592 211.078C430.67 210.162 429.425 209.646 428.125 209.646C400.119 209.646 261.542 209.646 261.542 209.646V219.425H428.125C429.425 219.425 430.67 218.909 431.592 217.993C432.51 217.077 433.027 215.832 433.027 214.534Z" fill="#191919"/>
<path fill-rule="evenodd" clip-rule="evenodd" d="M345.332 71.2539C341.705 61.8932 318.774 36.9639 311.515 36.9639C307.411 36.9639 296.473 50.9577 296.009 58.9979C295.424 69.1281 293.771 74.798 294.764 80.5918C295.329 83.8816 297.918 88.2766 299.679 90.96C301.878 94.3052 308.074 100.415 315.515 100.415C320.633 100.415 325.901 98.1721 330.587 95.9713C336.45 93.213 341.371 90.1025 343.574 86.7638C345.182 84.3283 345.607 82.1568 345.607 78.0063C345.607 75.3001 345.874 72.6591 345.332 71.2539Z" fill="#FBDECC"/>
<path fill-rule="evenodd" clip-rule="evenodd" d="M305.303 41.3981C307.721 38.7441 310.051 36.9639 311.515 36.9639C313.682 36.9639 317.244 39.1875 321.273 42.549C317.94 41.4894 313.273 40.4819 308.362 40.9449C307.286 41.0459 306.27 41.1992 305.303 41.3981Z" fill="#191919"/>
<path fill-rule="evenodd" clip-rule="evenodd" d="M328.325 194.227C326.737 198.828 331.06 217.699 334.09 221.439C336.88 224.878 344.537 217.086 346.501 216.649C347.7 216.378 351.691 220.444 359.4 220.816C361.517 220.917 371.053 219.825 372.788 219.707C377.36 219.398 383.148 219.199 386.131 218.938C390.896 218.524 397.827 215.655 404.399 209.642C405.285 208.831 409.755 209.349 410.471 208.364C412.549 205.505 410.935 200.647 409.683 196.93C407.955 191.801 408.288 186.888 405.049 185.029C402.844 183.761 399.389 182.147 394.589 181.736C390.108 181.352 385.144 180.973 380.471 181.244C373.86 181.632 368.034 183.957 366.952 184.129C361.423 185.01 357.642 185.049 354.602 186.457C350.325 188.443 347.56 190.924 343.616 193.833C342.684 194.517 329.91 189.623 328.325 194.227Z" fill="#412928"/>
<path fill-rule="evenodd" clip-rule="evenodd" d="M345.476 197.244C345.476 197.244 363.338 194.068 362.629 207.977C361.832 223.644 345.247 216.532 345.247 216.532L345.476 197.244Z" fill="#FBDECC"/>
<path fill-rule="evenodd" clip-rule="evenodd" d="M349.76 192.356C351.77 196.791 349.217 215.982 346.551 219.985C344.093 223.666 335.74 216.621 333.747 216.363C332.525 216.207 328.93 220.624 321.29 221.707C319.192 222.007 309.594 221.798 307.855 221.844C303.277 221.958 294.326 220.582 289.94 219.063C284.813 217.289 278.797 213.95 272.026 206.262C269.065 202.894 267.346 203.657 269.173 198.93C270.777 194.785 270.052 192.034 272.509 190.299C274.588 188.832 277.878 186.905 282.62 186.051C287.048 185.255 291.953 184.417 296.633 184.258C303.247 184.029 309.267 185.806 310.362 185.878C315.95 186.243 319.714 185.93 322.871 187.055C327.316 188.633 330.303 190.85 334.499 193.38C335.489 193.974 347.753 187.922 349.76 192.356Z" fill="#412928"/>
<path fill-rule="evenodd" clip-rule="evenodd" d="M264.421 209.646C266.329 199.386 269.708 182.676 271.48 182.715C280.728 182.904 301.528 183.38 296.404 183.748C288.094 184.348 283.829 185.454 281.512 189.308C278.698 193.986 282.875 197.335 276.411 207.99C276.058 208.573 275.734 209.124 275.44 209.646H264.421Z" fill="#7B2C2C"/>
<path fill-rule="evenodd" clip-rule="evenodd" d="M415.442 209.647L404.87 176.146C404.87 176.146 369.724 182.402 376.263 181.851C384.567 181.154 388.955 181.603 391.877 185.148C395.419 189.445 391.838 193.491 399.962 203.276C402.249 206.031 403.57 208.039 404.38 209.647H415.442Z" fill="#7B2C2C"/>
<path fill-rule="evenodd" clip-rule="evenodd" d="M198.425 91.8432C198.425 91.8432 171.99 93.4016 169.775 98.0119C162.579 112.974 157.301 135.621 153.141 173.159C151.804 185.219 150.817 199.301 150.056 213.627C149.782 218.759 179.954 214.155 210.356 214.534C240.548 214.912 270.966 220.308 271.63 213.627C274.728 182.363 277.394 149.096 277.237 124.281C277.126 106.271 269.917 95.8894 264.751 93.6299C258.823 91.0378 245.849 88.9381 229.617 90.4705C219.254 91.4454 198.425 91.8432 198.425 91.8432Z" fill="#424242"/>
<path fill-rule="evenodd" clip-rule="evenodd" d="M177.082 129.713C178.562 128.758 179.98 140.339 180.337 147.242C180.912 158.356 180.333 167.965 184.856 173.169C193.131 182.692 204.294 191.019 211.545 194.267C214.516 195.597 208.676 190.208 215.147 186.204C226.862 178.953 234.14 172.295 238.989 162.787C243.231 154.473 244.881 144.966 244.908 137.089C244.931 129.475 246.555 122.498 246.787 122.99C247.741 125.005 263.979 161.02 256.623 179.481C247.695 201.88 215.496 211.224 213.65 211.097C205.732 210.543 172.196 196.96 162.899 193.093C160.667 192.167 157.327 190.25 157.853 187.896C160.219 177.335 172.85 132.455 177.082 129.713Z" fill="#191919" fill-opacity="0.2"/>
<path fill-rule="evenodd" clip-rule="evenodd" d="M272.026 209.646H123.998C122.779 209.646 121.613 210.162 120.753 211.078C119.89 211.994 119.407 213.239 119.407 214.534C119.407 215.832 119.89 217.077 120.753 217.993C121.613 218.909 122.779 219.425 123.998 219.425H272.026V209.646Z" fill="#191919"/>
<path fill-rule="evenodd" clip-rule="evenodd" d="M214.026 191.394C209.683 190.797 192.88 197.921 195.781 210.803C199.102 225.544 218.811 217.611 221.85 214.377C224.892 211.139 218.373 191.987 214.026 191.394Z" fill="#FBDECC"/>
<path fill-rule="evenodd" clip-rule="evenodd" d="M261.166 92.5439C266.921 92.5439 274.725 100.669 276.182 111.246C279.99 138.947 279.441 179.308 274.225 198.71C271.954 207.168 244.817 213.51 223.327 217.073C218.108 217.94 212.464 208.247 210.539 204.263C207.856 198.71 204.68 192.043 207.474 189.839C214.35 184.407 246.14 173.69 246.14 171.929C246.14 160.73 246.14 150.899 246.14 140.019C246.14 124.382 247.274 111.614 249.781 103.701C251.398 98.5888 256.8 92.5439 261.166 92.5439Z" fill="#424242"/>
<path fill-rule="evenodd" clip-rule="evenodd" d="M195.994 192.486C200.298 191.648 217.477 197.811 215.311 210.839C212.833 225.74 192.706 218.935 189.484 215.877C186.265 212.818 191.69 193.328 195.994 192.486Z" fill="#FBDECC"/>
<path fill-rule="evenodd" clip-rule="evenodd" d="M172.602 95.8015C168.177 96.8351 154.631 103.47 150.086 113.134C138.174 138.442 129.988 172.513 127.23 192.412C124.56 211.707 152.909 212.379 186.422 218.837C195.814 220.65 199.196 211.052 201.238 207.478C205.16 200.605 206.284 193.742 203.359 191.714C184.673 178.757 172.886 179.187 173.36 177.492C175.226 170.801 175.997 161.649 177.781 150.916C179.615 139.909 178.075 119.828 177.213 110.643C176.726 105.469 176.853 94.8136 172.602 95.8015Z" fill="#424242"/>
<path fill-rule="evenodd" clip-rule="evenodd" d="M219.385 95.8341C206.905 95.7525 196.752 98.1392 196.726 101.162C196.703 104.181 206.817 106.701 219.297 106.783C231.777 106.864 241.931 104.477 241.957 101.455C241.98 98.4359 231.869 95.9156 219.385 95.8341Z" fill="#191919" fill-opacity="0.3"/>
<path fill-rule="evenodd" clip-rule="evenodd" d="M235.696 94.8232C235.51 94.8395 235.85 95.296 235.866 95.5079C235.935 96.2937 235.912 96.8578 235.964 97.9141C235.977 98.1554 236.072 98.8792 235.967 99.1075C235.915 99.2183 235.376 98.7129 235.206 98.8401C234.912 99.0553 235.225 99.8802 235.065 100.229C234.905 100.575 234.467 100.024 234.274 100.255C234.052 100.529 234.506 101.285 234.206 101.592C234.072 101.732 233.291 101.53 233.291 101.592C233.294 101.781 233.359 101.97 233.395 102.159C233.569 103.072 233.029 102.56 232.454 102.938C232.173 103.124 232.497 103.851 232.15 104.06C231.872 104.23 231.402 103.754 231.18 103.985C230.912 104.259 231.127 104.781 230.706 104.885C230.474 104.944 230.144 104.461 229.886 104.67C229.454 105.019 229.68 105.557 229.033 105.635C228.706 105.677 228.042 105.068 227.814 105.185C227.363 105.426 227.219 106.052 226.549 105.547C226.31 105.368 226.101 104.852 225.843 104.768C225.565 104.68 225.327 105.39 224.899 105.094C224.484 104.803 224.386 104.115 223.994 103.819C223.902 103.747 223.513 103.979 223.304 103.851C223.023 103.685 222.873 103.353 222.618 103.157C222.49 103.062 222.265 103.248 222.059 103.118C221.471 102.736 220.804 101.876 220.386 101.259C219.928 100.588 218.977 100.614 218.579 99.8117C218.497 99.6487 218.366 98.6282 218.464 98.4162C218.624 98.0706 219.15 97.875 219.425 97.7218C220.441 97.1479 221.644 97.1936 222.758 96.9817C225.052 96.5448 227.32 95.7525 229.621 95.4101C231.323 95.1525 233.111 95.4492 234.765 95.0384L235.696 94.8232Z" fill="#191919"/>
<mask id="mask0_864_3885" style="mask-type:luminance" maskUnits="userSpaceOnUse" x="160" y="0" width="96" height="89">
<path d="M160.337 0H255.708V88.2536H160.337V0Z" fill="white"/>
</mask>
<g mask="url(#mask0_864_3885)">
<path fill-rule="evenodd" clip-rule="evenodd" d="M204.426 71.2179C205.301 75.1566 194.779 86.1116 194.328 87.7484C193.609 87.0278 188.204 86.2942 183.374 84.0673C178.181 81.6742 174.504 79.0463 171.472 76.4672C168.276 73.748 162.367 65.5643 160.943 60.553C159.58 55.7635 161.459 53.4746 160.943 50.3837C159.273 40.3612 161.622 31.734 169.851 25.5979C171.619 24.2807 173.929 12.8593 182.109 8.09585C184.808 6.52105 190.115 4.28439 193.445 3.57362C197.847 2.63787 202.007 0.574013 206.373 0.264271C210.203 -0.00960585 214.053 1.5554 217.932 2.18141C223.762 3.12368 230.824 5.92113 234.902 9.52392C241.497 15.3471 242.824 16.5795 245.696 21.4702C248.651 26.5075 253.765 28.3497 254.941 30.7559C256.101 33.1197 250.19 39.7971 246.827 41.4371C243.974 42.826 203.788 68.352 204.426 71.2179Z" fill="#191919"/>
</g>
<path fill-rule="evenodd" clip-rule="evenodd" d="M246.827 35.7503C246.827 35.7503 249.049 58.1789 247.702 71.2696C247.023 77.8491 246.421 83.2582 242.323 89.1107C238.624 94.3991 232.016 98.3801 222.18 99.3941C215.536 100.079 205.072 95.6935 199.239 92.4298C194.161 89.5867 190.628 88.7683 187.187 79.8087C184.919 81.077 181.903 79.525 179.612 77.1938C175.145 72.6455 175.756 67.4907 176.841 64.9052C179.612 58.3093 186.808 65.5801 190.066 68.1885C191.422 64.6215 190.618 61.5143 191.788 58.4234C193.318 54.3838 198.138 54.162 199.239 43.9438C199.429 42.1962 204.474 43.3504 207.765 42.9755C217.082 41.9158 218.412 37.3643 224.892 36.6274C228.699 36.1938 236.588 37.5534 238.944 36.6274C241.402 35.6591 246.827 35.7503 246.827 35.7503Z" fill="#FBDECC"/>
<mask id="mask1_864_3885" style="mask-type:luminance" maskUnits="userSpaceOnUse" x="470" y="149" width="67" height="62">
<path d="M476.002 154.971C468.415 162.182 469.825 171.591 473.253 177.312L493.315 210.715L526.922 191.99C532.541 188.363 535.579 183.723 536.199 177.805C537.061 169.62 532.252 161.781 524.506 158.744C519.754 156.888 514.648 156.989 510.125 159.053C508.907 159.608 507.768 160.29 506.723 161.083C506.114 159.691 505.322 158.354 504.354 157.099C500.988 152.72 495.932 149.972 490.473 149.558C485.299 149.172 480.026 151.144 476.002 154.971Z" fill="white"/>
</mask>
<g mask="url(#mask1_864_3885)">
<path d="M475.892 145.244L540.633 162.83L525.268 219.395L460.527 201.809L475.892 145.244Z" fill="#C89898"/>
</g>
<mask id="mask2_864_3885" style="mask-type:luminance" maskUnits="userSpaceOnUse" x="7" y="152" width="63" height="61">
<path d="M7.2896 187.866C7.55177 198.33 15.4762 203.594 22.0193 204.887L60.252 212.404L68.8978 174.917C69.976 168.316 68.5705 162.951 64.5961 158.522C59.1025 152.395 50.0624 150.705 42.6152 154.415C38.0516 156.695 34.7022 160.551 33.2003 165.29C32.7954 166.566 32.5376 167.868 32.4245 169.175C30.9843 168.693 29.461 168.385 27.881 168.26C22.3747 167.821 16.9459 169.729 12.9785 173.502C9.22276 177.08 7.14962 182.315 7.2896 187.866Z" fill="white"/>
</mask>
<g mask="url(#mask2_864_3885)">
<path d="M0 181.424L56.4603 145.19L88.1181 194.52L31.6579 230.754L0 181.424Z" fill="#F7CAC9"/>
</g>
<defs>
<filter id="filter0_f_864_3885" x="43.705" y="53.705" width="444.59" height="253.59" filterUnits="userSpaceOnUse" color-interpolation-filters="sRGB">
<feFlood flood-opacity="0" result="BackgroundImageFix"/>
<feBlend mode="normal" in="SourceGraphic" in2="BackgroundImageFix" result="shape"/>
<feGaussianBlur stdDeviation="29.6475" result="effect1_foregroundBlur_864_3885"/>
</filter>
</defs>
</svg>
