<svg width="351" height="392" viewBox="0 0 351 392" fill="none" xmlns="http://www.w3.org/2000/svg">
<mask id="mask0_510_6735" style="mask-type:luminance" maskUnits="userSpaceOnUse" x="0" y="220" width="124" height="171">
<path d="M0 220.127H123.853V390.814H0V220.127Z" fill="white"/>
</mask>
<g mask="url(#mask0_510_6735)">
<path fill-rule="evenodd" clip-rule="evenodd" d="M46.8667 268.907C46.6946 275.467 46.5655 281.952 46.501 288.071C46.4042 296.846 46.0924 351.691 46.6838 371.833C46.7591 374.576 24.0682 373.533 24.7457 382.641C25.0468 386.62 40.9412 389.502 51.7167 389.416C65.2452 389.309 80.7309 387.233 80.3653 383.093C79.5372 373.855 56.2441 374.457 56.2979 371.253C56.6743 350.25 56.9969 300.126 57.2442 268.961C69.6973 268.864 83.0968 268.273 91.6032 267.585C100.905 266.821 115.391 267.961 119.359 261.681C123.338 255.4 120.263 235.591 115.445 229.913C109.788 223.235 95.5176 222.676 85.4196 221.654C71.7836 220.278 47.028 219.471 33.5855 221.654C23.7671 223.257 9.95902 228.935 4.80787 234.785C0.108387 240.108 0.194418 256.658 4.14113 260.863C9.41057 266.477 25.5845 267.617 36.403 268.445C39.4464 268.681 43.006 268.832 46.8667 268.907Z" fill="black"/>
</g>
<mask id="mask1_510_6735" style="mask-type:luminance" maskUnits="userSpaceOnUse" x="217" y="220" width="122" height="172">
<path d="M217.456 220.127H338.589V391.535H217.456V220.127Z" fill="white"/>
</mask>
<g mask="url(#mask1_510_6735)">
<path fill-rule="evenodd" clip-rule="evenodd" d="M292.357 270.392C292.53 276.952 292.659 283.436 292.723 289.555C292.82 298.33 293.132 353.176 292.54 373.318C292.465 376.06 315.167 375.017 314.478 384.126C314.177 388.105 298.283 390.987 287.518 390.901C273.979 390.793 258.493 388.718 258.859 384.577C259.687 375.34 282.98 375.942 282.926 372.737C282.55 351.735 282.227 301.61 281.98 270.445C269.527 270.349 256.127 269.757 247.621 269.069C238.329 268.305 223.844 269.445 219.865 263.165C215.897 256.885 218.962 237.076 223.779 231.398C229.436 224.719 243.706 224.16 253.804 223.139C267.44 221.762 292.196 220.956 305.639 223.139C315.457 224.741 329.265 230.419 334.427 236.269C339.126 241.592 339.03 258.143 335.083 262.348C329.814 267.961 313.64 269.101 302.821 269.929C299.788 270.166 296.218 270.316 292.357 270.392Z" fill="black"/>
</g>
<path fill-rule="evenodd" clip-rule="evenodd" d="M187.173 344.304C187.173 344.304 184.775 349.444 182.409 350.573C177.559 352.896 163.902 344.594 158.116 358.209C156.998 360.833 167.397 364.726 178.022 368.726C187.829 372.415 196.809 374.77 199.39 373.673C205.337 371.135 205.96 365.736 206.219 363.586C206.434 361.822 205.853 359.241 206.219 357.8C206.939 355.004 208.724 353.929 208.961 353.369C209.574 351.918 187.173 344.304 187.173 344.304Z" fill="#333333"/>
<path fill-rule="evenodd" clip-rule="evenodd" d="M239.286 361.348C239.286 361.348 239.393 367.005 237.759 369.07C234.425 373.274 218.509 371.823 219.283 386.599C219.434 389.438 230.489 388.373 241.791 387.298C252.223 386.308 261.32 384.491 263.159 382.362C267.386 377.469 265.579 372.35 264.869 370.296C264.289 368.629 262.632 366.564 262.331 365.112C261.751 362.273 262.88 360.52 262.848 359.929C262.761 358.348 239.286 361.348 239.286 361.348Z" fill="#333333"/>
<path fill-rule="evenodd" clip-rule="evenodd" d="M204.39 125.621C199.647 127.073 192.442 141.473 193.388 145.979C194.141 149.581 202.336 148.828 203.82 149.603C204.723 150.076 205.056 154.797 209.734 159.174C210.089 159.518 226.93 170.67 238.663 178.972C233.899 171.745 239.684 144.731 231.812 139.591C223.618 134.246 226.564 135.192 225.199 134.816C221.424 133.773 218.338 133.859 214.273 133.59C213.315 133.526 207.863 123.557 204.39 125.621Z" fill="#412928"/>
<path fill-rule="evenodd" clip-rule="evenodd" d="M203.315 127.536C202.863 126.772 201.637 124.933 200.584 123.858C199.659 122.912 198.562 121.675 197.185 120.449C196.271 119.632 196.454 118.083 195.282 117.341C194.647 116.954 193.153 117.922 192.669 119.492C192.346 120.546 192.679 121.998 193.239 122.933C193.905 124.052 194.518 125.321 195.099 126.504C195.594 127.536 194.97 127.471 192.163 125.514C190.969 124.686 189.528 123.256 188.722 122.309C188.647 122.331 188.582 122.374 188.528 122.406C187.41 123.105 186.421 124.858 187.087 126.342C187.292 126.805 187.001 126.278 186.453 125.934C185.281 125.213 182.366 128.644 183.829 129.805C184.41 130.267 183.603 129.794 183.141 129.783C181.947 129.751 181.958 132.203 182.033 133.074C182.108 133.902 185.152 135.73 183.614 134.999C182.237 134.343 181.99 134.558 181.71 136.214C181.614 136.784 182.054 137.881 183.065 138.43C184.334 139.107 185.754 139.828 186.991 140.322C189.593 141.355 194.991 142.011 195.895 142.473C198.314 143.699 204.692 132.16 203.939 130.289C203.541 129.31 204.1 128.891 203.315 127.536Z" fill="#FFD6BC"/>
<path fill-rule="evenodd" clip-rule="evenodd" d="M204.959 149.313C205.152 148.764 205.647 148.399 206.11 148.022C206.701 147.538 207.26 147.044 207.443 146.345C207.776 145 207.529 144.065 208.239 142.613C208.551 141.978 208.981 141.677 209.433 141.376C209.981 141.011 210.562 140.645 211.11 139.881C212.046 138.569 212.046 137.784 212.196 136.354C212.207 136.193 212.304 136.075 212.422 135.956C212.594 135.795 212.831 135.655 213.067 135.526C213.67 135.182 214.336 134.87 214.659 134.461C214.82 134.268 214.756 133.988 214.519 133.827C214.293 133.676 213.971 133.709 213.82 133.902C213.67 134.085 213.422 134.246 213.153 134.397C212.82 134.58 212.454 134.752 212.143 134.956C211.616 135.29 211.239 135.687 211.185 136.204C211.056 137.473 211.078 138.182 210.239 139.355C209.766 140.021 209.25 140.333 208.777 140.645C208.217 141.021 207.701 141.409 207.314 142.204C206.572 143.71 206.809 144.678 206.454 146.076C206.325 146.613 205.851 146.968 205.4 147.345C204.808 147.818 204.228 148.302 203.991 148.99C203.916 149.216 204.066 149.474 204.335 149.571C204.604 149.657 204.884 149.549 204.959 149.313Z" fill="#333333" fill-opacity="0.42"/>
<path fill-rule="evenodd" clip-rule="evenodd" d="M254.482 225.838C266.064 221.977 281.162 212.697 294.884 205.986C306.649 200.244 323.156 274.08 306.95 277.489C293.734 280.264 280.926 283.662 277.56 289.631C264.418 312.934 284.679 360.048 287.335 365.704C290.486 372.436 282.958 374.899 268.677 376.985C258.643 378.448 246.147 371.081 243.168 376.49C240.147 381.986 217.348 384.266 210.476 374.555C208.852 368.64 209.379 375.598 194.571 378.136C184.979 379.781 166.546 373.512 167.944 366.823C169.418 359.768 180.258 266.337 194.872 242.485C203.562 228.301 234.888 232.355 254.482 225.838Z" fill="#412928"/>
<path fill-rule="evenodd" clip-rule="evenodd" d="M204.26 231.161L224.854 219.052L221.273 186.897C228.22 161.314 229.585 76.6475 229.499 75.357C228.983 67.8722 228.585 58.1614 230.22 51.6875C232.317 43.3855 237.199 38.5677 241.684 37.6428C249.943 35.9545 255.341 35.0189 262.062 35.0081C269.149 34.9974 281.893 34.051 289.399 40.3098C296.066 45.8804 299.647 53.2361 301.121 66.5495C302.336 77.5293 309.745 109.49 312.638 124.341C314.262 132.676 322.102 172.992 326.296 193.747C330.027 212.148 334.243 230.451 337.846 248.883C341.577 267.939 354.417 299.158 348.686 308.073C342.954 316.988 318.069 300.276 303.454 302.373C285.205 304.987 276.763 298.706 268.665 295.373C262.815 292.953 263.374 282.78 254.879 282.328C231.112 281.059 206.195 264.681 204.26 231.161Z" fill="#7B2C2C"/>
<path fill-rule="evenodd" clip-rule="evenodd" d="M304.875 273.381C305.069 274.93 305.273 276.478 305.542 278.027C305.725 279.059 305.918 280.081 306.144 281.113C306.241 281.511 306.338 281.92 306.445 282.329C306.596 282.942 306.757 283.544 306.94 284.146C307.37 285.641 307.876 287.125 308.403 288.62C308.446 288.77 308.607 288.856 308.757 288.802C308.908 288.759 308.994 288.598 308.94 288.448C308.521 286.931 308.166 285.426 307.811 283.92C307.65 283.21 307.499 282.501 307.338 281.791C307.177 281.081 307.005 280.382 306.843 279.672C306.65 278.823 306.456 277.973 306.263 277.124C305.983 275.844 305.703 274.564 305.445 273.284C305.424 273.123 305.273 273.016 305.112 273.037C304.951 273.069 304.843 273.22 304.875 273.381ZM264.935 239.506C264.634 241.431 264.344 243.12 264.064 244.679C263.537 247.518 263.042 249.905 262.569 252.4C262.3 253.917 261.999 255.411 261.72 256.917C261.289 259.175 260.859 261.434 260.397 263.681C259.881 266.187 259.343 268.682 258.741 271.166C258.698 271.316 258.795 271.467 258.945 271.51C259.096 271.542 259.246 271.456 259.289 271.306C260.15 268.219 260.945 265.122 261.655 261.993C262.021 260.433 262.354 258.874 262.666 257.304C262.978 255.723 263.247 254.153 263.526 252.572C263.935 250.056 264.387 247.658 264.817 244.808C265.053 243.238 265.279 241.528 265.516 239.592C265.537 239.431 265.419 239.28 265.258 239.259C265.096 239.237 264.957 239.345 264.935 239.506ZM302.025 243.034L302.036 243.012C302.047 243.001 302.09 242.958 302.058 242.958C302.079 242.894 302.079 242.818 302.047 242.754C301.982 242.603 301.81 242.539 301.66 242.603C301.617 242.625 301.488 242.7 301.477 242.904C301.466 243.012 301.466 243.216 301.477 243.496C301.531 245.001 301.832 248.787 301.853 249.013C302.058 251.013 302.23 252.992 302.423 254.96C302.563 256.293 302.703 257.616 302.854 258.928C303.047 260.595 303.262 262.24 303.488 263.885C303.703 265.542 303.95 267.187 304.209 268.832C304.23 268.983 304.37 269.09 304.531 269.069C304.682 269.047 304.789 268.908 304.768 268.757C304.51 266.38 304.295 264.004 304.079 261.606C303.929 260.025 303.789 258.444 303.628 256.842C303.499 255.53 303.348 254.207 303.187 252.873C303.036 251.561 302.864 250.239 302.681 248.916C302.649 248.69 302.198 244.958 302.09 243.464C302.068 243.302 302.025 243.13 302.025 243.034ZM302.015 243.055C302.004 243.066 301.993 243.077 301.972 243.087C301.961 243.109 301.95 243.12 301.929 243.12C301.961 243.109 301.982 243.087 302.015 243.055ZM302.058 242.958C302.025 242.947 302.025 242.98 302.025 243.034C302.025 243.034 302.025 243.023 302.036 243.023V243.012L302.047 243.001C302.047 242.991 302.047 242.991 302.058 242.98V242.958ZM299.918 198.953C300.283 200.652 300.649 202.351 301.079 204.05C301.359 205.169 301.66 206.298 301.982 207.406C302.111 207.857 302.251 208.298 302.391 208.739C302.606 209.406 302.832 210.062 303.069 210.729C303.649 212.363 304.273 213.987 304.929 215.611C304.983 215.751 305.144 215.826 305.295 215.772C305.434 215.718 305.51 215.557 305.456 215.417C305.004 214.03 304.585 212.632 304.166 211.245C303.886 210.309 303.617 209.384 303.337 208.449C303.155 207.836 302.972 207.212 302.789 206.588C302.499 205.663 302.219 204.739 301.939 203.814C301.445 202.147 300.95 200.48 300.488 198.813C300.455 198.652 300.294 198.555 300.144 198.598C299.982 198.63 299.885 198.792 299.918 198.953ZM293.336 157.937C293.347 158.034 293.358 158.163 293.369 158.314C293.465 159.54 293.659 162.465 293.874 164.433C294.068 166.229 294.293 168.014 294.53 169.81C294.906 172.477 295.326 175.144 295.702 177.811C296.165 180.757 296.659 183.693 297.208 186.597C297.778 189.522 298.401 192.415 299.09 195.307C299.122 195.458 299.272 195.555 299.423 195.522C299.584 195.49 299.67 195.329 299.638 195.178C299.047 192.286 298.53 189.371 298.047 186.446C297.563 183.532 297.111 180.617 296.692 177.671C296.455 176.112 296.218 174.552 295.971 173.004C295.724 171.444 295.476 169.896 295.229 168.336C295.025 167.014 294.831 165.68 294.648 164.347C294.379 162.389 294.1 159.475 293.971 158.26C293.938 157.97 293.917 157.776 293.906 157.701C293.906 157.669 293.895 157.636 293.874 157.604C293.842 157.464 293.766 157.4 293.691 157.389C293.508 157.292 293.293 157.357 293.315 157.841C293.315 157.873 293.326 157.905 293.336 157.937Z" fill="black"/>
<path fill-rule="evenodd" clip-rule="evenodd" d="M241.943 45.2026C245.04 45.622 249.933 52.4078 254.847 61.3658C259.633 70.0873 260.741 78.0775 260.482 79.9379C259.246 89.1863 256.525 95.0688 253.256 95.8861C250.008 96.7034 244.975 96.7571 239.921 96.3055C234.727 95.8323 231.931 96.1227 230.425 89.3261C229.629 85.7451 229.371 82.3576 229.726 79.0346C229.78 78.5937 229.285 76.4751 229.597 75.2707C229.823 74.3996 229.941 73.8942 230.146 73.0769C230.382 72.1198 230.737 69.5603 230.769 69.0549C230.812 68.4097 230.866 67.7752 230.931 67.1514C231.178 64.6243 231.554 62.3444 231.866 60.8066C233.63 51.9238 236.652 44.4821 241.943 45.2026Z" fill="#FFD6BC"/>
<path fill-rule="evenodd" clip-rule="evenodd" d="M235.76 49.1074C237.362 46.4082 239.395 44.8596 241.943 45.2037C244.137 45.5049 247.234 48.9892 250.611 54.1941C247.127 51.269 242.793 47.6234 239.395 47.903C238.179 47.9998 236.964 48.4622 235.76 49.1074Z" fill="#412928"/>
<path fill-rule="evenodd" clip-rule="evenodd" d="M227.887 129.934C227.403 140.882 225.511 159.636 225.403 167.584C225.145 186.317 284.045 184.941 280.023 171.477C277.173 161.916 270.043 145.516 267.333 136.128C265.354 129.321 263.902 120.524 263.73 115.169C263.375 104.619 261.881 89.1656 260.719 79.3365C260.235 75.1962 259.579 71.8948 258.687 70.0881C258.031 68.7654 254.159 70.4322 238.813 68.0126C235.243 67.4534 232.662 66.5823 231.049 65.9693C231.092 65.7435 231.114 65.4424 231.114 65.4424C231.114 65.4424 230.264 65.6144 230.178 66.2167C229.296 72.2496 228.629 88.2193 228.275 101.931C228.07 109.738 228.296 120.61 227.887 129.934Z" fill="#412928"/>
<path fill-rule="evenodd" clip-rule="evenodd" d="M197.659 110.555C194.702 110.824 193.325 110.996 189.647 110.577C185.356 110.082 184.077 109.587 181.861 108.706C181.904 107.931 184.356 107.361 186.324 107.426C188.163 107.48 192.239 107.77 194.497 108.286C196.196 108.663 198.014 109.577 197.659 110.555Z" fill="#333333"/>
<path fill-rule="evenodd" clip-rule="evenodd" d="M197.659 110.555C194.702 110.824 193.325 110.996 189.647 110.577C185.356 110.082 184.077 109.587 181.861 108.706C181.904 107.931 184.356 107.361 186.324 107.426C188.163 107.48 192.239 107.77 194.497 108.286C196.196 108.663 198.014 109.577 197.659 110.555Z" fill="black"/>
<path fill-rule="evenodd" clip-rule="evenodd" d="M192.205 99.4036C192.291 98.5002 196.507 99.6401 197.034 99.5541C197.335 99.5003 197.442 99.1024 197.485 98.8336C197.55 98.3819 197.539 98.1238 197.335 97.9948C197.034 97.8012 193.646 96.8549 191.635 97.2097C191.538 97.2205 191.441 97.242 191.355 97.2635C190.603 97.4571 190.42 98.0701 190.28 98.7476C189.828 100.877 188.99 107.351 188.269 112.685C187.419 118.901 186.731 124.052 186.581 126.568C186.441 128.88 186.85 128.955 187.28 128.988C187.71 129.009 188.183 129.031 188.645 126.815C189.172 124.267 189.85 118.599 190.678 112.212C191.345 107.082 192.011 101.479 192.205 99.4036Z" fill="#412928"/>
<path fill-rule="evenodd" clip-rule="evenodd" d="M197.658 110.555C194.701 110.824 193.325 110.996 189.647 110.576C185.356 110.082 184.076 109.587 181.861 108.705C181.226 111.092 179.602 117.19 178.796 122.513C177.86 128.707 177.075 133.859 178.161 136.515C179.162 138.956 182.248 139.354 185.592 139.73C188.872 140.085 192.4 140.462 193.97 138.375C195.766 135.977 195.959 130.245 196.648 123.857C197.196 118.706 197.583 112.931 197.658 110.555Z" fill="#333333"/>
<path fill-rule="evenodd" clip-rule="evenodd" d="M178.754 114.986C173.592 115.319 172.538 128.998 175.646 132.192C177.033 133.623 179.345 134.257 181.034 134.451C186.862 135.107 189.658 129.912 190.164 126.837C190.669 123.772 187.335 117.255 184.077 116.008C182.389 115.362 180.087 114.9 178.754 114.986Z" fill="#FFD6BC"/>
<path fill-rule="evenodd" clip-rule="evenodd" d="M148.695 359.079L154.309 303.922L128.413 302.868L129.822 359.122L148.695 359.079Z" fill="#FFD6BC"/>
<path fill-rule="evenodd" clip-rule="evenodd" d="M128.424 350.326C130.392 352.057 135.145 355.359 140.393 353.358C148.921 350.121 150.255 349.584 154.524 350.111C156.61 350.369 156.04 355.219 158.664 358.004C160.288 359.725 161.772 361.262 164.418 362.65C168.87 364.994 170.332 365.704 173.903 366.661C177.591 367.65 177.882 378.082 174.01 379.297C168.762 380.953 165.59 380.243 158.804 380.437C152.954 380.609 144.082 380.448 136.124 379.533C129.349 378.748 124.8 377.63 123.348 375.339C120.627 371.07 125.596 347.852 128.424 350.326Z" fill="#412928"/>
<path fill-rule="evenodd" clip-rule="evenodd" d="M118.811 269.767L164.795 266.477C164.795 266.477 160.17 330.785 158.149 341.658C157.589 344.69 145.717 344.088 139.437 343.808C133.038 343.518 119.854 342.432 119.757 339.937C119.305 329.172 118.811 269.767 118.811 269.767Z" fill="#412928"/>
<path fill-rule="evenodd" clip-rule="evenodd" d="M104.884 364.994L118.81 311.321L93.3877 306.353L86.2256 362.166L104.884 364.994Z" fill="#FFD6BC"/>
<path fill-rule="evenodd" clip-rule="evenodd" d="M86.171 353.25C87.8594 355.261 92.0535 359.251 97.5487 358.079C106.464 356.165 107.862 355.842 112.002 357.014C114.024 357.584 112.723 362.284 114.906 365.435C116.239 367.381 117.476 369.134 119.885 370.908C123.917 373.898 125.262 374.823 128.638 376.318C132.134 377.856 130.832 388.201 126.821 388.825C121.39 389.663 118.358 388.47 111.626 387.631C105.819 386.91 97.0648 385.405 89.3542 383.286C82.762 381.49 78.4389 379.684 77.3528 377.2C75.3095 372.575 83.7621 350.379 86.171 353.25Z" fill="#412928"/>
<path fill-rule="evenodd" clip-rule="evenodd" d="M89.6654 267.101L136.692 267.638C136.692 267.638 120.83 337.894 116.884 349.196C115.862 352.111 104.216 349.723 98.0535 348.487C91.7624 347.228 78.9114 344.153 79.191 341.658C80.4492 330.377 89.6654 267.101 89.6654 267.101Z" fill="#412928"/>
<path fill-rule="evenodd" clip-rule="evenodd" d="M18.5093 242.894C8.01339 229.494 12.7989 206.653 16.7134 189.177C20.8429 170.734 33.1992 149.044 43.2542 132.257C57.6537 108.211 68.569 86.6814 91.6363 78.0137C92.0664 77.8524 98.7124 80.5194 107.735 88.6709C116.865 96.9084 121.543 106.77 119.102 132.622C118.027 144.032 109.907 159.905 107.821 183.865H110.499C110.757 187.489 102.347 205.072 111.338 208.814C123.457 213.869 146.406 212.471 155.321 225.193C168.043 243.345 170.355 313.633 170.441 320.129C170.463 321.709 170.474 323.215 170.484 324.645C170.484 327.904 170.452 330.807 170.355 333.464C170.237 336.969 100.196 345.949 70.5262 326.183C64.3857 322.086 84.173 254.96 77.0431 254.809C50.4916 254.25 31.3818 259.315 18.5093 242.894Z" fill="#333333"/>
<path fill-rule="evenodd" clip-rule="evenodd" d="M108.067 79.8954C113.207 83.3904 123.692 92.2517 123.66 95.1015C123.649 95.5532 119.552 100.554 119.552 100.554L93.1832 80.1427C93.1832 80.1427 92.6671 74.4431 92.7961 74.1097C93.4951 72.2601 103.604 76.8628 108.067 79.8954Z" fill="black"/>
<path fill-rule="evenodd" clip-rule="evenodd" d="M122.283 90.8536C121.38 90.7998 119.434 89.7782 117.96 88.2511C116.53 86.7671 113.605 85.8207 112.637 84.9174C111.615 83.9818 111.325 84.3905 107.776 78.4005C104.034 72.0772 116.842 83.7452 122.122 84.1969C127.8 84.6808 133.252 81.3901 134.844 80.6696C135.435 80.4115 136.102 82.8311 132.51 85.197C131.338 85.9605 129.951 88.1221 128.929 88.7996C128.047 89.3803 127.295 89.5309 126.079 90.2729C124.552 91.1977 122.692 90.8751 122.283 90.8536Z" fill="black"/>
<path fill-rule="evenodd" clip-rule="evenodd" d="M99.99 46.4611C98.3016 44.633 95.4088 44.4071 92.9031 45.4718C90.1393 46.6547 88.4294 54.29 89.4188 57.3119C90.5157 60.6671 94.4624 62.3878 97.4413 63.7643C97.6563 63.8611 97.1079 66.4528 96.9036 67.9261C96.6777 69.4746 97.5596 71.034 98.9468 72.6578C102.646 76.9917 105.754 79.3898 111.153 82.2181C115.562 84.5194 121.896 87.2402 124.67 87.5951C127.477 87.9607 128.843 87.2832 130.219 86.5842C136.338 83.4978 139.737 77.8842 142.307 73.088C143.232 71.3566 144.124 68.496 144.716 65.6247C144.888 64.7751 146.501 66.3775 146.813 64.6999C147.146 62.8717 145.232 62.5921 145.361 61.6995C145.845 58.4411 147.146 53.9997 147.168 53.9029C148.179 49.0851 151.168 35.6641 147.619 30.7711C144.49 26.4803 138.597 27.3083 127.81 24.4478C116.046 21.3291 109.916 31.0937 104.41 32.9434C101.248 33.9973 101.883 40.9659 100.001 45.1599L99.99 46.4611Z" fill="#FFD6BC"/>
<path fill-rule="evenodd" clip-rule="evenodd" d="M101.754 1.50984C102.657 1.18722 103.668 0.907615 104.83 0.681779C112.185 -0.759251 119.595 0.101066 129.553 3.10142C129.962 2.95087 130.424 2.80031 130.919 2.68202C132.037 2.40241 133.349 2.23035 134.844 2.28412C136.038 2.34865 137.177 2.56373 138.231 2.86484C140.199 3.42404 141.845 4.2521 142.845 4.74678C142.899 4.77904 142.92 4.84357 142.888 4.89734C142.856 4.95111 142.77 4.97262 142.705 4.94036C141.845 4.54246 140.5 3.92948 138.887 3.44555C137.651 3.07992 136.263 2.78956 134.812 2.7573C133.392 2.70353 132.134 2.87559 131.069 3.14444C130.94 3.1767 130.8 3.21972 130.671 3.25198C132.854 3.19821 137.371 2.06904 145.211 6.24158L145.243 6.26309C145.275 6.26309 145.297 6.27384 145.329 6.2846C146.125 6.5642 147.405 7.00512 148.813 7.8977C149.792 8.52143 150.824 9.34948 151.814 10.4786C152.588 11.382 153.222 12.3606 153.739 13.3392C154.696 15.1459 155.244 16.9203 155.578 17.9849C155.599 18.0494 155.556 18.114 155.502 18.1247C155.438 18.1355 155.362 18.0925 155.341 18.0279C155.029 17.1246 154.534 15.7158 153.771 14.221C153.179 13.0596 152.427 11.8552 151.459 10.7798C150.534 9.73662 149.566 8.97309 148.663 8.39238C154.352 12.5542 153.986 16.4794 156.621 20.5229C158.825 23.8889 159.202 29.3411 157.115 33.5997C155.287 37.3421 152.674 40.6328 150.803 42.0846C149.555 43.0524 148.276 42.1599 148.104 41.9233C142.329 41.7512 139.565 38.0088 138.694 37.4496C137.963 36.9872 136.737 38.9552 132.392 38.5573C128.187 38.1809 124.058 40.6758 121.606 39.6649C120.434 39.181 119.412 39.1918 118.444 39.4929C118.046 39.9768 117.551 40.5145 116.96 41.0522C116.1 41.8157 115.024 42.59 113.68 43.246C112.605 43.7514 111.486 44.1063 110.411 44.3321C109.669 44.5042 108.938 44.6118 108.26 44.687C107.41 44.8268 106.475 44.8914 105.464 44.8483C105.453 44.8483 105.453 44.8483 105.443 44.8483C104.862 44.8161 104.26 44.7623 103.614 44.6548C102.464 48.9348 102.56 46.9991 101.636 51.0856C101.603 51.2254 101.861 47.5906 99.431 45.7087C97.8072 44.4504 95.3338 44.0848 92.9679 46.0528C91.0107 47.6766 89.4191 50.0963 89.6772 56.8605C89.0427 56.4304 84.8809 54.1075 84.44 52.3331C83.5367 48.6337 84.6551 38.4927 82.1279 34.0514C81.0202 32.1049 81.3536 23.5125 82.4613 19.9099C83.2463 17.3182 84.6443 15.3287 86.2037 13.7909C86.2359 13.7371 86.2682 13.6833 86.3004 13.6296C86.7414 12.8445 87.3006 12.081 87.9673 11.4035C88.8276 10.5647 89.7202 9.99472 90.5698 9.59682C91.7205 9.04837 92.7743 8.83329 93.4626 8.70424C93.6884 8.0375 94.0541 6.99436 94.7746 5.89746C95.2908 5.12317 95.9898 4.31662 96.9361 3.58535C97.6997 3.01539 98.5277 2.57448 99.3558 2.24111C100.195 1.90773 101.023 1.67115 101.754 1.50984ZM117.422 39.9123C117.175 40.1704 116.906 40.4392 116.605 40.7081C115.788 41.4501 114.766 42.1921 113.486 42.8158C112.841 43.1385 112.196 43.3966 111.54 43.6116C113.917 42.461 115.648 40.8048 117.422 39.9123ZM93.4411 9.16666C92.7743 9.29571 91.8172 9.51079 90.7526 10.0055C89.9568 10.3819 89.0965 10.9303 88.2792 11.7261C87.9243 12.0595 87.6017 12.4144 87.3113 12.7908C89.7955 10.7367 92.398 9.70436 93.4411 9.16666ZM98.8934 2.85408C95.4198 5.01563 94.7961 7.81166 93.8928 8.82254C94.1186 8.1773 94.4735 7.19869 95.151 6.15555C95.6456 5.41353 96.3016 4.63924 97.205 3.92948C97.7319 3.51007 98.3126 3.15519 98.8934 2.85408Z" fill="black"/>
<path fill-rule="evenodd" clip-rule="evenodd" d="M106.164 91.402C101.712 87.466 88.818 79.1425 89.1083 78.7553C89.6138 78.0563 91.7431 75.314 92.4528 74.4645C92.6249 74.2494 92.9152 73.9053 92.9152 73.9053C92.797 74.1634 93.3239 74.2602 93.6465 74.615C97.4104 78.6693 103.766 82.6052 109.369 86.0142C113.143 88.3048 116.316 91.1439 118.219 92.9721C121.134 95.7681 121.919 97.2414 122.08 98.3706C122.198 98.4243 117.327 104.78 115.8 102.36C111.745 95.9402 109.864 94.6819 106.164 91.402Z" fill="#412928"/>
<path fill-rule="evenodd" clip-rule="evenodd" d="M111.335 80.0349C113.744 81.3468 115.26 81.82 118.174 81.8845C121.089 81.9598 122.497 86.3797 121.013 88.2401C120.723 88.6165 119.314 90.5953 118.551 90.9286C119.744 92.0686 122.454 93.1117 121.422 93.5203C119.282 94.3699 113.69 99.0264 110.001 98.6715C108.109 98.4887 106.721 93.2837 106.538 93.273C106.571 92.1223 103.409 87.6272 101.807 84.3687C99.0967 78.8412 99.4408 76.5721 98.6988 73.2599C98.0535 70.3563 97.2578 67.0441 97.376 64.5061C97.4406 63.0328 98.9999 62.3231 99.6989 62.5166C100.387 62.6995 101.118 64.2158 101.538 65.6245C102.237 67.9259 103.581 70.8617 105.269 73.7976C106.764 76.4 110.098 79.3574 111.335 80.0349Z" fill="#FFD6BC"/>
<path fill-rule="evenodd" clip-rule="evenodd" d="M100.82 63.4637C101.379 65.4639 101.917 67.5394 102.626 69.5396C103.099 70.8946 103.648 72.2174 104.325 73.4648C105.003 74.7338 105.82 75.9275 106.799 76.9921C107.444 77.6912 108.175 78.3256 108.971 78.9064C110.229 79.7989 111.574 80.4764 112.972 81.0249C115.036 81.8422 117.219 82.3584 119.381 82.8853C119.532 82.9283 119.693 82.8316 119.725 82.681C119.768 82.5304 119.682 82.3799 119.532 82.3369C117.424 81.7239 115.294 81.1217 113.294 80.2506C111.982 79.6806 110.713 79.0031 109.552 78.1213C108.799 77.5729 108.143 76.9599 107.541 76.3146C106.605 75.3038 105.82 74.1854 105.153 73.0024C103.444 70.0021 102.411 66.5608 101.39 63.2916C101.336 63.141 101.174 63.0442 101.024 63.098C100.863 63.141 100.777 63.3023 100.82 63.4637Z" fill="black" fill-opacity="0.5"/>
<path fill-rule="evenodd" clip-rule="evenodd" d="M172.236 215.868C171.795 225.762 171.838 239.646 171.558 249.292C171.171 262.143 170.763 275.714 170.634 287.856C170.537 296.642 170.236 351.487 170.816 371.629C170.892 374.371 131.489 374.533 132.177 383.63C132.479 387.62 165.074 389.298 175.849 389.212C189.378 389.104 219.489 387.911 219.123 383.77C218.306 374.533 180.377 374.253 180.43 371.048C180.936 342.712 181.355 261.369 181.613 245.087C181.753 236.398 182.14 224.88 182.097 216.03C191.131 216.288 212.789 219.062 225.801 218.901C234.555 218.794 260.289 216.32 264.462 212.728C270.226 207.749 262.387 188.048 254.633 182.381C245.707 175.853 228.103 176.369 214.703 175.337C195.217 173.82 157.084 171.594 137.716 173.315C124.381 174.498 105.346 179.047 98.5067 185.65C93.2265 190.758 94.0223 208.481 100.012 211.9C105.572 215.073 124.316 215.933 143.017 216.03C155.094 216.084 169.655 215.664 172.236 215.868Z" fill="black"/>
<path fill-rule="evenodd" clip-rule="evenodd" d="M245.75 217.267C247.632 217.02 249.492 216.762 251.278 216.471C250.751 216.428 250.235 216.374 249.718 216.31C247.826 216.062 245.922 215.654 244.019 215.557C243.503 215.525 239.351 215.213 237.115 214.148C236.781 213.987 236.491 213.815 236.287 213.621C236.211 213.557 236.158 213.482 236.104 213.417C236.082 213.363 236.05 213.32 236.061 213.266C236.104 213.116 236.244 213.03 236.405 212.922C236.706 212.729 237.093 212.567 237.545 212.438C239.685 211.815 243.008 211.815 243.976 211.847L243.965 211.825C243.718 211.331 243.675 210.815 243.825 210.298C242.642 210.277 239.416 210.309 237.297 210.933C236.631 211.126 236.061 211.395 235.674 211.707C235.308 212.019 235.082 212.385 234.985 212.783C234.846 213.352 234.921 213.879 235.211 214.363C235.491 214.826 236.029 215.267 236.738 215.6C239.072 216.718 243.427 217.063 243.976 217.095C244.567 217.127 245.159 217.192 245.75 217.267ZM105.002 213.578C105.669 213.729 106.389 213.869 107.142 213.998C107.658 213.718 108.164 213.471 108.658 213.245C108.831 213.17 109.347 213.105 110.089 213.03C113.347 212.707 120.606 212.46 124.166 212.589C125.048 212.621 125.886 212.75 125.962 212.761C126.23 212.922 126.542 212.793 126.693 212.449C126.854 212.084 126.768 211.61 126.489 211.395C126.413 211.331 126.252 211.255 125.994 211.202C125.639 211.137 125.005 211.083 124.198 211.051C119.681 210.89 109.271 211.341 108.293 211.782C107.228 212.266 106.11 212.879 105.002 213.578ZM265.269 211.815C265.559 211.385 265.796 210.89 265.968 210.352C259.042 209.503 252.116 210.524 245.18 210.352C245.116 210.427 245.051 210.524 244.997 210.61C244.922 210.729 244.847 210.847 244.911 210.976C245.094 211.352 245.374 211.653 245.696 211.901C252.213 212.008 258.741 211.116 265.269 211.815ZM95.0439 199.555C95.3128 204.33 96.6463 208.922 98.9691 211.116C106.895 202.685 118.875 202.792 128.414 204.825C128.725 204.889 128.93 205.287 128.887 205.706C128.833 206.126 128.543 206.416 128.231 206.352C119.703 204.523 109.132 204.179 101.529 210.567C101.905 210.492 102.281 210.438 102.647 210.406C106.561 210.051 110.444 209.32 114.358 209.029C118.907 208.685 123.37 209.384 127.908 209.384C134.371 209.384 140.824 208.47 147.287 208.341C169.913 207.922 192.636 212.062 215.252 210.406C225.339 209.675 235.426 208.761 245.524 208.201C246.621 207.406 247.933 206.814 248.342 206.717C250.912 206.147 253.45 205.61 256.063 205.76C258.203 205.9 260.505 206.803 262.645 206.319C263.161 206.201 264.236 205.76 264.849 205.083C265.064 204.846 265.226 204.588 265.064 204.255C264.989 204.093 264.828 203.986 264.623 203.878C264.333 203.706 263.957 203.577 263.548 203.47C261.451 202.91 258.3 202.975 257.343 202.975C249.632 202.975 242.094 202.029 234.394 203.115C233.071 203.298 229.232 203.846 227.092 204.534C226.651 204.674 226.167 204.932 226.006 205.018C225.931 205.255 225.769 205.438 225.565 205.491C225.264 205.567 224.963 205.276 224.909 204.857C224.877 204.588 224.92 204.308 225.092 204.04C225.221 203.814 225.522 203.566 225.974 203.362C227.802 202.512 232.727 201.792 234.276 201.577C242.018 200.491 249.589 201.437 257.343 201.437C258.332 201.437 261.591 201.383 263.763 201.953C264.376 202.115 264.903 202.33 265.29 202.588C265.623 202.824 265.871 203.104 266.021 203.405C266.086 203.545 266.15 203.695 266.183 203.835C265.752 201.039 264.785 197.942 263.494 194.963C247.245 194.888 230.985 196.501 214.746 197.684C192.249 199.329 169.655 195.189 147.158 195.608C145.77 195.63 144.394 195.694 143.007 195.781C142.964 195.802 142.91 195.813 142.856 195.813C136.275 196.264 129.801 197.318 123.198 197.652C119.595 197.835 116.014 197.824 112.422 197.824C110.583 197.824 105.604 198.512 101.926 197.705C100.399 197.856 98.8616 198.297 97.3238 198.802C96.5603 199.06 95.8075 199.34 95.0439 199.555ZM249.643 207.997C252.719 207.857 255.794 207.76 258.859 207.717C257.902 207.556 256.945 207.363 256.009 207.309C253.859 207.169 251.751 207.535 249.643 207.997ZM266.29 204.523C266.29 204.599 266.279 204.663 266.279 204.728C266.226 205.287 265.978 205.825 265.58 206.276C264.967 206.943 264 207.449 263.301 207.696C264.344 207.696 265.387 207.707 266.43 207.728C266.484 206.739 266.43 205.663 266.29 204.523ZM114.186 196.286C114.993 196.232 115.788 196.211 116.584 196.211C117.38 196.2 118.165 196.221 118.961 196.254C117.369 196.275 115.778 196.286 114.186 196.286ZM136.006 177.617C135.963 177.671 135.898 177.757 135.845 177.811C135.608 178.058 135.253 178.327 134.844 178.585C132.726 179.94 129.026 181.37 128.553 181.531C125.316 182.553 115.057 183.983 108.368 186.425C106.604 187.07 105.077 187.79 103.98 188.586C103.163 189.178 102.572 189.823 102.249 190.49C101.744 191.5 102.088 192.565 103.378 193.264C106.723 195.114 117.423 195.426 119.864 194.598C120.843 194.275 125.854 194.307 129.091 194.479C130.414 194.555 131.435 194.641 131.693 194.759C131.995 194.888 132.317 194.673 132.414 194.275C132.522 193.866 132.36 193.425 132.059 193.296C131.758 193.167 130.629 193.027 129.134 192.941C125.79 192.759 120.606 192.769 119.595 193.103C117.541 193.802 109.411 193.64 105.249 192.404C104.733 192.253 104.282 192.092 103.916 191.898C103.765 191.823 103.626 191.737 103.497 191.651C103.421 191.586 103.346 191.533 103.281 191.468C103.249 191.436 103.217 191.382 103.195 191.35V191.339C103.443 190.834 103.905 190.382 104.518 189.941C105.561 189.188 107.002 188.522 108.669 187.909C115.347 185.467 125.574 184.059 128.811 183.026C129.381 182.843 134.339 180.908 136.199 179.359C136.619 179.004 136.909 178.628 137.027 178.316C137.135 178.036 137.167 177.778 137.135 177.531C137.07 177.112 136.78 176.832 136.468 176.907C136.199 176.972 136.017 177.273 136.006 177.617ZM262.784 193.393C262.473 192.748 262.15 192.113 261.817 191.479C260.784 191.124 259.612 191.092 258.569 191.092C255.257 191.092 252.02 191.404 248.697 191.103C240.169 190.307 230.652 188.758 222.124 190.059C219.113 190.511 216.241 191.941 213.219 192.124C202.379 192.791 191.926 190.995 181.237 189.425C168.924 187.618 155.997 187.253 143.673 188.382C136.479 189.038 129.532 188.801 122.359 188.801C119.724 188.801 117.176 189.554 114.562 189.844C114.014 189.909 112.659 189.909 112.035 189.92C111.928 189.844 111.799 189.812 111.68 189.834C111.293 189.898 111.143 190.102 111.11 190.145C110.96 190.361 110.928 190.597 110.938 190.801C110.949 190.952 111.014 191.468 111.487 191.586C111.777 191.662 113.863 191.629 114.67 191.533C117.251 191.253 119.757 190.49 122.359 190.49C129.553 190.49 136.533 190.737 143.759 190.07C156.008 188.952 168.859 189.317 181.108 191.113C191.851 192.694 202.369 194.49 213.273 193.823C216.327 193.63 219.231 192.199 222.263 191.748C230.716 190.457 240.147 192.006 248.611 192.791C251.955 193.103 255.224 192.791 258.569 192.791C259.558 192.791 260.677 192.812 261.644 193.178C261.698 193.2 262.096 193.286 262.311 193.339C262.397 193.393 262.494 193.425 262.591 193.425C262.655 193.425 262.72 193.415 262.784 193.393ZM247.557 178.983C246.804 179.123 246.062 179.273 245.32 179.445C242.148 180.166 238.964 181.101 235.792 180.445C234.717 180.22 233.641 179.961 232.566 179.693C232.028 179.779 231.501 179.875 230.985 179.983C229.372 180.327 227.899 180.789 226.726 181.521C225.898 182.048 225.232 182.693 224.791 183.553C228.253 184.381 231.705 185.467 235.136 186.188C238.76 186.941 242.406 185.994 246.03 185.177C248.966 184.51 251.891 183.897 254.783 184.908C254.999 185.672 255.461 186.306 256.085 186.586C256.859 186.941 257.676 186.672 258.235 185.973C257.063 184.5 255.848 183.263 254.633 182.381C252.654 180.929 250.245 179.832 247.557 178.983ZM188.98 173.681C190.83 175.111 192.453 176.972 194.142 178.682C196.389 180.972 198.744 183.005 201.605 183.897C204.39 184.768 207.068 184.381 209.724 183.725C211.972 183.177 214.219 182.413 216.542 182.413C218.887 182.413 221.242 182.768 223.586 183.284C224.113 181.908 225.038 180.886 226.242 180.123C227.124 179.574 228.167 179.155 229.297 178.832C225.059 177.703 220.801 176.606 216.542 176.606C213.961 176.606 211.456 177.402 208.961 178.015C206.864 178.531 204.767 178.918 202.573 178.241C200.347 177.542 198.551 175.896 196.798 174.122C194.271 173.971 191.647 173.821 188.98 173.681ZM138.028 173.294C137.92 173.305 137.823 173.305 137.716 173.315C126.596 174.305 111.519 177.628 102.851 182.532C104.11 182.187 105.411 181.94 106.734 181.747C113.541 179.424 120.843 180.8 127.618 178.757C127.65 178.757 127.671 178.746 127.693 178.735C127.747 178.725 127.801 178.703 127.854 178.682C128.5 178.434 129.134 178.187 129.758 177.929C130.048 177.811 130.338 177.692 130.65 177.563C133.231 176.456 135.662 175.144 138.028 173.294Z" fill="#FFD6BC" fill-opacity="0.11"/>
<path fill-rule="evenodd" clip-rule="evenodd" d="M172.236 215.868C171.795 225.762 171.838 239.646 171.558 249.292C171.171 262.143 170.763 275.714 170.634 287.856C170.537 296.642 170.236 351.487 170.816 371.629C170.892 374.371 131.489 374.533 132.177 383.63C132.479 387.62 165.074 389.298 175.849 389.212C189.378 389.104 219.489 387.911 219.123 383.77C218.306 374.533 180.377 374.253 180.43 371.048C180.936 342.712 181.355 261.369 181.613 245.087C181.753 236.398 182.14 224.88 182.097 216.03C191.131 216.288 212.789 219.062 225.801 218.901C234.555 218.794 260.289 216.32 264.462 212.728C270.226 207.749 262.387 188.048 254.633 182.381C245.707 175.853 228.103 176.369 214.703 175.337C195.217 173.82 157.084 171.594 137.716 173.315C124.381 174.498 105.346 179.047 98.5067 185.65C93.2265 190.758 94.0223 208.481 100.012 211.9C105.572 215.073 124.316 215.933 143.017 216.03C155.094 216.084 169.655 215.664 172.236 215.868Z" fill="#FFD6BC" fill-opacity="0.2"/>
<path fill-rule="evenodd" clip-rule="evenodd" d="M185.226 178.897C182.516 183.188 184.882 199.48 188.205 202.394C191.033 204.868 197.346 199.426 199.045 199.189C200.077 199.05 203.174 202.781 209.67 203.631C211.455 203.867 219.596 203.609 221.08 203.631C224.973 203.685 253.535 205.169 255.632 203.728C257.31 202.588 268.15 205.126 268.677 201.319C268.73 200.878 266.924 193.458 261.816 186.532C257.256 180.338 249.395 174.541 248.75 174.488C239.705 173.789 219.434 172.971 218.628 173.036C213.885 173.401 210.691 173.165 208.014 174.154C204.26 175.531 201.744 177.445 198.195 179.639C197.367 180.155 186.893 175.111 185.226 178.897Z" fill="#412928"/>
<path fill-rule="evenodd" clip-rule="evenodd" d="M199.617 198.469C199.445 197.899 199.617 197.297 199.767 196.706C199.961 195.942 200.111 195.189 199.832 194.501C199.305 193.167 198.541 192.533 198.24 190.888C198.111 190.167 198.272 189.662 198.455 189.135C198.681 188.5 198.928 187.844 198.907 186.876C198.875 185.22 198.412 184.564 197.67 183.274C197.584 183.134 197.595 182.973 197.616 182.801C197.659 182.564 197.767 182.306 197.874 182.048C198.165 181.403 198.509 180.747 198.52 180.209C198.53 179.951 198.315 179.757 198.036 179.768C197.756 179.768 197.52 179.983 197.509 180.241C197.509 180.489 197.391 180.768 197.261 181.058C197.111 181.413 196.928 181.779 196.788 182.134C196.573 182.725 196.509 183.285 196.767 183.747C197.434 184.898 197.874 185.478 197.896 186.952C197.917 187.79 197.692 188.371 197.498 188.92C197.272 189.576 197.079 190.199 197.251 191.103C197.552 192.813 198.326 193.479 198.885 194.867C199.09 195.394 198.928 195.974 198.789 196.555C198.595 197.308 198.423 198.061 198.649 198.781C198.713 199.018 198.993 199.147 199.262 199.061C199.531 198.975 199.692 198.717 199.617 198.469Z" fill="#333333" fill-opacity="0.42"/>
<path fill-rule="evenodd" clip-rule="evenodd" d="M171.946 196.447C171.3 196.781 170.687 197.049 170.15 197.2C168.128 197.748 167.633 196.189 168.117 195.512C168.58 194.866 170.612 192.221 171.548 191.425C174.312 189.049 179.742 186.274 182.603 186.79C183.001 186.865 183.366 187.07 183.786 187.188C186.883 188.145 186.227 188.489 187.249 188.694C189.324 189.113 189.335 198.577 189.303 198.759C188.216 198.577 187.872 200.211 186.711 200.684C184.786 201.48 183.603 201.19 182.108 201.265C180.635 201.34 179.065 201.469 177.731 201.147C177.387 201.061 177.172 200.383 177.065 199.835C176.882 198.856 178.323 197.781 180 197.232C181.269 196.824 184.044 196.619 183.915 195.77C183.893 195.587 183.85 195.426 183.786 195.275C183.528 195.329 183.259 195.329 182.979 195.297C182.097 195.178 180.409 194.791 179.043 195.383C176.774 196.372 175.258 197.921 173.623 198.286C171.58 198.727 171.451 197.426 171.806 196.684C171.838 196.609 171.892 196.523 171.946 196.447Z" fill="#FFD6BC"/>
<path fill-rule="evenodd" clip-rule="evenodd" d="M168.989 153.377C169.752 152.657 171.774 151 173.323 150.14C175.602 148.882 178.7 146.892 182.657 145.806C184.077 145.419 185.421 148.258 183.055 150.43C181.926 151.463 179.689 153.85 178.635 154.99C177.699 156.012 181.27 155.216 185.324 154.205C185.442 154.173 185.937 153.205 186.367 152.431C186.658 151.893 188.099 152.022 188.421 152.42C189.185 153.334 189.271 154.581 189.54 155.356C189.83 156.195 188.647 157.421 189.303 158.173C190.475 159.539 189.905 162.722 188.443 163.249C188.195 163.346 189.357 163.733 189.475 165.217C189.712 168.088 187.948 168.304 188.518 168.863C189.475 169.831 187.754 172.885 186.421 173.164C184.754 173.508 183.087 174.025 181.528 174.164C178.216 174.444 172.935 173.53 171.785 173.53C164.666 173.53 164.999 160.109 166.451 156.722C166.999 155.442 167.645 154.635 168.989 153.377Z" fill="#FFD6BC"/>
<path fill-rule="evenodd" clip-rule="evenodd" d="M162.622 152.882C162.654 156.947 163.719 169.035 164.149 173.369C164.278 174.595 169.58 174.476 169.526 172.938C169.386 169.196 168.698 156.603 167.988 152.452C167.827 151.516 162.611 151.968 162.622 152.882Z" fill="#412928"/>
<path fill-rule="evenodd" clip-rule="evenodd" d="M119.562 142.849C106.582 141.666 111.701 177.197 120.627 177.8C136.36 178.864 154.663 178.832 157.782 178.542C158.932 178.434 163.148 177.961 164.557 176.617C165.965 175.262 166.396 172.401 166.245 170.455C165.965 166.884 165.965 166.927 165.632 163.379C165.309 159.83 165.481 160.335 165.288 157.765C164.922 153.238 165.127 150.861 162.857 149.656C160.943 148.635 156.104 147.732 154.674 147.549C151.329 147.108 131.606 143.946 119.562 142.849Z" fill="#333333"/>
<path fill-rule="evenodd" clip-rule="evenodd" d="M105.765 102.296C109.787 101.715 121.606 99.0052 125.843 97.9835C127.037 97.6932 126.198 92.456 124.692 92.7248C120.993 93.3701 108.615 95.7682 104.604 97.0372C103.7 97.3168 104.851 102.425 105.765 102.296Z" fill="#412928"/>
<path fill-rule="evenodd" clip-rule="evenodd" d="M104.411 158.464C104.702 163.303 93.3024 120.029 93.4314 121.718C93.711 125.256 74.4076 114.685 68.095 128.095C61.6319 141.828 87.7641 173.39 93.84 179.208C100.346 185.435 105.53 197.103 120.295 196.705C126.575 196.533 138.501 192.78 139.415 185.446C141.34 169.928 132.963 108.361 131.845 103.576C131.586 102.457 130.543 98.3493 129.016 97.1341C127.489 95.9296 124.586 95.8866 122.682 96.306C119.187 97.0695 119.219 97.0695 115.757 97.8761C112.283 98.6826 112.756 98.4353 110.24 98.9945C105.809 99.9624 103.422 100.091 102.54 102.511C101.787 104.533 101.551 109.447 101.561 110.899C101.583 113.534 103.368 140.924 104.411 158.464Z" fill="#333333"/>
<path fill-rule="evenodd" clip-rule="evenodd" d="M125.993 303.621C125.961 303.621 125.961 303.653 125.983 303.685C125.961 303.879 125.897 304.277 125.886 304.373C125.778 305.04 125.391 307.04 124.972 309.503C124.778 310.579 124.574 311.751 124.402 312.934C124.219 314.084 124.068 315.257 123.918 316.375C123.66 318.44 123.445 320.322 123.305 321.569C123.273 321.72 123.38 321.859 123.541 321.881C123.692 321.913 123.832 321.806 123.864 321.644C124.079 320.418 124.445 318.558 124.81 316.515C125.004 315.407 125.208 314.246 125.391 313.084C125.574 311.901 125.735 310.729 125.875 309.643C126.208 307.159 126.445 305.126 126.509 304.449C126.52 304.352 126.574 303.879 126.574 303.685C126.585 303.61 126.574 303.545 126.574 303.524C126.499 303.287 126.327 303.277 126.219 303.298C126.069 303.33 125.972 303.47 125.993 303.621ZM126.047 303.771C126.079 303.814 126.122 303.847 126.165 303.868C126.208 303.879 126.262 303.879 126.305 303.879C126.208 303.89 126.112 303.847 126.047 303.771ZM125.993 303.621V303.642C125.993 303.642 125.993 303.642 125.993 303.653L125.983 303.685L126.004 303.696L126.026 303.739C126.015 303.707 126.004 303.685 125.993 303.653V303.642C125.993 303.631 125.993 303.621 125.993 303.621ZM132.231 265.896V265.928C132.22 265.982 132.198 266.122 132.166 266.294C131.973 267.326 131.499 269.907 131.467 270.079C131.112 272.241 130.725 274.424 130.338 276.639C130.091 278.091 129.832 279.543 129.574 281.005C129.37 282.22 129.155 283.436 128.951 284.651C128.746 285.877 128.553 287.092 128.359 288.307C128.037 290.361 127.725 292.404 127.434 294.405C127.122 296.491 126.843 298.534 126.585 300.524C126.563 300.674 126.671 300.825 126.832 300.846C126.983 300.868 127.122 300.76 127.144 300.61C127.725 297.093 128.402 293.426 129.08 289.684C129.338 288.232 129.607 286.769 129.854 285.307C130.026 284.339 130.187 283.36 130.349 282.392C130.618 280.769 130.876 279.134 131.123 277.51C131.51 275.047 131.854 272.595 132.188 270.187C132.209 270.015 132.596 267.434 132.758 266.39C132.779 266.208 132.801 266.079 132.811 266.014C132.844 265.745 132.618 265.648 132.618 265.648C132.467 265.595 132.295 265.681 132.252 265.831C132.241 265.853 132.241 265.874 132.231 265.896ZM69.5134 144.473C69.9866 145.688 71.0728 147.849 72.2987 150.151C73.9871 153.312 75.9551 156.732 77.0197 158.378C78.7726 161.045 80.6653 163.841 82.6871 166.615C83.9883 168.4 85.3433 170.175 86.7413 171.917C90.3116 176.38 94.1293 180.638 97.9792 184.23C98.0975 184.338 98.2696 184.338 98.3771 184.219C98.4846 184.112 98.4846 183.929 98.3771 183.821C95.3552 180.875 92.3871 177.487 89.5373 173.939C87.4511 171.358 85.4401 168.68 83.5044 166.024C81.4826 163.26 79.5576 160.518 77.7832 157.872C76.6971 156.259 74.6861 152.893 72.944 149.796C71.675 147.548 70.5566 145.441 70.0511 144.247C69.9974 144.096 69.8253 144.032 69.6747 144.086C69.5242 144.15 69.4489 144.322 69.5134 144.473ZM137.113 146.387C137.177 146.871 137.349 148.688 137.565 151.398C137.737 153.452 137.93 156.033 138.124 158.937L139.35 175.369C139.36 175.53 139.49 175.648 139.64 175.638C139.801 175.638 139.92 175.498 139.909 175.347C139.812 171.702 139.705 168.454 139.554 165.443C139.5 164.314 139.436 163.217 139.36 162.152C139.285 161.034 139.188 159.937 139.102 158.861C138.887 156.517 138.683 154.388 138.479 152.57C138.113 149.161 137.79 146.849 137.694 146.29C137.661 146.129 137.511 146.021 137.349 146.053C137.188 146.075 137.081 146.226 137.113 146.387ZM102.474 122.33C102.593 123.545 102.786 125.621 102.991 127.632C103.066 128.428 103.152 129.202 103.227 129.912C103.345 130.976 103.474 132.202 103.636 133.547C103.776 134.687 103.937 135.902 104.109 137.171C104.442 139.515 104.84 142.01 105.227 144.397C105.249 144.548 105.399 144.655 105.55 144.634C105.701 144.623 105.819 144.473 105.797 144.322C105.572 142.311 105.367 140.225 105.163 138.214C105.012 136.805 104.872 135.429 104.722 134.149C104.528 132.525 104.313 131.052 104.152 129.793L103.055 122.255C103.034 122.094 102.894 121.986 102.732 122.008C102.571 122.018 102.453 122.169 102.474 122.33Z" fill="black" fill-opacity="0.5"/>
<path fill-rule="evenodd" clip-rule="evenodd" d="M242.654 347.325C242.977 349.39 243.288 351.422 243.633 353.401C243.869 354.778 244.116 356.122 244.375 357.434C244.482 357.982 244.6 358.52 244.708 359.047C244.891 359.864 245.074 360.66 245.256 361.445C245.751 363.574 246.257 365.574 246.719 367.424C246.751 367.575 246.902 367.672 247.052 367.639C247.214 367.607 247.31 367.456 247.267 367.306C246.913 365.435 246.536 363.402 246.138 361.262C245.988 360.466 245.837 359.66 245.676 358.843C245.579 358.316 245.471 357.778 245.364 357.24C245.084 355.928 244.805 354.595 244.514 353.229C244.095 351.272 243.654 349.261 243.235 347.217C243.202 347.056 243.052 346.949 242.891 346.981C242.729 347.013 242.622 347.164 242.654 347.325ZM213.199 318.429C212.984 320.29 212.758 322.171 212.532 324.064C212.317 325.946 212.091 327.839 211.887 329.71C211.607 332.302 211.295 334.947 210.994 337.614C210.79 339.367 210.575 341.131 210.371 342.884C210.166 344.647 209.962 346.411 209.758 348.153C209.446 350.831 209.134 353.487 208.822 356.057C208.338 360.047 207.865 363.865 207.381 367.327C207.359 367.478 207.456 367.618 207.617 367.65C207.768 367.672 207.908 367.564 207.94 367.413C208.413 364.499 208.908 361.348 209.392 358.036C209.833 355.014 210.274 351.863 210.682 348.648C210.994 346.164 211.306 343.636 211.586 341.12C212.005 337.302 212.371 333.485 212.726 329.796L213.79 318.494C213.801 318.332 213.683 318.182 213.521 318.171C213.36 318.149 213.22 318.268 213.199 318.429ZM238.643 315.009C238.686 317.526 238.804 320.203 239.019 322.989C239.159 324.72 239.331 326.495 239.535 328.29C239.621 329 239.707 329.699 239.804 330.409C239.944 331.463 240.105 332.517 240.267 333.571C240.686 336.184 241.159 338.819 241.643 341.432C241.675 341.593 241.815 341.69 241.976 341.668C242.127 341.647 242.235 341.496 242.202 341.346C241.89 339.13 241.611 336.915 241.331 334.711C241.138 333.227 240.966 331.743 240.783 330.28C240.664 329.291 240.546 328.312 240.428 327.333C240.245 325.839 240.073 324.355 239.912 322.903C239.621 320.15 239.363 317.483 239.234 314.988C239.223 314.827 239.084 314.697 238.922 314.697C238.761 314.708 238.643 314.848 238.643 315.009ZM257.86 295.91C257.882 295.856 257.882 295.792 257.86 295.738C257.86 295.717 257.376 295.437 257.29 295.803C257.258 295.9 257.204 296.158 257.193 296.211C257.054 297.255 256.989 298.308 256.978 299.373C256.946 300.954 257.01 302.545 257.054 304.083C257.086 305.159 257.129 306.234 257.204 307.299C257.279 308.374 257.365 309.439 257.484 310.503C257.623 311.783 257.785 313.052 257.957 314.332C258.226 316.235 258.527 318.128 258.828 320.042C258.849 320.193 258.989 320.3 259.14 320.279C259.301 320.268 259.409 320.117 259.387 319.967C259.097 317.3 258.839 314.654 258.602 311.998C258.505 310.944 258.419 309.88 258.322 308.815C258.193 307.234 258.054 305.643 257.978 304.051C257.882 302.513 257.763 300.943 257.72 299.373C257.699 298.33 257.709 297.298 257.796 296.276C257.806 296.233 257.839 296.018 257.86 295.921V295.91ZM215.048 299.588C214.898 300.943 214.715 302.416 214.532 303.986C214.414 304.933 214.306 305.911 214.199 306.922C214.156 307.309 214.124 307.707 214.091 308.095C214.038 308.675 213.995 309.267 213.952 309.869C213.844 311.299 213.758 312.783 213.661 314.3C213.64 314.45 213.758 314.59 213.909 314.611C214.059 314.622 214.199 314.515 214.22 314.353C214.436 312.859 214.661 311.385 214.855 309.955C214.93 309.363 215.005 308.783 215.07 308.202C215.124 307.804 215.156 307.406 215.199 307.019C215.285 306.008 215.36 305.019 215.425 304.062C215.522 302.481 215.586 300.997 215.629 299.62C215.64 299.459 215.522 299.319 215.36 299.309C215.199 299.298 215.059 299.427 215.048 299.588ZM242.632 107.802C242.675 107.77 242.697 107.737 242.665 107.716C242.686 107.64 242.675 107.554 242.632 107.479C242.525 107.318 242.385 107.329 242.321 107.339C242.235 107.35 242.138 107.393 242.084 107.533C242.052 107.597 242.052 107.813 242.052 107.813C242.03 108.286 242.019 108.748 242.019 109.221C242.03 109.92 242.052 110.609 242.062 111.308L242.127 113.684C242.192 115.512 242.256 117.341 242.342 119.169C242.428 120.997 242.525 122.814 242.632 124.643C242.848 127.912 243.052 131.213 243.353 134.504C243.665 137.784 244.073 141.064 244.633 144.322C245.375 148.667 246.418 152.958 247.88 157.109C247.934 157.259 248.095 157.335 248.246 157.292C248.386 157.238 248.472 157.076 248.418 156.926C247.063 152.775 246.149 148.506 245.493 144.172C244.998 140.935 244.654 137.676 244.353 134.407C244.052 131.127 243.805 127.836 243.568 124.578C243.428 122.761 243.299 120.943 243.181 119.115C243.063 117.298 242.955 115.48 242.858 113.652L242.74 111.286C242.708 110.598 242.665 109.899 242.643 109.211C242.632 108.748 242.632 108.296 242.643 107.834C242.643 107.834 242.632 107.823 242.632 107.802ZM242.159 107.834C242.181 107.845 242.192 107.856 242.202 107.866C242.213 107.877 242.235 107.888 242.245 107.899C242.213 107.877 242.192 107.856 242.159 107.834ZM242.665 107.716C242.665 107.716 242.654 107.716 242.632 107.705C242.611 107.705 242.622 107.759 242.632 107.802C242.643 107.77 242.665 107.748 242.665 107.716Z" fill="black" fill-opacity="0.5"/>
</svg>
