<svg width="240" height="240" viewBox="0 0 240 240" fill="none" xmlns="http://www.w3.org/2000/svg">
<g filter="url(#filter0_di_529_1303)">
<g clip-path="url(#clip0_529_1303)">
<rect x="6" y="3" width="228" height="228" rx="114" fill="url(#paint0_linear_529_1303)"/>
<mask id="mask0_529_1303" style="mask-type:luminance" maskUnits="userSpaceOnUse" x="30" y="139" width="181" height="157">
<path d="M30 139.691H210.413V295.913H30V139.691Z" fill="white"/>
</mask>
<g mask="url(#mask0_529_1303)">
<path fill-rule="evenodd" clip-rule="evenodd" d="M105.76 140.352C105.76 140.352 74.7956 145.759 60.8574 159.654C45.8426 174.62 30.1523 260.25 30.1523 278.882C30.1523 278.882 56.6045 296.27 120.237 296.27C183.874 296.27 210.326 278.882 210.326 278.882C210.326 260.25 194.631 174.62 179.621 159.654C165.682 145.759 134.718 140.352 134.718 140.352H105.76Z" fill="#333333"/>
</g>
<path fill-rule="evenodd" clip-rule="evenodd" d="M50.8833 171.884C50.668 171.316 50.6924 170.685 50.9567 170.137C53.208 165.448 55.4935 161.817 57.7643 159.654C72.3778 145.759 104.84 140.352 104.84 140.352H135.198C135.198 140.352 167.66 145.759 182.268 159.654C184.524 161.797 186.79 165.389 189.022 170.029C189.183 170.362 189.203 170.743 189.081 171.096C180.663 194.43 152.831 211.579 119.835 211.579C87.2067 211.579 59.6289 194.812 50.8833 171.884Z" fill="#7B2C2C"/>
<path fill-rule="evenodd" clip-rule="evenodd" d="M178.521 156.527C179.872 157.516 181.134 158.558 182.284 159.655C182.906 160.247 183.532 160.952 184.154 161.759C176.221 186.332 150.312 204.45 119.484 204.45C89.0826 204.45 63.4673 186.831 55.1523 162.777C56.0284 161.534 56.9044 160.487 57.7804 159.655C58.6614 158.813 59.6157 158 60.619 157.222C66.6239 180.533 90.7759 197.892 119.484 197.892C148.476 197.892 172.819 180.19 178.521 156.527Z" fill="#333333"/>
<path fill-rule="evenodd" clip-rule="evenodd" d="M134.366 140.483C134.366 141.927 127.925 143.101 119.992 143.101C112.054 143.101 105.613 141.927 105.613 140.483V132.941V132.951C105.638 134.155 112.068 135.129 119.992 135.129C127.925 135.129 134.366 134.15 134.366 132.941V140.483Z" fill="#333333"/>
<path d="M134.366 132.942C134.366 133.088 134.273 133.23 134.092 133.367C133.906 133.509 133.632 133.646 133.274 133.778C132.912 133.911 132.467 134.038 131.943 134.16C131.419 134.278 130.822 134.39 130.157 134.488C129.486 134.591 128.762 134.684 127.979 134.762C127.191 134.84 126.364 134.909 125.493 134.963C124.622 135.021 123.721 135.061 122.796 135.09C121.866 135.119 120.932 135.129 119.992 135.129C119.047 135.129 118.113 135.119 117.183 135.09C116.258 135.061 115.362 135.021 114.486 134.963C113.615 134.909 112.788 134.84 112 134.762C111.217 134.684 110.493 134.591 109.822 134.488C109.157 134.39 108.559 134.278 108.036 134.16C107.512 134.038 107.067 133.911 106.705 133.778C106.347 133.646 106.073 133.509 105.887 133.367C105.706 133.23 105.613 133.088 105.613 132.942C105.613 132.8 105.706 132.658 105.887 132.516C106.073 132.374 106.347 132.237 106.705 132.105C107.067 131.973 107.512 131.845 108.036 131.728C108.559 131.605 109.157 131.498 109.822 131.395C110.493 131.292 111.217 131.204 112 131.121C112.788 131.043 113.615 130.974 114.486 130.92C115.362 130.866 116.258 130.822 117.183 130.798C118.113 130.769 119.047 130.754 119.992 130.754C120.932 130.754 121.866 130.769 122.796 130.798C123.721 130.822 124.622 130.866 125.493 130.92C126.364 130.974 127.191 131.043 127.979 131.121C128.762 131.204 129.486 131.292 130.157 131.395C130.822 131.498 131.419 131.605 131.943 131.728C132.467 131.845 132.912 131.973 133.274 132.105C133.632 132.237 133.906 132.374 134.092 132.516C134.273 132.658 134.366 132.8 134.366 132.942Z" fill="#333333"/>
<path fill-rule="evenodd" clip-rule="evenodd" d="M121.125 198.307C121.125 198.307 132.528 192.209 143.3 172.305C149.417 161 150.421 148.041 151.081 144.551C149.334 144.038 147.592 143.436 147.592 143.436C147.592 143.436 149.187 142.462 155.594 144.551C161.961 146.631 161.217 148.271 161.217 148.271C161.217 148.271 160.4 164.367 153.567 176.955C140.466 201.102 127.316 203.661 127.316 203.661L121.125 198.307Z" fill="#FECBC7"/>
<mask id="mask1_529_1303" style="mask-type:luminance" maskUnits="userSpaceOnUse" x="121" y="143" width="37" height="61">
<path d="M121.078 143.039H157.343V203.857H121.078V143.039Z" fill="white"/>
</mask>
<g mask="url(#mask1_529_1303)">
<mask id="mask2_529_1303" style="mask-type:luminance" maskUnits="userSpaceOnUse" x="121" y="143" width="41" height="61">
<path fill-rule="evenodd" clip-rule="evenodd" d="M121.129 198.307C121.129 198.307 132.532 192.209 143.304 172.305C149.421 161 150.425 148.041 151.085 144.551C149.338 144.038 147.596 143.436 147.596 143.436C147.596 143.436 149.191 142.462 155.597 144.551C161.965 146.631 161.221 148.271 161.221 148.271C161.221 148.271 160.403 164.367 153.571 176.955C140.47 201.102 127.32 203.661 127.32 203.661L121.129 198.307Z" fill="white"/>
</mask>
<g mask="url(#mask2_529_1303)">
<path fill-rule="evenodd" clip-rule="evenodd" d="M122.167 204.272C135.371 194.533 144.518 184.99 150.395 171.292C156.929 156.061 157.002 143.215 157.002 143.215C157.007 142.794 156.669 142.456 156.253 142.451C155.833 142.451 155.495 142.784 155.49 143.205C155.49 143.205 155.402 155.778 149.005 170.695C143.235 184.143 134.23 193.491 121.266 203.054C120.933 203.299 120.86 203.773 121.109 204.111C121.354 204.449 121.829 204.517 122.167 204.272Z" fill="#7B2C2C"/>
</g>
</g>
<path fill-rule="evenodd" clip-rule="evenodd" d="M118.982 198.307C118.982 198.307 107.579 192.209 96.8119 172.305C90.6943 161 89.6862 148.041 89.0304 144.551C90.7775 144.038 92.5198 143.436 92.5198 143.436C92.5198 143.436 90.9244 142.462 84.5132 144.551C78.1461 146.631 78.89 148.271 78.89 148.271C78.89 148.271 79.7073 164.367 86.5393 176.955C99.6406 201.102 112.791 203.661 112.791 203.661L118.982 198.307Z" fill="#FECBC7"/>
<mask id="mask3_529_1303" style="mask-type:luminance" maskUnits="userSpaceOnUse" x="82" y="143" width="37" height="61">
<path d="M82.1719 143.039H118.505V203.857H82.1719V143.039Z" fill="white"/>
</mask>
<g mask="url(#mask3_529_1303)">
<mask id="mask4_529_1303" style="mask-type:luminance" maskUnits="userSpaceOnUse" x="78" y="143" width="41" height="61">
<path fill-rule="evenodd" clip-rule="evenodd" d="M118.986 198.307C118.986 198.307 107.583 192.209 96.8158 172.305C90.6983 161 89.6901 148.041 89.0343 144.551C90.7815 144.038 92.5237 143.436 92.5237 143.436C92.5237 143.436 90.9283 142.462 84.5171 144.551C78.15 146.631 78.8939 148.271 78.8939 148.271C78.8939 148.271 79.7112 164.367 86.5432 176.955C99.6445 201.102 112.795 203.661 112.795 203.661L118.986 198.307Z" fill="white"/>
</mask>
<g mask="url(#mask4_529_1303)">
<path fill-rule="evenodd" clip-rule="evenodd" d="M118.057 203.054C105.093 193.491 96.0882 184.143 90.3181 170.695C83.9216 155.778 83.8336 143.205 83.8336 143.205C83.8287 142.784 83.4861 142.451 83.0701 142.451C82.6541 142.456 82.3164 142.794 82.3164 143.215C82.3164 143.215 82.3947 156.061 88.9282 171.292C94.8059 184.99 103.953 194.533 117.157 204.272C117.495 204.517 117.969 204.449 118.214 204.111C118.464 203.773 118.39 203.299 118.057 203.054Z" fill="#7B2C2C"/>
</g>
</g>
<path fill-rule="evenodd" clip-rule="evenodd" d="M116.097 195.865C116.846 195.337 117.884 194.965 118.985 194.965C120.086 194.965 121.123 195.337 121.872 195.865C122.783 195.777 123.864 195.978 124.818 196.531C125.773 197.084 126.487 197.921 126.874 198.753C127.706 199.135 128.543 199.849 129.091 200.803C129.644 201.758 129.845 202.839 129.761 203.75C130.29 204.498 130.657 205.536 130.657 206.637C130.657 207.743 130.29 208.781 129.761 209.525C129.845 210.44 129.644 211.521 129.091 212.476C128.543 213.43 127.706 214.145 126.874 214.526C126.487 215.358 125.773 216.195 124.818 216.748C123.864 217.296 122.783 217.497 121.872 217.414C121.123 217.942 120.086 218.309 118.985 218.309C117.884 218.309 116.846 217.942 116.097 217.414C115.187 217.497 114.101 217.296 113.146 216.748C112.192 216.195 111.477 215.358 111.096 214.526C110.264 214.145 109.427 213.43 108.874 212.476C108.326 211.521 108.125 210.44 108.208 209.525C107.68 208.781 107.312 207.743 107.312 206.637C107.312 205.536 107.68 204.498 108.208 203.75C108.125 202.839 108.326 201.758 108.874 200.803C109.427 199.849 110.264 199.135 111.096 198.753C111.477 197.921 112.192 197.084 113.146 196.531C114.101 195.978 115.187 195.777 116.097 195.865Z" fill="#7B2C2C"/>
<path fill-rule="evenodd" clip-rule="evenodd" d="M116.784 198.438C116.446 198.423 116.084 198.453 115.722 198.541C115.33 198.629 114.934 198.776 114.567 198.991C114.195 199.201 113.872 199.471 113.598 199.764C113.343 200.038 113.133 200.337 112.976 200.635C112.678 200.792 112.379 200.998 112.105 201.252C111.811 201.526 111.547 201.854 111.332 202.221C111.121 202.593 110.97 202.985 110.882 203.376C110.798 203.738 110.764 204.1 110.779 204.438C110.598 204.727 110.446 205.055 110.338 205.412C110.216 205.794 110.152 206.21 110.152 206.635C110.152 207.066 110.216 207.482 110.338 207.864C110.446 208.221 110.598 208.549 110.779 208.833C110.764 209.171 110.798 209.533 110.882 209.9C110.97 210.291 111.121 210.683 111.332 211.055C111.547 211.422 111.811 211.75 112.105 212.019C112.379 212.273 112.678 212.484 112.976 212.64C113.133 212.939 113.343 213.237 113.598 213.512C113.872 213.805 114.195 214.069 114.567 214.285C114.934 214.5 115.33 214.647 115.722 214.735C116.084 214.818 116.446 214.853 116.784 214.838C117.068 215.019 117.4 215.171 117.753 215.283C118.139 215.401 118.555 215.469 118.981 215.469C119.407 215.469 119.823 215.401 120.205 215.283C120.562 215.171 120.89 215.019 121.179 214.838C121.516 214.853 121.878 214.818 122.241 214.735C122.632 214.647 123.024 214.5 123.396 214.285C123.768 214.069 124.091 213.805 124.365 213.512C124.619 213.237 124.825 212.939 124.986 212.64C125.285 212.484 125.578 212.273 125.852 212.019C126.146 211.75 126.415 211.422 126.626 211.055C126.841 210.683 126.993 210.291 127.081 209.9C127.164 209.533 127.193 209.171 127.179 208.833C127.365 208.549 127.516 208.221 127.624 207.864C127.741 207.482 127.81 207.066 127.81 206.635C127.81 206.21 127.741 205.794 127.624 205.412C127.516 205.055 127.36 204.727 127.179 204.438C127.193 204.1 127.164 203.738 127.081 203.376C126.993 202.985 126.841 202.593 126.626 202.221C126.415 201.854 126.146 201.526 125.852 201.252C125.578 200.998 125.285 200.792 124.981 200.635C124.825 200.337 124.619 200.038 124.365 199.764C124.091 199.471 123.768 199.201 123.396 198.991C123.024 198.776 122.632 198.629 122.241 198.541C121.878 198.453 121.516 198.423 121.179 198.438C120.89 198.257 120.562 198.1 120.205 197.993C119.823 197.875 119.407 197.807 118.981 197.807C118.555 197.807 118.139 197.875 117.753 197.993C117.4 198.1 117.068 198.257 116.784 198.438ZM116.872 199.436C116.989 199.451 117.107 199.417 117.205 199.348C117.444 199.182 117.733 199.04 118.046 198.942C118.34 198.854 118.653 198.8 118.981 198.8C119.304 198.8 119.622 198.854 119.916 198.942C120.229 199.04 120.518 199.182 120.758 199.348C120.851 199.417 120.968 199.451 121.086 199.436C121.379 199.412 121.697 199.431 122.02 199.505C122.319 199.573 122.617 199.686 122.901 199.852C123.18 200.014 123.43 200.214 123.635 200.44C123.86 200.679 124.042 200.949 124.164 201.213C124.213 201.321 124.296 201.409 124.404 201.458C124.673 201.58 124.937 201.756 125.177 201.981C125.402 202.192 125.608 202.436 125.769 202.72C125.931 202.999 126.043 203.303 126.112 203.596C126.185 203.919 126.205 204.237 126.18 204.531C126.17 204.648 126.2 204.766 126.268 204.864C126.44 205.104 126.577 205.387 126.675 205.706C126.768 205.994 126.816 206.312 126.816 206.635C126.816 206.963 126.768 207.277 126.675 207.57C126.577 207.888 126.44 208.172 126.268 208.412C126.2 208.51 126.17 208.627 126.18 208.745C126.205 209.034 126.185 209.357 126.112 209.675C126.043 209.973 125.931 210.277 125.769 210.556C125.608 210.839 125.402 211.084 125.177 211.295C124.937 211.52 124.673 211.696 124.404 211.818C124.296 211.867 124.213 211.955 124.164 212.063C124.042 212.327 123.86 212.591 123.635 212.836C123.43 213.061 123.18 213.262 122.901 213.423C122.617 213.59 122.319 213.702 122.02 213.771C121.697 213.844 121.379 213.864 121.086 213.835C120.968 213.825 120.851 213.859 120.758 213.928C120.518 214.094 120.229 214.236 119.916 214.334C119.622 214.422 119.304 214.476 118.981 214.476C118.653 214.476 118.34 214.422 118.046 214.334C117.733 214.236 117.444 214.094 117.205 213.928C117.107 213.859 116.989 213.825 116.872 213.835C116.583 213.864 116.265 213.844 115.942 213.771C115.643 213.702 115.345 213.59 115.061 213.423C114.782 213.262 114.532 213.061 114.327 212.836C114.102 212.591 113.921 212.327 113.798 212.063C113.749 211.955 113.661 211.867 113.554 211.818C113.289 211.696 113.025 211.52 112.78 211.295C112.56 211.084 112.355 210.839 112.193 210.556C112.032 210.277 111.919 209.973 111.851 209.675C111.777 209.357 111.753 209.034 111.782 208.745C111.792 208.627 111.762 208.51 111.694 208.412C111.523 208.172 111.381 207.888 111.283 207.57C111.195 207.277 111.141 206.963 111.141 206.635C111.141 206.312 111.195 205.994 111.283 205.706C111.381 205.387 111.523 205.104 111.694 204.864C111.762 204.766 111.792 204.648 111.782 204.531C111.753 204.237 111.777 203.919 111.851 203.596C111.919 203.303 112.032 202.999 112.193 202.72C112.355 202.436 112.56 202.192 112.78 201.981C113.025 201.756 113.289 201.58 113.554 201.458C113.661 201.409 113.749 201.321 113.798 201.213C113.921 200.949 114.102 200.679 114.327 200.44C114.532 200.214 114.782 200.014 115.061 199.852C115.345 199.686 115.643 199.573 115.942 199.505C116.265 199.431 116.583 199.412 116.872 199.436Z" fill="#333333"/>
<path fill-rule="evenodd" clip-rule="evenodd" d="M58.5362 223.099C58.5362 223.099 58.0517 229.339 57.0141 238.476C56.7156 241.124 56.3681 244.006 56.0011 247.06C55.7808 248.91 55.541 250.819 55.3306 252.771C55.032 255.561 54.7482 258.439 54.435 261.356C53.97 265.623 53.5002 269.959 52.8248 274.207C52.7368 274.643 53.0157 275.069 53.4464 275.157C53.882 275.25 54.3077 274.971 54.3958 274.535C55.0565 272.039 55.683 269.514 56.236 266.964C56.789 264.409 57.2882 261.85 57.714 259.315C58.0614 257.235 58.3698 255.174 58.6145 253.153C58.7858 251.753 58.9179 250.373 59.0305 249.023C59.3339 245.318 59.5101 241.824 59.6129 238.667C59.9163 229.417 59.6471 223.119 59.6471 223.119C59.652 222.81 59.4073 222.556 59.099 222.551C58.7955 222.546 58.5411 222.791 58.5362 223.099Z" fill="#FECBC7" fill-opacity="0.15"/>
<path fill-rule="evenodd" clip-rule="evenodd" d="M182.453 258.39C182.453 258.39 181.577 252.195 180.613 243.048C180.329 240.4 180.045 237.508 179.742 234.449C179.556 232.594 179.375 230.681 179.16 228.728C178.851 225.938 178.499 223.065 178.181 220.153C177.706 215.886 177.226 211.55 176.967 207.258C176.957 206.812 176.595 206.46 176.155 206.465C175.709 206.47 175.357 206.832 175.362 207.277C175.254 209.861 175.191 212.46 175.205 215.069C175.215 217.682 175.284 220.286 175.421 222.855C175.528 224.964 175.675 227.039 175.871 229.07C176.008 230.47 176.174 231.845 176.36 233.191C176.864 236.871 177.452 240.322 178.034 243.425C179.737 252.523 181.367 258.616 181.367 258.616C181.43 258.914 181.719 259.105 182.023 259.046C182.321 258.988 182.517 258.694 182.453 258.39Z" fill="#FECBC7" fill-opacity="0.15"/>
<path fill-rule="evenodd" clip-rule="evenodd" d="M110.34 122.185C110.56 122.151 110.301 122.772 110.34 123.022C110.487 123.952 110.678 124.593 110.918 125.826C110.976 126.115 111.074 126.976 111.26 127.206C111.353 127.319 111.828 126.585 112.063 126.683C112.459 126.844 112.337 127.887 112.621 128.244C112.905 128.596 113.257 127.833 113.541 128.048C113.874 128.298 113.575 129.301 114.006 129.57C114.201 129.693 115.043 129.232 115.058 129.306C115.107 129.526 115.087 129.761 115.102 129.991C115.166 131.097 115.64 130.348 116.409 130.617C116.785 130.755 116.624 131.684 117.084 131.826C117.451 131.944 117.857 131.259 118.18 131.459C118.567 131.699 118.469 132.365 118.983 132.365C119.272 132.365 119.511 131.714 119.869 131.88C120.466 132.159 120.363 132.844 121.126 132.751C121.518 132.702 122.105 131.807 122.399 131.88C122.991 132.027 123.339 132.707 123.96 131.934C124.185 131.655 124.273 130.999 124.552 130.828C124.846 130.647 125.326 131.401 125.732 130.936C126.128 130.48 126.04 129.658 126.407 129.203C126.495 129.095 127.004 129.247 127.21 129.042C127.489 128.768 127.562 128.342 127.802 128.048C127.919 127.896 128.233 128.048 128.433 127.838C129.001 127.231 129.52 126.046 129.828 125.21C130.156 124.304 131.262 124.064 131.487 123.022C131.536 122.812 131.394 121.593 131.218 121.378C130.934 121.025 130.273 120.952 129.911 120.854C128.575 120.482 127.205 120.878 125.859 120.957C123.094 121.113 120.25 120.849 117.505 121.113C115.469 121.309 113.497 122.165 111.471 122.165L110.34 122.185Z" fill="black"/>
<path fill-rule="evenodd" clip-rule="evenodd" d="M92.6631 52.7546C87.3776 65.3469 85.2781 74.3862 85.2781 88.0748C85.2781 94.3685 84.9942 103.207 95.7121 114.434C101.614 120.615 112.009 126.791 120.652 126.791C127.127 126.791 113.355 126.791 119.835 126.791C128.478 126.791 138.872 120.61 144.77 114.434C155.493 103.202 155.209 94.3685 155.209 88.0699C155.209 74.3813 153.104 65.3469 147.824 52.7546C144.667 45.2276 95.8198 45.2276 92.6631 52.7546Z" fill="#FECBC7"/>
<path fill-rule="evenodd" clip-rule="evenodd" d="M86.3114 79.4561C86.3114 79.4561 82.5235 73.4805 79.2641 73.4805C76.4157 73.4805 73.6555 78.7905 73.4402 82.3093C73.1857 86.5426 73.5625 96.8984 77.7322 98.8706C81.8285 100.809 86.3114 95.0974 86.3114 95.0974V79.4561ZM154.05 79.4561C154.05 79.4561 157.838 73.4805 161.092 73.4805C163.945 73.4805 166.706 78.7905 166.916 82.3093C167.17 86.5426 166.799 96.8984 162.629 98.8706C158.528 100.809 154.05 95.0974 154.05 95.0974V79.4561Z" fill="#FECBC7"/>
<path fill-rule="evenodd" clip-rule="evenodd" d="M79.3894 73.4847C77.5786 70.196 76.0713 66.3101 75.391 61.8614C74.4464 55.6803 74.3241 48.1631 78.7776 45.5839C79.3943 45.2267 78.4987 42.9999 80.8723 39.4811C83.9262 34.9541 87.719 33.1629 89.5249 30.7795C94.1498 24.6865 101.055 17.9474 114.597 20.2035C116.32 20.4874 122.398 15.9066 130.718 17.9082C142.189 20.6734 146.516 24.6277 148.307 26.3406C152.951 30.7795 160.175 34.9737 162.348 39.4811C164.173 43.2593 169.268 51.5253 167.966 60.0604C167.33 64.2253 163.826 69.6038 162.7 74.0133C162.177 73.6756 161.638 73.4798 161.09 73.4798C158.707 73.4798 156.04 76.6805 154.782 78.3983C153.93 69.5597 151.762 62.1453 147.823 52.7537C144.666 45.2267 95.8186 45.2267 92.662 52.7537C88.6978 62.1991 86.5249 69.6429 85.688 78.5549C84.5037 76.9154 81.8168 73.5973 79.3894 73.4847Z" fill="black"/>
<mask id="mask5_529_1303" style="mask-type:luminance" maskUnits="userSpaceOnUse" x="79" y="53" width="11" height="26">
<path d="M79.6641 53.2422H89.687V78.6568H79.6641V53.2422Z" fill="white"/>
</mask>
<g mask="url(#mask5_529_1303)">
<mask id="mask6_529_1303" style="mask-type:luminance" maskUnits="userSpaceOnUse" x="74" y="17" width="95" height="62">
<path fill-rule="evenodd" clip-rule="evenodd" d="M79.3894 73.4847C77.5786 70.196 76.0713 66.3101 75.391 61.8614C74.4464 55.6803 74.3241 48.1631 78.7776 45.5839C79.3943 45.2267 78.4987 42.9999 80.8723 39.4811C83.9262 34.9541 87.719 33.1629 89.5249 30.7795C94.1498 24.6865 101.055 17.9474 114.597 20.2035C116.32 20.4874 122.398 15.9066 130.718 17.9082C142.189 20.6734 146.516 24.6277 148.307 26.3406C152.951 30.7795 160.175 34.9737 162.348 39.4811C164.173 43.2593 169.268 51.5253 167.966 60.0604C167.33 64.2253 163.826 69.6038 162.7 74.0133C162.177 73.6756 161.638 73.4798 161.09 73.4798C158.707 73.4798 156.04 76.6805 154.782 78.3983C153.93 69.5597 151.762 62.1453 147.823 52.7537C144.666 45.2267 95.8186 45.2267 92.662 52.7537C88.6978 62.1991 86.5249 69.6429 85.688 78.5549C84.5037 76.9154 81.8168 73.5973 79.3894 73.4847Z" fill="white"/>
</mask>
<g mask="url(#mask6_529_1303)">
<path fill-rule="evenodd" clip-rule="evenodd" d="M80.3555 54.3828C80.3555 54.3828 82.8661 66.706 84.8237 70.3912C85.4453 71.5608 86.8596 74.7762 88.4453 75.7061L86.0619 87.3049C86.0619 87.3049 82.7682 75.8822 81.8188 70.3912C80.9183 65.2035 80.3555 54.3828 80.3555 54.3828Z" fill="#333333" fill-opacity="0.22"/>
</g>
</g>
<mask id="mask7_529_1303" style="mask-type:luminance" maskUnits="userSpaceOnUse" x="151" y="53" width="9" height="26">
<path d="M151.078 53.2422H159.848V78.6568H151.078V53.2422Z" fill="white"/>
</mask>
<g mask="url(#mask7_529_1303)">
<mask id="mask8_529_1303" style="mask-type:luminance" maskUnits="userSpaceOnUse" x="74" y="17" width="95" height="62">
<path fill-rule="evenodd" clip-rule="evenodd" d="M79.3894 73.4847C77.5786 70.196 76.0713 66.3101 75.391 61.8614C74.4464 55.6803 74.3241 48.1631 78.7776 45.5839C79.3943 45.2267 78.4987 42.9999 80.8723 39.4811C83.9262 34.9541 87.719 33.1629 89.5249 30.7795C94.1498 24.6865 101.055 17.9474 114.597 20.2035C116.32 20.4874 122.398 15.9066 130.718 17.9082C142.189 20.6734 146.516 24.6277 148.307 26.3406C152.951 30.7795 160.175 34.9737 162.348 39.4811C164.173 43.2593 169.268 51.5253 167.966 60.0604C167.33 64.2253 163.826 69.6038 162.7 74.0133C162.177 73.6756 161.638 73.4798 161.09 73.4798C158.707 73.4798 156.04 76.6805 154.782 78.3983C153.93 69.5597 151.762 62.1453 147.823 52.7537C144.666 45.2267 95.8186 45.2267 92.662 52.7537C88.6978 62.1991 86.5249 69.6429 85.688 78.5549C84.5037 76.9154 81.8168 73.5973 79.3894 73.4847Z" fill="white"/>
</mask>
<g mask="url(#mask8_529_1303)">
<path fill-rule="evenodd" clip-rule="evenodd" d="M158.859 53.8984C158.859 53.8984 154.048 66.0356 152.091 67.7975C151.469 68.3554 154.606 73.7241 153.015 74.1695L153.931 79.6997C153.931 79.6997 156.715 77.2087 157.312 75.7111C158.859 71.8448 159.06 63.4711 159.06 58.0681C159.06 56.9425 158.859 53.8984 158.859 53.8984Z" fill="#333333" fill-opacity="0.22"/>
</g>
</g>
<mask id="mask9_529_1303" style="mask-type:luminance" maskUnits="userSpaceOnUse" x="104" y="39" width="26" height="13">
<path d="M104.723 39.4609H129.78V51.9896H104.723V39.4609Z" fill="white"/>
</mask>
<g mask="url(#mask9_529_1303)">
<mask id="mask10_529_1303" style="mask-type:luminance" maskUnits="userSpaceOnUse" x="74" y="17" width="95" height="62">
<path fill-rule="evenodd" clip-rule="evenodd" d="M79.3894 73.4847C77.5786 70.196 76.0713 66.3101 75.391 61.8614C74.4464 55.6803 74.3241 48.1631 78.7776 45.5839C79.3943 45.2267 78.4987 42.9999 80.8723 39.4811C83.9262 34.9541 87.719 33.1629 89.5249 30.7795C94.1498 24.6865 101.055 17.9474 114.597 20.2035C116.32 20.4874 122.398 15.9066 130.718 17.9082C142.189 20.6734 146.516 24.6277 148.307 26.3406C152.951 30.7795 160.175 34.9737 162.348 39.4811C164.173 43.2593 169.268 51.5253 167.966 60.0604C167.33 64.2253 163.826 69.6038 162.7 74.0133C162.177 73.6756 161.638 73.4798 161.09 73.4798C158.707 73.4798 156.04 76.6805 154.782 78.3983C153.93 69.5597 151.762 62.1453 147.823 52.7537C144.666 45.2267 95.8186 45.2267 92.662 52.7537C88.6978 62.1991 86.5249 69.6429 85.688 78.5549C84.5037 76.9154 81.8168 73.5973 79.3894 73.4847Z" fill="white"/>
</mask>
<g mask="url(#mask10_529_1303)">
<path fill-rule="evenodd" clip-rule="evenodd" d="M128.544 43.8751C128.011 40.9191 123.259 39.2503 117.479 40.0969C113.784 40.6353 107.583 43.4151 105.958 47.9323C104.838 51.0644 115.33 51.0595 118.771 50.4429C127.252 48.9257 129.508 49.1949 128.544 43.8751Z" fill="#333333" fill-opacity="0.22"/>
</g>
</g>
<path fill-rule="evenodd" clip-rule="evenodd" d="M115.653 42.0513C105.538 45.4527 106.766 55.9454 108.219 67.2164C108.415 68.7237 106.164 69.1593 105.719 69.3697C99.606 72.2719 97.2569 71.1414 96.9094 71.4154C96.3123 71.8853 94.9273 72.8592 92.6809 72.8592C91.57 72.8592 90.3514 73.7499 89.3922 73.8233C86.9256 74.0191 85.3106 73.1969 85.3106 73.1969C85.3106 73.1969 84.9827 72.0566 84.596 70.2849C83.5291 65.4398 81.9875 55.8573 85.3106 51.8442C91.0415 44.9192 108.058 32.3416 119.711 31.6515C131.363 30.9615 148.923 41.464 155.236 47.6941C160.331 52.7154 158.227 64.6862 157.59 69.0223C157.532 69.3991 157.326 69.7368 157.018 69.957C156.705 70.1772 156.323 70.2653 155.946 70.2017C154.463 69.9521 151.962 69.7906 149.212 70.696C145.409 71.9489 142.668 70.3828 142.223 70.5003C138.9 71.3469 134.804 70.8722 133.081 69.3697C132.097 68.5133 128.985 68.1903 128.084 67.2164C122.211 60.9227 128.515 49.1085 126.856 44.9877C125.745 42.2471 121.551 40.0692 115.653 42.0513Z" fill="black"/>
<mask id="mask11_529_1303" style="mask-type:luminance" maskUnits="userSpaceOnUse" x="94" y="53" width="15" height="21">
<path d="M94.6992 53.2422H108.481V73.2881H94.6992V53.2422Z" fill="white"/>
</mask>
<g mask="url(#mask11_529_1303)">
<mask id="mask12_529_1303" style="mask-type:luminance" maskUnits="userSpaceOnUse" x="83" y="31" width="76" height="43">
<path fill-rule="evenodd" clip-rule="evenodd" d="M115.653 42.0494C105.538 45.4507 106.766 55.9435 108.219 67.2144C108.415 68.7218 106.164 69.1573 105.719 69.3678C99.606 72.2699 97.2569 71.1394 96.9094 71.4135C96.3123 71.8833 94.9273 72.8572 92.6809 72.8572C91.57 72.8572 90.3514 73.7479 89.3922 73.8213C86.9256 74.0171 85.3106 73.1949 85.3106 73.1949C85.3106 73.1949 84.9827 72.0546 84.596 70.283C83.5291 65.4379 81.9875 55.8554 85.3106 51.8423C91.0415 44.9173 108.058 32.3396 119.711 31.6496C131.363 30.9595 148.923 41.4621 155.236 47.6922C160.331 52.7134 158.227 64.6842 157.59 69.0203C157.532 69.3971 157.326 69.7348 157.018 69.9551C156.705 70.1753 156.323 70.2634 155.946 70.1998C154.463 69.9502 151.962 69.7887 149.212 70.6941C145.409 71.9469 142.668 70.3808 142.223 70.4983C138.9 71.345 134.804 70.8702 133.081 69.3678C132.097 68.5113 128.985 68.1883 128.084 67.2144C122.211 60.9207 128.515 49.1065 126.856 44.9858C125.745 42.2451 121.551 40.0673 115.653 42.0494Z" fill="white"/>
</mask>
<g mask="url(#mask12_529_1303)">
<path fill-rule="evenodd" clip-rule="evenodd" d="M94.7668 60.2902C94.7228 61.3816 94.7668 62.4925 94.8794 63.5888C94.9283 64.0586 94.992 64.5284 95.0703 64.9885C95.2024 65.7813 95.359 66.5594 95.5499 67.2984C95.6282 67.6117 95.7163 67.9102 95.8093 68.2087C95.9512 68.6737 96.1078 69.119 96.2595 69.5497C96.4406 70.044 96.6315 70.5579 96.8957 71.0962C97.116 71.5562 97.39 72.0359 97.7473 72.5448C97.7816 72.5987 97.8599 72.6182 97.9137 72.584C97.9724 72.5448 97.9871 72.4714 97.9528 72.4127C97.6592 71.889 97.4488 71.3996 97.2726 70.9347C97.0719 70.3866 96.9251 69.8727 96.7881 69.3784C96.6657 68.9624 96.5532 68.5317 96.4357 68.0864C96.3623 67.8025 96.2889 67.5138 96.2155 67.225C96.0784 66.6965 95.9365 66.1581 95.8093 65.6051C95.682 65.0668 95.5646 64.5235 95.4569 63.9754C95.222 62.7568 95.0458 61.5186 94.9969 60.2902C94.9969 60.2266 94.9479 60.1727 94.8843 60.1727C94.8207 60.1727 94.7668 60.2266 94.7668 60.2902ZM103.801 54.5153C103.601 55.6947 103.576 57.251 103.679 58.9199C103.738 59.8742 103.84 60.8628 103.977 61.8416C104.08 62.5806 104.207 63.3098 104.349 64.0146C104.447 64.5088 104.555 64.9885 104.672 65.4436C104.8 65.9477 104.937 66.4224 105.074 66.8629C105.343 67.7095 105.622 68.4192 105.886 68.9379C106.253 69.6476 106.571 70.2495 106.884 70.7438C107.173 71.2088 107.452 71.5758 107.741 71.845C107.79 71.8939 107.868 71.8939 107.912 71.845C107.961 71.8009 107.961 71.7226 107.912 71.6737C107.658 71.3996 107.423 71.0277 107.183 70.5725C106.914 70.0636 106.635 69.4518 106.322 68.7324C106.096 68.2185 105.871 67.5187 105.651 66.6965C105.475 66.0554 105.309 65.3408 105.147 64.5872C105.025 64.039 104.902 63.4664 104.79 62.884C104.628 62.0423 104.477 61.176 104.349 60.3147C104.031 58.1564 103.865 56.0569 104.031 54.5495C104.041 54.4859 103.997 54.4272 103.933 54.4174C103.87 54.4076 103.811 54.4516 103.801 54.5153ZM103.273 60.9949C103.209 61.7193 103.258 62.6638 103.395 63.672C103.473 64.2495 103.576 64.8465 103.703 65.4338C103.796 65.8743 103.904 66.3147 104.021 66.7307C104.105 67.0293 104.198 67.3131 104.291 67.5823C104.393 67.8808 104.501 68.1647 104.609 68.4241C104.819 68.9281 105.03 69.3441 105.216 69.6476C105.475 70.0489 105.695 70.3915 105.906 70.6704C106.106 70.9396 106.297 71.15 106.483 71.2969C106.532 71.3409 106.61 71.336 106.654 71.2871C106.698 71.2381 106.694 71.1598 106.645 71.1158C106.488 70.9592 106.346 70.7487 106.194 70.4796C106.018 70.1859 105.842 69.8286 105.636 69.4127C105.485 69.1141 105.333 68.6981 105.167 68.2136C105.039 67.8368 104.912 67.411 104.78 66.9656C104.682 66.6426 104.579 66.305 104.481 65.9624C104.34 65.4632 104.198 64.9493 104.07 64.4403C103.752 63.163 103.512 61.9199 103.503 61.0047C103.503 60.9362 103.454 60.8824 103.39 60.8824C103.326 60.8824 103.273 60.9313 103.273 60.9949Z" fill="#333333" fill-opacity="0.2"/>
</g>
</g>
<mask id="mask13_529_1303" style="mask-type:luminance" maskUnits="userSpaceOnUse" x="129" y="53" width="18" height="20">
<path d="M129.781 53.2422H146.069V72.0352H129.781V53.2422Z" fill="white"/>
</mask>
<g mask="url(#mask13_529_1303)">
<mask id="mask14_529_1303" style="mask-type:luminance" maskUnits="userSpaceOnUse" x="83" y="31" width="76" height="43">
<path fill-rule="evenodd" clip-rule="evenodd" d="M115.657 42.0496C105.541 45.4509 106.77 55.9437 108.223 67.2147C108.419 68.722 106.168 69.1576 105.723 69.368C99.6099 72.2702 97.2608 71.1397 96.9133 71.4137C96.3162 71.8836 94.9312 72.8575 92.6849 72.8575C91.5739 72.8575 90.3553 73.7482 89.3961 73.8216C86.9295 74.0173 85.3145 73.1952 85.3145 73.1952C85.3145 73.1952 84.9866 72.0548 84.5999 70.2832C83.533 65.4381 81.9914 55.8556 85.3145 51.8425C91.0454 44.9175 108.062 32.3399 119.715 31.6498C131.367 30.9598 148.927 41.4623 155.24 47.6924C160.335 52.7137 158.23 64.6844 157.594 69.0205C157.536 69.3974 157.33 69.7351 157.022 69.9553C156.708 70.1755 156.327 70.2636 155.95 70.2C154.467 69.9504 151.966 69.7889 149.216 70.6943C145.413 71.9472 142.672 70.3811 142.227 70.4985C138.904 71.3452 134.808 70.8705 133.085 69.368C132.101 68.5116 128.989 68.1886 128.088 67.2147C122.215 60.9209 128.519 49.1068 126.86 44.986C125.749 42.2454 121.555 40.0675 115.657 42.0496Z" fill="white"/>
</mask>
<g mask="url(#mask14_529_1303)">
<path fill-rule="evenodd" clip-rule="evenodd" d="M144.718 59.2378C144.669 60.4662 144.483 61.7093 144.223 62.9279C144.106 63.481 143.974 64.0242 143.832 64.5576C143.69 65.1058 143.533 65.6441 143.377 66.1727C143.294 66.4614 143.21 66.7502 143.127 67.0291C142.995 67.4696 142.863 67.9003 142.731 68.3114C142.574 68.8105 142.403 69.3293 142.168 69.8823C141.972 70.3424 141.732 70.8318 141.404 71.3554C141.365 71.4093 141.375 71.4827 141.434 71.5218C141.488 71.561 141.561 71.5512 141.6 71.4925C141.997 70.9933 142.295 70.5186 142.545 70.0634C142.838 69.5153 143.049 69.0014 143.254 68.5022C143.421 68.0764 143.592 67.6311 143.754 67.1711C143.851 66.8774 143.949 66.574 144.037 66.2657C144.253 65.5267 144.434 64.7485 144.586 63.9557C144.674 63.4956 144.747 63.0209 144.806 62.5511C144.938 61.4499 144.997 60.3341 144.953 59.2378C144.953 59.1693 144.899 59.1204 144.835 59.1204C144.772 59.1204 144.718 59.1693 144.718 59.2378ZM134.572 53.4972C134.724 54.6717 134.646 56.2036 134.44 57.8382C134.328 58.7778 134.161 59.7517 133.975 60.7109C133.833 61.4402 133.677 62.1547 133.515 62.8447C133.398 63.3292 133.28 63.804 133.163 64.2542C133.001 64.8806 132.835 65.4679 132.664 65.9965C132.448 66.6621 132.233 67.2347 132.018 67.6653C131.656 68.3897 131.342 69.0112 131.034 69.5202C130.76 69.9753 130.501 70.3424 130.212 70.6164C130.163 70.6605 130.158 70.7388 130.202 70.7877C130.246 70.8367 130.324 70.8416 130.373 70.7975C130.696 70.5283 131.005 70.1662 131.328 69.711C131.675 69.2168 132.032 68.6099 132.444 67.8954C132.737 67.3815 133.045 66.6768 133.344 65.8399C133.496 65.4043 133.647 64.9296 133.789 64.4255C133.922 63.9704 134.044 63.4907 134.156 62.9965C134.313 62.2917 134.455 61.5576 134.572 60.8186C134.729 59.8398 134.851 58.8463 134.92 57.8871C135.047 56.2084 135.023 54.6473 134.802 53.458C134.793 53.3944 134.734 53.3552 134.67 53.365C134.607 53.3748 134.563 53.4335 134.572 53.4972ZM135.165 59.9475C135.165 60.8676 134.9 62.1204 134.543 63.4027C134.401 63.9116 134.245 64.4206 134.088 64.9198C133.975 65.2624 133.863 65.6001 133.75 65.9231C133.603 66.3684 133.457 66.7844 133.31 67.1613C133.129 67.6409 132.957 68.0471 132.786 68.3456C132.551 68.7665 132.346 69.1287 132.15 69.4272C131.974 69.6915 131.812 69.9019 131.641 70.0536C131.587 70.0977 131.577 70.176 131.621 70.2249C131.66 70.2788 131.739 70.2885 131.788 70.2445C131.998 70.1026 132.204 69.897 132.424 69.6327C132.659 69.3538 132.908 69.0112 133.197 68.605C133.403 68.3065 133.633 67.8905 133.863 67.3962C133.985 67.1368 134.103 66.8578 134.22 66.5642C134.323 66.2901 134.426 66.0063 134.519 65.7126C134.651 65.2917 134.773 64.8513 134.881 64.4108C135.028 63.8186 135.15 63.2216 135.238 62.6441C135.4 61.6261 135.463 60.6718 135.4 59.9377C135.395 59.8741 135.341 59.8251 135.277 59.83C135.214 59.83 135.165 59.8839 135.165 59.9475Z" fill="#333333" fill-opacity="0.2"/>
</g>
</g>
</g>
</g>
<defs>
<filter id="filter0_di_529_1303" x="0" y="0" width="245" height="241" filterUnits="userSpaceOnUse" color-interpolation-filters="sRGB">
<feFlood flood-opacity="0" result="BackgroundImageFix"/>
<feColorMatrix in="SourceAlpha" type="matrix" values="0 0 0 0 0 0 0 0 0 0 0 0 0 0 0 0 0 0 127 0" result="hardAlpha"/>
<feMorphology radius="2" operator="dilate" in="SourceAlpha" result="effect1_dropShadow_529_1303"/>
<feOffset dy="3"/>
<feGaussianBlur stdDeviation="2"/>
<feComposite in2="hardAlpha" operator="out"/>
<feColorMatrix type="matrix" values="0 0 0 0 0 0 0 0 0 0 0 0 0 0 0 0 0 0 0.25 0"/>
<feBlend mode="normal" in2="BackgroundImageFix" result="effect1_dropShadow_529_1303"/>
<feBlend mode="normal" in="SourceGraphic" in2="effect1_dropShadow_529_1303" result="shape"/>
<feColorMatrix in="SourceAlpha" type="matrix" values="0 0 0 0 0 0 0 0 0 0 0 0 0 0 0 0 0 0 127 0" result="hardAlpha"/>
<feMorphology radius="17" operator="erode" in="SourceAlpha" result="effect2_innerShadow_529_1303"/>
<feOffset dx="11" dy="10"/>
<feGaussianBlur stdDeviation="10.6"/>
<feComposite in2="hardAlpha" operator="arithmetic" k2="-1" k3="1"/>
<feColorMatrix type="matrix" values="0 0 0 0 0 0 0 0 0 0 0 0 0 0 0 0 0 0 0.25 0"/>
<feBlend mode="normal" in2="shape" result="effect2_innerShadow_529_1303"/>
</filter>
<linearGradient id="paint0_linear_529_1303" x1="120" y1="3" x2="120" y2="231" gradientUnits="userSpaceOnUse">
<stop stop-color="#AC6B42"/>
<stop offset="0.432692" stop-color="#925B38"/>
<stop offset="0.649038" stop-color="#694128"/>
<stop offset="1" stop-color="#462C1B"/>
</linearGradient>
<clipPath id="clip0_529_1303">
<rect x="6" y="3" width="228" height="228" rx="114" fill="white"/>
</clipPath>
</defs>
</svg>
