<svg width="138" height="96" viewBox="0 0 138 96" fill="none" xmlns="http://www.w3.org/2000/svg">
<path d="M68.7849 46.5825C60.7828 35.8298 49.434 29.9125 36.8193 25.7818C32.3866 24.332 28.2346 22.0266 23.6548 19.9767C26.8602 13.6761 29.5644 8.36078 32.3498 2.88672C39.9531 6.01476 47.3841 8.83889 54.608 12.1179C60.8448 14.9498 66.3169 18.8656 69.0423 26.3354C73.686 15.6834 83.012 12.085 92.2161 8.35691C96.6391 6.56449 101.132 4.9424 106.052 3.07061C108.663 8.16915 111.383 13.4729 114.215 18.9992C111.292 22.435 107.309 23.9584 103.238 25.2804C94.8041 28.0214 86.4536 30.981 79.5181 36.7454C75.8675 39.7805 72.5013 43.1544 68.7868 46.5825H68.7849Z" fill="#C7413E"/>
<path d="M117.866 20.5602C115.16 15.0552 112.535 9.72047 109.753 4.06445C113.778 4.54837 116.4 5.93237 118.048 9.52303C120.343 14.5171 123.214 19.2478 126.003 24.3986C109.128 34.5667 92.3421 44.6825 75.4437 54.8641C73.8293 53.5943 72.3079 52.4 70.7148 51.1457C79.1544 40.335 89.1966 32.3581 102.411 28.7345C107.973 27.2112 113.381 25.1497 117.866 20.5602Z" fill="#C7413E"/>
<path d="M12.3247 24.3813C15.5495 18.4581 18.3582 12.7131 21.7746 7.35515C22.9128 5.57047 25.6073 4.77684 27.5913 3.53027C27.8875 3.7974 28.1856 4.06258 28.4837 4.3297C26.3564 8.60559 24.411 12.986 22.0418 17.1245C20.41 19.9757 20.7274 21.9056 23.6522 23.2896C27.2893 25.0104 30.8355 27.1222 34.6642 28.212C48.1655 32.0543 58.9085 39.6692 67.3228 50.9967C66.9492 51.3877 66.5718 51.8639 66.115 52.2413C65.0871 53.0988 64.0186 53.9079 62.8417 54.8351C46.0731 44.7271 29.3895 34.6674 12.3247 24.3832V24.3813Z" fill="#C7413E"/>
<mask id="mask0_510_5809" style="mask-type:luminance" maskUnits="userSpaceOnUse" x="20" y="54" width="47" height="42">
<path d="M20.2451 54.0684H66.825V95.1374H20.2451V54.0684Z" fill="white"/>
</mask>
<g mask="url(#mask0_510_5809)">
<path d="M33.0794 66.0019C34.3105 59.3722 39.1167 56.912 43.9965 54.5931C44.5985 54.3066 45.6748 54.4614 46.2826 54.8234C52.8851 58.776 59.4393 62.81 66.4948 67.1226C51.2185 76.379 36.3661 85.3799 20.4879 95.0001C20.4879 92.6522 20.1278 91.0688 20.5517 89.7409C22.2513 84.414 25.4587 80.5794 30.7469 78.0069C35.4351 75.7247 39.5658 72.256 43.8107 69.1319C45.2586 68.0673 46.6716 66.6271 47.413 65.0379C47.9569 63.8765 47.9124 61.697 47.1517 60.8743C46.3755 60.0342 44.1127 59.6781 43.0152 60.1988C39.7071 61.7667 36.6487 63.8649 33.0774 66.0038L33.0794 66.0019Z" fill="#C7413E"/>
</g>
<path d="M71.8227 67.1141C78.826 62.8441 85.1866 58.9166 91.6188 55.1033C92.4124 54.633 93.7693 54.3562 94.53 54.7104C99.3421 56.948 104.026 59.4179 105.199 65.8927C102.344 64.2029 99.6925 62.6602 97.0677 61.069C95.014 59.8244 92.9002 58.4191 90.8929 60.9394C88.9069 63.4306 90.5774 65.6275 92.3544 66.9844C97.9891 71.2836 103.55 75.8575 109.756 79.1733C114.876 81.9104 116.144 86.616 118.333 90.979C118.705 91.7223 117.816 93.0985 117.365 94.6993C102.027 85.4081 87.1881 76.4208 71.8208 67.1141H71.8227Z" fill="#C7413E"/>
<mask id="mask1_510_5809" style="mask-type:luminance" maskUnits="userSpaceOnUse" x="0" y="0" width="69" height="66">
<path d="M0.59668 0.738281H68.3121V65.9606H0.59668V0.738281Z" fill="white"/>
</mask>
<g mask="url(#mask1_510_5809)">
<path d="M0.652344 24.2412C5.98704 16.4307 7.45815 6.95758 14.3801 0.738281C14.7421 0.926041 15.106 1.1138 15.4679 1.30156C12.0379 8.50224 8.60987 15.701 5.06179 23.1552C8.7415 25.4122 12.1618 27.5337 15.6034 29.6223C32.2095 39.6975 48.7963 49.7978 65.4507 59.7877C67.7774 61.1814 69.0704 62.6216 67.6593 65.9006C45.4747 52.107 23.3364 38.3444 0.652344 24.2412Z" fill="#C7413E"/>
</g>
<mask id="mask2_510_5809" style="mask-type:luminance" maskUnits="userSpaceOnUse" x="69" y="0" width="69" height="66">
<path d="M69.7983 0.738281H137.363V65.9606H69.7983V0.738281Z" fill="white"/>
</mask>
<g mask="url(#mask2_510_5809)">
<path d="M133.242 23.1091C129.766 15.7942 126.359 8.62841 122.952 1.4587C123.177 1.23223 123.403 1.00382 123.63 0.777344C124.926 1.99101 126.657 2.97239 127.447 4.45511C130.848 10.8428 133.974 17.3796 137.452 24.3654C115.219 38.2015 93.0634 51.9893 70.7355 65.8835C69.3844 62.8581 70.329 61.3076 72.8918 59.7726C91.9736 48.3425 110.964 36.7614 129.98 25.2209C131.014 24.5957 132.009 23.9086 133.242 23.1091Z" fill="#C7413E"/>
</g>
<path d="M34.7189 71.1659C34.0279 70.1516 33.4917 69.3599 32.6787 68.1618C36.5229 65.9996 40.1814 63.8143 43.983 61.9115C44.7786 61.5128 46.0968 62.1631 47.1749 62.3277C47.2388 62.6393 47.3027 62.951 47.3666 63.2626C43.2823 65.8138 39.1961 68.367 34.717 71.1679L34.7189 71.1659Z" fill="#C7413E"/>
<path d="M103.897 71.3051C99.3213 68.477 95.1944 65.9258 90.9824 63.3224C93.8743 60.8621 94.3195 61.0189 105.306 68.1635C104.921 69.019 104.513 69.9307 103.897 71.3031V71.3051Z" fill="#C7413E"/>
</svg>
