<svg width="76" height="112" viewBox="0 0 76 112" fill="none" xmlns="http://www.w3.org/2000/svg">
<mask id="mask0_510_5831" style="mask-type:luminance" maskUnits="userSpaceOnUse" x="0" y="35" width="76" height="77">
<path d="M0.525391 35.1143H75.9301V111.815H0.525391V35.1143Z" fill="white"/>
</mask>
<g mask="url(#mask0_510_5831)">
<path d="M54.545 39.9195C52.003 38.5355 50.4683 36.6391 49.5941 35.208L43.2203 42.1131C49.9815 43.1407 56.2262 46.2529 61.1515 51.1796C67.2563 57.2831 70.6174 65.4 70.6174 74.0321C70.6174 82.6641 67.255 90.7797 61.1515 96.8832C55.048 102.987 46.9324 106.349 38.3004 106.349C29.6683 106.349 21.5527 102.987 15.4492 96.8832C9.34439 90.7797 5.9833 82.6641 5.9833 74.0307C5.9833 65.3987 9.34439 57.2831 15.4492 51.1796C20.3732 46.2543 26.6125 43.142 33.371 42.1131L27.0026 35.2161C26.127 36.6458 24.5924 38.5382 22.0557 39.9195C9.32422 45.9934 0.525391 58.9845 0.525391 74.0307C0.525391 94.894 17.4371 111.806 38.3004 111.806C59.1636 111.806 76.0753 94.894 76.0753 74.0307C76.0753 58.9845 67.2778 45.9934 54.545 39.9195Z" fill="#C7413E"/>
</g>
<path d="M10.6625 10.5107C10.6988 12.4811 11.6658 14.6829 14.8332 14.6829C11.6658 14.6829 10.6988 16.8832 10.6625 18.8536C10.6262 16.8832 9.65911 14.6829 6.4917 14.6829C9.65911 14.6829 10.6262 12.4811 10.6625 10.5107Z" fill="#C7413E"/>
<path d="M20.6758 28.1709C20.7027 29.649 21.429 31.2993 23.8042 31.2993C21.429 31.2993 20.7027 32.9496 20.6758 34.4277C20.6489 32.9496 19.9226 31.2993 17.5474 31.2993C19.9239 31.2993 20.6489 29.649 20.6758 28.1709Z" fill="#C7413E"/>
<mask id="mask1_510_5831" style="mask-type:luminance" maskUnits="userSpaceOnUse" x="18" y="0" width="9" height="8">
<path d="M18.8345 0H26.7537V7.56952H18.8345V0Z" fill="white"/>
</mask>
<g mask="url(#mask1_510_5831)">
<path d="M22.8129 0.0820312C22.8438 1.80629 23.6911 3.73229 26.4631 3.73229C23.6911 3.73229 22.8438 5.6583 22.8129 7.38255C22.7806 5.6583 21.9346 3.73229 19.1626 3.73229C21.9346 3.73229 22.7806 1.80629 22.8129 0.0820312Z" fill="#C7413E"/>
</g>
<path d="M65.9379 10.5107C65.9029 12.4811 64.9359 14.6829 61.7671 14.6829C64.9359 14.6829 65.9029 16.8832 65.9379 18.8536C65.9742 16.8832 66.9426 14.6829 70.11 14.6829C66.9426 14.6829 65.9742 12.4811 65.9379 10.5107Z" fill="#C7413E"/>
<path d="M55.9243 28.1709C55.8974 29.649 55.1711 31.2993 52.7959 31.2993C55.1725 31.2993 55.8974 32.9496 55.9243 34.4277C55.9512 32.9496 56.6775 31.2993 59.0527 31.2993C56.6775 31.2993 55.9512 29.649 55.9243 28.1709Z" fill="#C7413E"/>
<mask id="mask2_510_5831" style="mask-type:luminance" maskUnits="userSpaceOnUse" x="49" y="0" width="9" height="8">
<path d="M49.8228 0H57.742V7.56952H49.8228V0Z" fill="white"/>
</mask>
<g mask="url(#mask2_510_5831)">
<path d="M53.7881 0.0820312C53.7571 1.80629 52.9098 3.73229 50.1392 3.73229C52.9098 3.73229 53.7571 5.6583 53.7881 7.38255C53.8204 5.6583 54.6663 3.73229 57.4383 3.73229C54.6663 3.73229 53.8204 1.80629 53.7881 0.0820312Z" fill="#C7413E"/>
</g>
<path d="M16.0273 18.9023L36.7332 42.0036L25.7434 18.9023H16.0273Z" fill="#C7413E"/>
<path d="M39.8843 41.9848L60.5727 18.9023H50.8606L39.8843 41.9848Z" fill="#C7413E"/>
<path d="M37.245 17.4548L32.3318 9.57324L27.1953 17.4548H37.245Z" fill="#C7413E"/>
<path d="M49.4061 17.4548L44.2696 9.57324L39.3564 17.4548H49.4061Z" fill="#C7413E"/>
<path d="M21.028 8.99121L16.0273 17.4551H25.0548L21.028 8.99121Z" fill="#C7413E"/>
<path d="M60.5731 17.4551L55.5725 8.99121L51.5483 17.4551H60.5731Z" fill="#C7413E"/>
<path d="M31.0335 8.99121H22.5776L26.1459 16.4935L31.0335 8.99121Z" fill="#C7413E"/>
<path d="M42.9787 8.99121H33.623L38.3009 16.4948L42.9787 8.99121Z" fill="#C7413E"/>
<path d="M54.0264 8.99121H45.5679L50.4582 16.4962L54.0264 8.99121Z" fill="#C7413E"/>
<path d="M39.0244 18.9023V40.543L49.3135 18.9023H39.0244Z" fill="#C7413E"/>
<path d="M37.577 18.9023H27.292L37.577 40.5228V18.9023Z" fill="#C7413E"/>
</svg>
