<svg width="117" height="93" viewBox="0 0 117 93" fill="none" xmlns="http://www.w3.org/2000/svg">
<mask id="mask0_510_5867" style="mask-type:luminance" maskUnits="userSpaceOnUse" x="13" y="0" width="90" height="93">
<path d="M13.9883 0.189453H102.972V92.8415H13.9883V0.189453Z" fill="white"/>
</mask>
<g mask="url(#mask0_510_5867)">
<path fill-rule="evenodd" clip-rule="evenodd" d="M83.3026 92.8769H34.0646C23.2208 92.8769 14.4219 84.078 14.4219 73.3026V41.3869C14.4219 30.5431 23.2208 21.7461 34.0646 21.7461H56.5694L56.6378 14.2432C53.7054 13.3576 51.5219 10.6287 51.5219 7.3561C51.5219 3.4013 54.7963 0.195312 58.7511 0.195312C62.7077 0.195312 65.9803 3.4013 65.9803 7.3561C65.9803 10.6287 63.7302 13.426 60.7294 14.3117L60.661 21.7461H83.3026C94.078 21.7461 102.875 30.5431 102.875 41.3869V73.371C102.875 84.1464 94.078 92.8769 83.3026 92.8769ZM40.2011 61.9153C34.4048 61.9153 29.8362 57.3448 29.8362 51.6169C29.8362 45.8188 34.4048 41.2501 40.2011 41.2501C45.9992 41.2501 50.4995 45.8188 50.4995 51.6169C50.4995 57.3448 45.9992 61.9153 40.2011 61.9153ZM40.2011 45.3417C36.6549 45.3417 33.9278 48.0707 33.9278 51.6169C33.9278 55.0947 36.6549 57.8218 40.2011 57.8218C43.6789 57.8218 46.4762 55.0947 46.4762 51.6169C46.4762 48.0707 43.6789 45.3417 40.2011 45.3417ZM77.2327 61.5048C71.4364 61.5048 66.7994 56.8678 66.7994 51.1399C66.7994 45.4101 71.4364 40.7731 77.2327 40.7731C82.894 40.7731 87.5311 45.4101 87.5311 51.1399C87.5311 56.8678 82.894 61.5048 77.2327 61.5048ZM77.2327 44.8647C73.6865 44.8647 70.891 47.7287 70.891 51.1399C70.891 54.6177 73.6865 57.4816 77.2327 57.4816C80.7105 57.4816 83.4394 54.6177 83.4394 51.1399C83.4394 47.5937 80.6439 44.8647 77.2327 44.8647ZM57.9339 73.9165C54.0456 73.9165 50.6363 72.075 48.7264 70.4387C47.8389 69.688 47.7723 68.3254 48.5211 67.5748C49.2718 66.7557 50.4995 66.6207 51.3869 67.4379C52.0008 67.9834 57.9339 72.6888 63.5934 67.5063C64.4124 66.7557 65.6401 66.7557 66.5257 67.5748C67.2764 68.4622 67.2764 69.688 66.4573 70.5071C63.5934 72.9624 60.661 73.9165 57.9339 73.9165Z" fill="#C7413E"/>
</g>
<mask id="mask1_510_5867" style="mask-type:luminance" maskUnits="userSpaceOnUse" x="0" y="38" width="11" height="34">
<path d="M0.509766 38.7275H10.675V71.3865H0.509766V38.7275Z" fill="white"/>
</mask>
<g mask="url(#mask1_510_5867)">
<path fill-rule="evenodd" clip-rule="evenodd" d="M10.3293 70.9831H9.51206C4.60138 70.9831 0.509766 66.9599 0.509766 61.9808V48.0697C0.509766 43.0906 4.60138 38.999 9.51206 38.999H10.4661C10.3977 39.7497 10.3293 40.5669 10.3293 41.386V70.9831Z" fill="#C7413E"/>
</g>
<mask id="mask2_510_5867" style="mask-type:luminance" maskUnits="userSpaceOnUse" x="106" y="38" width="11" height="34">
<path d="M106.758 38.7275H116.945V71.3865H106.758V38.7275Z" fill="white"/>
</mask>
<g mask="url(#mask2_510_5867)">
<path fill-rule="evenodd" clip-rule="evenodd" d="M107.786 70.9832H106.967V41.386C106.967 40.4985 106.9 39.6813 106.832 38.9307H107.786C112.833 38.9307 116.925 42.9539 116.925 48.0014V61.9809C116.925 67.0284 112.833 70.9832 107.786 70.9832Z" fill="#C7413E"/>
</g>
</svg>
