<svg width="95" height="100" viewBox="0 0 95 100" fill="none" xmlns="http://www.w3.org/2000/svg">
<path d="M93.8903 16.0667C93.6617 15.901 93.4077 15.7967 93.1297 15.7526C92.8504 15.7085 92.5777 15.7299 92.309 15.8168C78.3747 20.3319 48.985 1.2208 48.6896 1.02833C48.5452 0.933429 48.3915 0.861251 48.2271 0.813132C48.0627 0.763677 47.8943 0.738281 47.7218 0.738281C47.5508 0.738281 47.3823 0.763677 47.2166 0.813132C47.0522 0.861251 46.8985 0.933429 46.7541 1.02833C46.4587 1.2208 17.0663 20.3332 3.136 15.8168C3.00367 15.7753 2.86734 15.7499 2.72966 15.7392C2.59065 15.7299 2.45298 15.7366 2.31665 15.758C2.18031 15.7807 2.04798 15.8194 1.91967 15.8729C1.79135 15.9264 1.67106 15.9932 1.55878 16.0747C1.4465 16.1563 1.34626 16.2498 1.25536 16.3554C1.16447 16.4597 1.08829 16.5746 1.02413 16.6976C0.961307 16.8206 0.911851 16.9502 0.878436 17.0852C0.84502 17.2189 0.827644 17.3552 0.826307 17.4942V31.8509C0.819624 32.7465 0.828981 33.642 0.854376 34.5375C0.881109 35.4331 0.923881 36.3273 0.984029 37.2215C1.04284 38.1144 1.11903 39.0072 1.21259 39.8974C1.30616 40.789 1.41576 41.6778 1.54274 42.564C1.66838 43.4515 1.81274 44.335 1.9718 45.2172C2.13219 46.098 2.30729 46.9762 2.5011 47.8503C2.69357 48.7258 2.90209 49.5973 3.12798 50.4635C3.35253 51.3309 3.59446 52.193 3.85243 53.0512C4.1104 53.9093 4.38307 54.762 4.67312 55.6095C4.96317 56.4569 5.26925 57.299 5.59004 58.1343C5.91083 58.9711 6.24766 59.8011 6.60053 60.6245C6.9534 61.4478 7.32097 62.2645 7.70459 63.0745C8.08686 63.8832 8.48518 64.6865 8.89819 65.4804C9.31255 66.2757 9.74027 67.0617 10.1827 67.8409C10.6251 68.6188 11.0822 69.3901 11.5541 70.1506C12.0259 70.9125 12.5124 71.665 13.0123 72.4082C13.5122 73.1513 14.0255 73.8852 14.5535 74.6096C15.0801 75.3327 15.6214 76.0465 16.1761 76.7509C16.7295 77.4539 17.2976 78.1477 17.8776 78.8293C18.4577 79.5124 19.0499 80.1833 19.6554 80.8436C20.2609 81.5039 20.8784 82.1522 21.5093 82.7898C22.1388 83.426 22.7804 84.0515 23.4327 84.665C24.0863 85.2772 24.7506 85.8774 25.4269 86.4655C26.1019 87.0536 26.7889 87.6283 27.4867 88.1911C28.1844 88.7538 28.8915 89.3018 29.6092 89.8378C30.327 90.3738 31.0554 90.8951 31.7933 91.4043C32.5297 91.9122 33.2769 92.4068 34.0335 92.8866C34.79 93.3665 35.5545 93.833 36.3284 94.2847C37.101 94.7365 37.8829 95.1723 38.6729 95.5946C39.4628 96.017 40.2608 96.4247 41.0668 96.8176C41.8714 97.2093 42.6841 97.5862 43.5034 97.9484C44.3228 98.3093 45.1488 98.6568 45.9816 98.987C46.5336 99.257 47.115 99.4388 47.7218 99.5363C48.1228 99.6339 49.0825 99.0792 49.4635 98.987C50.2962 98.6568 51.1209 98.3107 51.9416 97.9484C52.7609 97.5862 53.5723 97.2093 54.3782 96.8176C55.1829 96.4247 55.9809 96.017 56.7708 95.5946C57.5607 95.1736 58.3427 94.7365 59.1166 94.2847C59.8905 93.833 60.655 93.3665 61.4116 92.8866C62.1668 92.4068 62.9139 91.9122 63.6518 91.4043C64.3896 90.8951 65.1167 90.3738 65.8345 89.8378C66.5522 89.3018 67.2607 88.7538 67.9584 88.1911C68.6547 87.6283 69.3418 87.0536 70.0181 86.4655C70.6931 85.8774 71.3574 85.2772 72.011 84.665C72.6646 84.0515 73.3062 83.426 73.9358 82.7898C74.5653 82.1522 75.1828 81.5039 75.7883 80.8436C76.3938 80.1833 76.9873 79.5124 77.5674 78.8307C78.1475 78.1477 78.7142 77.4539 79.2689 76.7509C79.8236 76.0465 80.3636 75.3327 80.8916 74.6096C81.4182 73.8852 81.9328 73.1513 82.4327 72.4082C82.9326 71.665 83.4178 70.9125 83.8896 70.1506C84.3614 69.3901 84.8186 68.6188 85.261 67.8409C85.7048 67.0617 86.1325 66.2757 86.5455 65.4804C86.9585 64.6865 87.3568 63.8832 87.7404 63.0745C88.1227 62.2645 88.4903 61.4478 88.8432 60.6245C89.196 59.8011 89.5329 58.9711 89.8536 58.1343C90.1758 57.299 90.4805 56.4569 90.7706 55.6095C91.0606 54.762 91.3346 53.9093 91.5926 53.0512C91.8492 52.193 92.0912 51.3309 92.317 50.4635C92.5416 49.5973 92.7514 48.7258 92.9439 47.8517C93.1364 46.9762 93.3128 46.098 93.4719 45.2172C93.6323 44.335 93.7753 43.4515 93.9023 42.564C94.0279 41.6778 94.1389 40.789 94.2311 39.8974C94.3247 39.0072 94.4008 38.1144 94.461 37.2215C94.5198 36.3273 94.5639 35.4331 94.5893 34.5375C94.616 33.642 94.6254 32.7465 94.6174 31.8509V17.4942C94.6174 17.2122 94.5532 16.9449 94.4249 16.6936C94.2966 16.4423 94.1188 16.2338 93.8903 16.0667ZM91.0887 31.8509C91.0887 33.5618 91.0259 35.27 90.8975 36.9769C90.7706 38.6838 90.5808 40.3826 90.3268 42.0748C90.0728 43.767 89.7561 45.4471 89.3778 47.1165C88.9982 48.7846 88.5584 50.4367 88.0572 52.0728C87.5546 53.7088 86.9933 55.3234 86.3704 56.918C85.7489 58.5113 85.0685 60.0805 84.3294 61.6243C83.5902 63.1667 82.7949 64.6811 81.9435 66.1648C81.0921 67.6498 80.1858 69.1 79.2261 70.5169C78.2678 71.9337 77.2559 73.3117 76.1933 74.6537C75.132 75.9957 74.0213 77.2949 72.8624 78.554C71.7036 79.8131 70.4993 81.0267 69.2495 82.1963C67.9998 83.3645 66.7086 84.4859 65.376 85.5592C64.0434 86.6326 62.672 87.6537 61.2632 88.6255C59.8544 89.5959 58.4108 90.5128 56.9339 91.3762C55.4569 92.2397 53.9492 93.047 52.4121 93.7995C50.8736 94.5507 49.3111 95.2431 47.7218 95.878C46.1326 95.2431 44.5701 94.5507 43.033 93.7982C41.4945 93.047 39.9881 92.2397 38.5112 91.3762C37.0328 90.5128 35.5906 89.5959 34.1805 88.6255C32.7717 87.6537 31.4016 86.6326 30.0677 85.5592C28.7351 84.4859 27.4439 83.3645 26.1941 82.1963C24.9457 81.0267 23.7414 79.8131 22.5826 78.554C21.4224 77.2949 20.313 75.9943 19.2504 74.6537C18.1877 73.3117 17.1773 71.9323 16.2176 70.5155C15.2579 69.0987 14.3516 67.6485 13.5002 66.1648C12.6488 64.6811 11.8535 63.1667 11.1143 61.6229C10.3765 60.0805 9.69616 58.5113 9.07329 56.918C8.45176 55.3234 7.88904 53.7088 7.38781 52.0728C6.88523 50.4367 6.44548 48.7846 6.06588 47.1152C5.68762 45.4471 5.37084 43.767 5.11821 42.0748C4.86426 40.3826 4.67312 38.6824 4.54614 36.9769C4.41916 35.27 4.355 33.5618 4.355 31.8509V19.7304C18.8694 22.1724 42.5705 7.85181 47.7218 4.59846C52.8732 7.85314 76.5783 22.1604 91.0887 19.7304V31.8509Z" fill="#C7413E"/>
<path d="M83.6646 23.463C83.436 23.2972 83.1821 23.1916 82.9041 23.1475C82.6247 23.1034 82.352 23.1248 82.0834 23.213C73.2991 26.0614 54.998 15.9565 48.6891 11.8196C48.5447 11.726 48.391 11.6539 48.2266 11.6057C48.0622 11.5563 47.8938 11.5322 47.7214 11.5322C47.5503 11.5322 47.3819 11.5563 47.2175 11.6057C47.0517 11.6539 46.898 11.726 46.7537 11.8196C40.4461 15.9565 22.1544 26.06 13.3607 23.213C13.2284 23.1716 13.0921 23.1462 12.9544 23.1355C12.8154 23.1261 12.6777 23.1328 12.5414 23.1542C12.405 23.1769 12.2727 23.2157 12.1444 23.2691C12.0161 23.3226 11.8958 23.3894 11.7835 23.471C11.6712 23.5525 11.571 23.6461 11.4801 23.7517C11.3905 23.8559 11.313 23.9709 11.2489 24.0938C11.186 24.2168 11.1379 24.3465 11.1045 24.4815C11.0711 24.6151 11.0537 24.7515 11.0524 24.8905V35.9952C11.0403 37.3906 11.0804 38.7847 11.174 40.1788C11.2676 41.5716 11.4119 42.959 11.6097 44.3411C11.8062 45.7231 12.0562 47.0958 12.3556 48.4592C12.6563 49.8226 13.0079 51.1726 13.4088 52.5105C13.8112 53.8471 14.2629 55.1664 14.7628 56.4696C15.2641 57.7728 15.8134 59.056 16.4109 60.3177C17.007 61.5795 17.6513 62.8172 18.341 64.0309C19.032 65.2446 19.7658 66.4301 20.5451 67.589C21.3243 68.7478 22.1464 69.8746 23.0098 70.972C23.8733 72.068 24.7782 73.132 25.7218 74.1599C26.6655 75.1891 27.6466 76.1808 28.6638 77.1365C29.6823 78.0909 30.7342 79.0078 31.8222 79.8833C32.9089 80.7601 34.0263 81.5942 35.1771 82.3854C36.3266 83.1781 37.5042 83.9266 38.7098 84.6296C39.9155 85.334 41.1452 85.9917 42.4003 86.6025C43.6554 87.2133 44.9318 87.7774 46.2297 88.2933C46.7029 88.5219 47.2001 88.6729 47.7214 88.7438C48.1264 88.8106 48.8388 88.4016 49.2157 88.292C50.5123 87.7761 51.7887 87.2133 53.0438 86.6012C54.2989 85.9903 55.53 85.3327 56.7356 84.6296C57.9412 83.9252 59.1188 83.1767 60.2683 82.3854C61.4178 81.5928 62.5352 80.7588 63.6232 79.8819C64.7099 79.0065 65.7618 78.0909 66.7803 77.1352C67.7988 76.1808 68.7786 75.1877 69.7223 74.1599C70.6659 73.1306 71.5708 72.068 72.4343 70.9707C73.2977 69.8746 74.1198 68.7465 74.899 67.589C75.6783 66.4301 76.4121 65.2446 77.1031 64.0309C77.7928 62.8172 78.4357 61.5795 79.0332 60.3177C79.6307 59.0546 80.18 57.7728 80.6799 56.4696C81.1812 55.1664 81.6329 53.8458 82.0339 52.5092C82.4362 51.1726 82.7864 49.8226 83.0872 48.4592C83.3879 47.0958 83.6365 45.7231 83.8344 44.3411C84.0308 42.959 84.1765 41.5716 84.2688 40.1788C84.3623 38.7847 84.4038 37.3906 84.3917 35.9952V24.8905C84.3917 24.6084 84.3276 24.3411 84.1993 24.0898C84.0709 23.8385 83.8932 23.63 83.6646 23.463ZM80.863 35.9952C80.863 37.3051 80.8149 38.6136 80.7173 39.9195C80.6198 41.2267 80.4741 42.5273 80.2803 43.8238C80.0865 45.119 79.8459 46.4061 79.5558 47.684C79.2671 48.9618 78.9303 50.2276 78.5467 51.48C78.1644 52.7337 77.734 53.9701 77.2595 55.1918C76.7837 56.4121 76.265 57.6138 75.6996 58.7967C75.1356 59.9782 74.5274 61.1384 73.8778 62.2759C73.2269 63.4134 72.5359 64.5254 71.802 65.6108C71.0696 66.6961 70.297 67.7534 69.4857 68.7826C68.673 69.8118 67.8242 70.8076 66.9394 71.774C66.0532 72.739 65.1336 73.6706 64.1779 74.5675C63.2236 75.4657 62.2371 76.3252 61.2186 77.1499C60.2001 77.9732 59.1522 78.7592 58.0749 79.505C56.9976 80.2509 55.8949 80.9566 54.7654 81.6209C53.636 82.2852 52.4838 82.9067 51.3076 83.4842C50.1327 84.0629 48.9364 84.5976 47.7214 85.0881C46.5064 84.5976 45.3114 84.0629 44.1352 83.4842C42.9603 82.9054 41.8081 82.2839 40.6787 81.6209C39.5492 80.9566 38.4452 80.2509 37.3679 79.505C36.2919 78.7578 35.244 77.9732 34.2255 77.1499C33.2056 76.3252 32.2192 75.4644 31.2648 74.5675C30.3092 73.6706 29.3896 72.739 28.5034 71.774C27.6185 70.8076 26.7698 69.8105 25.9584 68.7826C25.1471 67.7534 24.3745 66.6961 23.6407 65.6108C22.9082 64.5241 22.2159 63.4134 21.5649 62.2759C20.9153 61.1384 20.3072 59.9782 19.7431 58.7953C19.1791 57.6138 18.6591 56.4121 18.1833 55.1904C17.7088 53.9701 17.2797 52.7324 16.8961 51.48C16.5125 50.2276 16.177 48.9618 15.887 47.684C15.5982 46.4061 15.3563 45.119 15.1625 43.8238C14.9687 42.5273 14.823 41.2267 14.7254 39.9195C14.6292 38.6136 14.5797 37.3051 14.5797 35.9952V27.0825C25.8061 28.5769 43.372 18.1178 47.7214 15.3884C52.0734 18.1178 69.6461 28.5822 80.863 27.0825V35.9952Z" fill="#C7413E"/>
<path d="M64.1731 46.216H61.0828V40.5634C60.4573 22.8852 34.9879 22.8798 34.361 40.5634V46.216H31.2707C31.1557 46.216 31.0408 46.2267 30.9272 46.2494C30.8136 46.2721 30.7026 46.3056 30.5957 46.3497C30.4888 46.3938 30.3872 46.4486 30.2909 46.5127C30.1947 46.5769 30.1052 46.6504 30.0236 46.7319C29.9421 46.8135 29.8686 46.903 29.8044 46.9993C29.7403 47.0955 29.6855 47.1971 29.6413 47.304C29.5972 47.4109 29.5638 47.5219 29.5411 47.6355C29.5184 47.7491 29.5063 47.8641 29.5063 47.979V67.0847C29.5063 67.201 29.5184 67.316 29.5411 67.4296C29.5638 67.5432 29.5972 67.6528 29.6413 67.7597C29.6855 67.8667 29.7403 67.9683 29.8044 68.0645C29.8686 68.1607 29.9421 68.2503 30.0236 68.3318C30.1052 68.4147 30.1947 68.4869 30.2909 68.551C30.3872 68.6165 30.4888 68.67 30.5957 68.7141C30.7026 68.7595 30.8136 68.793 30.9272 68.8157C31.0408 68.8371 31.1557 68.8491 31.2707 68.8491H64.1731C64.2894 68.8491 64.4043 68.8371 64.5179 68.8157C64.6316 68.793 64.7412 68.7595 64.8481 68.7141C64.955 68.67 65.0566 68.6165 65.1528 68.551C65.2491 68.4869 65.3386 68.4147 65.4202 68.3318C65.503 68.2503 65.5752 68.1607 65.6407 68.0645C65.7049 67.9683 65.7583 67.8667 65.8024 67.7597C65.8479 67.6528 65.8813 67.5432 65.904 67.4296C65.9267 67.316 65.9374 67.201 65.9374 67.0847V47.979C65.9374 47.8641 65.9267 47.7491 65.904 47.6355C65.8813 47.5219 65.8479 47.4109 65.8024 47.304C65.7583 47.1971 65.7049 47.0955 65.6394 46.9993C65.5752 46.903 65.503 46.8135 65.4202 46.7319C65.3386 46.6504 65.2491 46.5769 65.1528 46.5127C65.0566 46.4486 64.955 46.3938 64.8481 46.3497C64.7412 46.3056 64.6316 46.2721 64.5179 46.2494C64.4043 46.2267 64.2894 46.216 64.1731 46.216ZM37.8897 40.5634C38.3027 27.5687 57.1438 27.5727 57.5541 40.5634V46.216H37.8897V40.5634ZM62.4087 65.3204H33.035V49.7434H36.1253C37.8362 49.742 61.6322 49.746 62.4087 49.7434V65.3204Z" fill="#C7413E"/>
<path d="M47.7211 52.8799C47.4604 52.8786 47.2051 52.9173 46.9552 52.9935C46.7066 53.0711 46.474 53.1833 46.2588 53.3304C46.0436 53.4787 45.8552 53.6552 45.6934 53.8597C45.5317 54.0655 45.4047 54.2887 45.3111 54.5333C45.2189 54.7766 45.1641 55.0292 45.1481 55.2899C45.1307 55.5505 45.1548 55.8071 45.2162 56.0611C45.2777 56.315 45.3766 56.553 45.5116 56.7762C45.6466 57.0007 45.811 57.1986 46.0062 57.3723C45.9835 57.4525 45.9674 57.534 45.9567 57.6156V62.1842C45.9567 62.3005 45.9674 62.4154 45.9902 62.529C46.0129 62.6426 46.0463 62.7536 46.0904 62.8605C46.1345 62.9674 46.1893 63.069 46.2535 63.1666C46.3176 63.2628 46.3911 63.3524 46.4727 63.4339C46.5542 63.5168 46.6438 63.589 46.74 63.6545C46.8362 63.7186 46.9378 63.7734 47.0448 63.8175C47.153 63.8616 47.2626 63.8951 47.3762 63.9178C47.4899 63.9405 47.6048 63.9525 47.7211 63.9525C47.8374 63.9525 47.9523 63.9405 48.0659 63.9178C48.1795 63.8951 48.2905 63.8616 48.3974 63.8175C48.5043 63.7734 48.6059 63.7186 48.7022 63.6545C48.7984 63.589 48.888 63.5168 48.9695 63.4339C49.0524 63.3524 49.1245 63.2628 49.19 63.1666C49.2542 63.069 49.3077 62.9674 49.3518 62.8605C49.3959 62.7536 49.4293 62.6426 49.452 62.529C49.4747 62.4154 49.4854 62.3005 49.4854 62.1842V57.6156C49.4747 57.534 49.4587 57.4525 49.436 57.3723C49.6311 57.1986 49.7969 57.0007 49.9319 56.7762C50.0655 56.553 50.1644 56.315 50.2259 56.0611C50.2887 55.8071 50.3115 55.5505 50.2954 55.2899C50.2794 55.0292 50.2246 54.7766 50.131 54.5333C50.0375 54.2901 49.9105 54.0655 49.7487 53.8597C49.5884 53.6552 49.3999 53.4787 49.1847 53.3304C48.9695 53.1833 48.7369 53.0711 48.487 52.9935C48.237 52.9173 47.9817 52.8786 47.7211 52.8799Z" fill="#C7413E"/>
</svg>
