<svg width="65" height="36" viewBox="0 0 65 36" fill="none" xmlns="http://www.w3.org/2000/svg">
<path d="M0 1.89474C0 0.848304 0.848303 0 1.89474 0H61.9579C63.5275 0 64.8 1.27245 64.8 2.84211V33.1579C64.8 34.7275 63.5275 36 61.9579 36H1.89474C0.848307 36 0 35.1517 0 34.1053V1.89474Z" fill="#D9D9D9"/>
<path d="M0 1.89474C0 0.848304 0.848302 0 1.89474 0H19.2V36H1.89474C0.848302 36 0 35.1517 0 34.1053V1.89474Z" fill="#DF0000"/>
<rect x="19.1992" y="12" width="45.6" height="12" fill="white"/>
<path d="M19.1992 24H64.7992V33.1579C64.7992 34.7275 63.5268 36 61.9571 36H19.1992V24Z" fill="black"/>
<path d="M19.1992 0H61.9571C63.5268 0 64.7992 1.27245 64.7992 2.84211V12H19.1992V0Z" fill="#005C29"/>
</svg>
