<svg xmlns="http://www.w3.org/2000/svg" xmlns:xlink="http://www.w3.org/1999/xlink" width="500" zoomAndPan="magnify" viewBox="0 0 375 374.999991" height="500" preserveAspectRatio="xMidYMid meet" version="1.2"><defs><clipPath id="0b74d54a27"><path d="M 33 93.0625 L 259 93.0625 L 259 282.0625 L 33 282.0625 Z M 33 93.0625 "/></clipPath></defs><g id="f46526ab96"><g clip-rule="nonzero" clip-path="url(#0b74d54a27)"><path style=" stroke:none;fill-rule:nonzero;fill:#c7413e;fill-opacity:1;" d="M 70.414062 93.125 L 221.230469 93.125 C 222.441406 93.125 223.652344 93.183594 224.855469 93.300781 C 226.0625 93.421875 227.257812 93.597656 228.445312 93.835938 C 229.632812 94.070312 230.804688 94.363281 231.964844 94.714844 C 233.125 95.066406 234.261719 95.476562 235.382812 95.9375 C 236.5 96.402344 237.59375 96.917969 238.660156 97.488281 C 239.730469 98.058594 240.765625 98.683594 241.773438 99.355469 C 242.78125 100.027344 243.75 100.75 244.6875 101.515625 C 245.625 102.285156 246.519531 103.097656 247.375 103.953125 C 248.234375 104.808594 249.042969 105.707031 249.8125 106.640625 C 250.582031 107.578125 251.300781 108.550781 251.972656 109.554688 C 252.648438 110.5625 253.269531 111.601562 253.839844 112.667969 C 254.410156 113.734375 254.925781 114.828125 255.390625 115.949219 C 255.855469 117.066406 256.261719 118.207031 256.613281 119.363281 C 256.964844 120.523438 257.257812 121.695312 257.496094 122.882812 C 257.730469 124.070312 257.910156 125.269531 258.027344 126.472656 C 258.144531 127.679688 258.207031 128.886719 258.207031 130.097656 L 258.207031 245.175781 C 258.207031 246.386719 258.144531 247.59375 258.027344 248.800781 C 257.910156 250.003906 257.730469 251.203125 257.496094 252.390625 C 257.257812 253.578125 256.964844 254.75 256.613281 255.910156 C 256.261719 257.066406 255.855469 258.207031 255.390625 259.324219 C 254.925781 260.445312 254.410156 261.535156 253.839844 262.605469 C 253.269531 263.671875 252.648438 264.710938 251.972656 265.71875 C 251.300781 266.722656 250.582031 267.695312 249.8125 268.632812 C 249.042969 269.566406 248.234375 270.464844 247.375 271.320312 C 246.519531 272.175781 245.625 272.988281 244.6875 273.757812 C 243.75 274.523438 242.78125 275.246094 241.773438 275.917969 C 240.765625 276.589844 239.730469 277.210938 238.660156 277.78125 C 237.59375 278.355469 236.5 278.871094 235.382812 279.335938 C 234.261719 279.796875 233.125 280.207031 231.964844 280.558594 C 230.804688 280.910156 229.632812 281.203125 228.445312 281.4375 C 227.257812 281.675781 226.0625 281.851562 224.855469 281.972656 C 223.652344 282.089844 222.441406 282.148438 221.230469 282.148438 L 70.414062 282.148438 C 69.203125 282.148438 67.992188 282.089844 66.789062 281.972656 C 65.582031 281.851562 64.386719 281.675781 63.199219 281.4375 C 62.011719 281.203125 60.839844 280.910156 59.679688 280.558594 C 58.519531 280.207031 57.382812 279.796875 56.265625 279.335938 C 55.144531 278.871094 54.050781 278.355469 52.984375 277.78125 C 51.914062 277.210938 50.878906 276.589844 49.871094 275.917969 C 48.863281 275.246094 47.894531 274.523438 46.957031 273.757812 C 46.019531 272.988281 45.125 272.175781 44.269531 271.320312 C 43.414062 270.464844 42.601562 269.566406 41.832031 268.632812 C 41.0625 267.695312 40.34375 266.722656 39.671875 265.71875 C 38.996094 264.710938 38.375 263.671875 37.804688 262.605469 C 37.234375 261.535156 36.71875 260.445312 36.253906 259.324219 C 35.789062 258.207031 35.382812 257.066406 35.03125 255.910156 C 34.679688 254.75 34.386719 253.578125 34.148438 252.390625 C 33.914062 251.203125 33.738281 250.003906 33.617188 248.800781 C 33.5 247.59375 33.441406 246.386719 33.441406 245.175781 L 33.441406 130.097656 C 33.441406 128.886719 33.5 127.679688 33.617188 126.472656 C 33.738281 125.269531 33.914062 124.070312 34.148438 122.882812 C 34.386719 121.695312 34.679688 120.523438 35.03125 119.363281 C 35.382812 118.207031 35.789062 117.066406 36.253906 115.949219 C 36.71875 114.828125 37.234375 113.734375 37.804688 112.667969 C 38.375 111.601562 38.996094 110.5625 39.671875 109.554688 C 40.34375 108.550781 41.0625 107.578125 41.832031 106.640625 C 42.601562 105.707031 43.414062 104.808594 44.269531 103.953125 C 45.125 103.097656 46.019531 102.285156 46.957031 101.515625 C 47.894531 100.75 48.863281 100.027344 49.871094 99.355469 C 50.878906 98.683594 51.914062 98.058594 52.984375 97.488281 C 54.050781 96.917969 55.144531 96.402344 56.265625 95.9375 C 57.382812 95.476562 58.519531 95.066406 59.679688 94.714844 C 60.839844 94.363281 62.011719 94.070312 63.199219 93.835938 C 64.386719 93.597656 65.582031 93.421875 66.789062 93.300781 C 67.992188 93.183594 69.203125 93.125 70.414062 93.125 Z M 70.414062 93.125 "/></g><path style=" stroke:none;fill-rule:nonzero;fill:#c7413e;fill-opacity:1;" d="M 320.167969 105.972656 L 276.199219 131.269531 L 276.199219 244.035156 L 320.195312 269.332031 C 331.9375 276.078125 341.578125 270.53125 341.578125 257.007812 L 341.578125 118.359375 C 341.550781 104.769531 331.9375 99.222656 320.167969 105.972656 Z M 320.167969 105.972656 "/></g></svg>