<svg width="103" height="263" viewBox="0 0 103 263" fill="none" xmlns="http://www.w3.org/2000/svg">
<path fill-rule="evenodd" clip-rule="evenodd" d="M31.2091 243.227C31.2091 243.227 30.8436 246.672 29.7016 247.795C27.3604 250.094 17.8169 248.012 17.1774 257.03C17.0556 258.766 23.8354 258.949 30.7713 259.151C37.1666 259.337 42.8234 258.922 44.0949 257.772C47.0299 255.123 46.3218 251.883 46.0401 250.585C45.8155 249.527 44.9666 248.153 44.8943 247.247C44.7535 245.488 45.5719 244.51 45.5986 244.144C45.6671 243.181 31.2091 243.227 31.2091 243.227Z" fill="#333333"/>
<path fill-rule="evenodd" clip-rule="evenodd" d="M46.6024 244.086C46.6024 244.086 47.4057 247.452 46.7014 248.894C45.2625 251.841 35.5705 253.055 37.9726 261.773C38.4332 263.451 44.8894 261.365 51.4941 259.245C57.5887 257.288 62.7811 255.012 63.5996 253.504C65.4839 250.029 63.7328 247.208 63.04 246.081C62.4728 245.16 61.2165 244.144 60.8473 243.314C60.1278 241.703 60.5732 240.508 60.4742 240.154C60.2192 239.225 46.6024 244.086 46.6024 244.086Z" fill="#333333"/>
<path fill-rule="evenodd" clip-rule="evenodd" d="M82.2763 155.462C90.1525 196.373 97.0579 217.717 102.391 238.487C104.028 244.871 82.2915 243.912 79.486 244.372C73.0716 245.423 68.1609 245.766 61.4724 246.508C55.8575 247.136 49.6829 244.917 44.2507 245.255C36.1195 245.762 29.0694 247.357 22.4876 246.675C15.8067 245.983 11.9543 244.155 7.68694 242.766C2.38795 241.041 -0.611769 240.128 0.172421 236.367C3.72792 219.324 7.51183 190.336 10.3745 165.961C13.1382 142.42 15.0378 123.188 15.0378 123.188L21.3227 84.824L37.4252 84.8164C37.4252 84.8164 77.0611 128.35 82.2763 155.462Z" fill="#333333"/>
<path fill-rule="evenodd" clip-rule="evenodd" d="M40.1479 245.598C40.8559 232.213 44.1488 170.064 44.9786 155.922C45.3174 150.121 48.7093 187.233 51.6633 213.811C52.3942 220.39 55.3825 240.036 56.3646 246.458C52.2609 246.043 48.0735 245.015 44.2516 245.255C42.8507 245.343 41.4841 245.461 40.1479 245.598ZM19.8237 171.777C19.9607 169.722 20.0026 169.257 19.896 170.837C19.877 171.13 19.8503 171.442 19.8237 171.777C19.4582 177.259 18.4228 194.047 17.7756 213.484C17.5625 219.838 16.4395 238.323 15.9941 245.503C12.922 244.692 10.4553 243.675 7.84766 242.819C10.775 227.344 18.6931 184.842 19.8237 171.777ZM77.789 244.638C77.553 235.799 76.5708 216.316 72.608 186.247C72.4519 185.074 78.1011 212.544 82.4979 230.71C83.7123 235.738 85.4177 241.011 86.4607 244.086C83.1375 244.224 80.37 244.227 79.4868 244.372C78.9082 244.467 78.3448 244.555 77.789 244.638Z" fill="black" fill-opacity="0.1"/>
<path fill-rule="evenodd" clip-rule="evenodd" d="M30.0172 143.326C30.0172 143.326 29.2406 154.251 21.1817 151.773C12.1102 148.987 18.734 140.334 18.734 140.334L30.0172 143.326Z" fill="#FBDECC"/>
<path fill-rule="evenodd" clip-rule="evenodd" d="M32.2485 146.558C29.3515 147.076 18.4719 142.74 16.519 140.585C14.7222 138.602 20.0897 134.757 20.5351 133.63C20.8054 132.937 18.7459 130.177 19.2408 125.548C19.3779 124.273 20.9158 118.689 21.148 117.665C21.7571 114.966 22.4157 111.532 22.8458 109.777C23.63 106.599 26.782 97.5461 32.2942 94.7215C36.8242 92.4032 43.4746 98.0257 44.8754 101.654C45.4274 103.085 46.0708 105.297 45.8728 108.197C45.6825 110.908 45.4503 113.904 44.8526 116.664C44.0075 120.569 42.0775 123.828 41.8719 124.46C40.8327 127.676 40.4596 129.926 39.3328 131.605C37.7492 133.973 36.0095 135.393 33.9044 137.475C33.4095 137.966 35.1454 146.04 32.2485 146.558Z" fill="#333333"/>
<path fill-rule="evenodd" clip-rule="evenodd" d="M47.4061 0.523646C53.5045 1.13653 61.5786 3.68324 66.6035 14.9436C70.3646 23.3717 72.1804 31.7275 72.641 41.8459C72.7704 44.7314 73.2996 50.076 73.4899 53.2813C74.2132 65.6076 75.9072 74.6257 78.2065 89.5482C83.8176 125.948 86.0293 132.717 87.8528 144.967C89.3108 154.773 90.5822 161.442 92.4361 167.491C93.3269 170.384 93.7456 172.981 91.5643 175.059C89.9046 176.635 86.8858 174.629 85.8618 174.305C79.8624 172.41 79.0478 167.96 75.9262 165.428C71.2592 161.64 67.1441 160.921 64.0835 157.327C61.255 154.004 57.414 148.435 52.7965 142.976C47.6535 136.893 47.684 103.127 38.78 101.06C32.4989 99.6056 27.7252 104.322 26.3853 106.861C23.4807 112.377 22.2435 133.516 17.0131 135.435C14.9802 136.181 13.37 140.623 12.129 141.499C9.41479 143.417 8.62679 136.847 8.88946 134.59C11.204 114.829 11.8778 113.649 13.9905 88.1663C14.2151 85.4826 16.2136 70.8 16.4002 68.3103C16.5372 66.5288 18.4596 52.0441 18.6195 49.3946C19.0002 43.0564 20.7475 37.1407 20.4429 31.2593C20.363 29.729 20.7284 26.6722 20.1498 25.199C19.1943 22.7817 21.2195 15.8953 22.1331 11.6736C23.8766 3.60711 26.9753 2.14151 29.2137 1.47914C31.8061 0.713983 39.6137 -0.264351 47.4061 0.523646Z" fill="#7B2C2C"/>
<path fill-rule="evenodd" clip-rule="evenodd" d="M29.3087 4.40244C30.839 4.47477 32.9822 8.54418 37.7483 18.9785C41.0639 26.2417 41.1705 30.0904 40.4511 32.8541C40.0513 34.3882 39.2824 36.8016 38.1784 37.3993C35.0759 39.0743 30.1119 39.2608 26.1872 38.6555C20.7702 37.8181 19.3998 34.4681 18.4252 31.6968C17.5192 29.1273 18.0103 25.2406 18.7031 22.1609C18.7754 21.8526 17.5801 21.3919 17.8504 20.269C18.0788 19.3135 19.3198 20.0025 19.4454 19.6485C21.6419 13.4625 25.993 4.24256 29.3087 4.40244Z" fill="#FBDECC"/>
</svg>
