<svg width="113" height="292" viewBox="0 0 113 292" fill="none" xmlns="http://www.w3.org/2000/svg">
<path fill-rule="evenodd" clip-rule="evenodd" d="M90.7643 272.091L85.5034 236.266L63.6641 240.708L78.0003 275.186L90.7643 272.091Z" fill="#FBDECC"/>
<path fill-rule="evenodd" clip-rule="evenodd" d="M5.21875 270.02L14.492 234.994L36.1257 242.288L17.8115 274.786L5.21875 270.02Z" fill="#FBDECC"/>
<path fill-rule="evenodd" clip-rule="evenodd" d="M6.77987 264.238C7.63258 265.749 9.81004 268.802 13.0838 268.342C18.3981 267.592 19.2317 267.458 21.5653 268.54C22.7035 269.073 21.6414 272.263 22.7035 274.6C23.3582 276.043 23.9635 277.341 25.2464 278.734C27.401 281.079 29.6165 282.815 31.4856 284.075C33.4195 285.377 32.6886 291.007 30.3094 291.174C27.0927 291.407 23.2174 290.87 19.3535 289.846C16.0226 288.967 11.0244 287.341 6.67328 285.365C2.9579 283.683 0.559646 282.149 0.0838028 280.348C-0.799362 276.991 5.56171 262.08 6.77987 264.238Z" fill="#333333"/>
<path fill-rule="evenodd" clip-rule="evenodd" d="M76.3867 272.499C77.9094 273.389 81.4002 274.958 84.1981 272.898C88.732 269.556 89.4362 269.015 92.1162 268.783C93.4257 268.669 93.9929 272 96.1094 273.507C97.4113 274.436 98.599 275.266 100.461 275.837C103.586 276.793 106.471 277.192 108.805 277.345C111.222 277.504 113.282 282.8 111.173 284.151C108.318 285.978 104.48 287.47 100.419 288.533C96.9203 289.446 91.5223 290.554 86.5469 291.03C82.3062 291.437 79.3483 291.308 78.035 289.971C75.5911 287.486 74.2168 271.231 76.3867 272.499Z" fill="#333333"/>
<path fill-rule="evenodd" clip-rule="evenodd" d="M76.4932 169.213C76.4932 169.213 90.9931 241.808 91.6097 257.674C91.7658 261.706 84.2285 263.56 80.1971 264.416C76.1658 265.273 69.1652 266.335 67.4179 262.814C60.8513 249.589 40.8164 185.08 40.8164 185.08L32.6699 141.245L76.4932 169.213Z" fill="#7B2C2C"/>
<path fill-rule="evenodd" clip-rule="evenodd" d="M20.2515 167.782C20.2515 167.782 18.9876 184.125 17.7885 203.086C16.4333 224.427 6.76796 243.369 7.45698 251.767C7.78817 255.798 15.6224 258.196 19.7984 259.456C23.8488 260.682 31.1844 263.031 32.5054 259.331C35.3566 251.356 48.7678 226.638 52.7192 206.539C55.6428 191.67 57.8507 179.663 57.8507 179.663L63.0849 147.085L20.2515 167.782Z" fill="#7B2C2C"/>
<path fill-rule="evenodd" clip-rule="evenodd" d="M55.906 64.0179C55.906 64.0179 65.8873 66.0279 70.2498 77.1664C74.7798 88.7199 74.6466 97.1442 77.1552 118.862C80.0484 143.876 82.7892 172.51 84.0036 182.83C84.5327 187.318 76.9192 186.766 65.598 183.15C55.7461 179.998 52.2096 174.379 48.9625 169.385C47.5921 167.283 45.8143 162.285 45.3232 159.118C45.1101 157.721 42.0532 170.759 39.7692 174.821C35.4067 182.575 29.7004 186.001 24.5727 187.105C22.2544 187.604 11.4356 187.12 11.6335 184.616C15.6344 134.789 18.3258 113.258 23.6096 87.3723C24.8696 81.2016 27.6904 73.7175 31.2002 70.299C35.8064 65.8109 42.2131 63.5078 42.2131 63.5078L55.906 64.0179Z" fill="#333333"/>
<path fill-rule="evenodd" clip-rule="evenodd" d="M44.2225 75.3467C34.2107 79.2182 33.9024 98.7849 34.6599 107.746C35.9504 123.026 36.4453 136.468 46.2971 150.454C48.2919 153.286 52.2737 156.297 53.53 157.416C55.5133 159.183 57.4052 157.732 59.7806 158.307C61.8819 158.817 62.3388 159.518 62.1104 158.132C61.5051 154.489 68.0565 150.785 68.8521 141.329C69.3127 135.897 63.2524 124.347 62.5557 118.652C61.8439 112.847 61.2538 105.766 59.9367 100.608C55.7112 84.0451 48.5926 73.6603 44.2225 75.3467Z" fill="black" fill-opacity="0.2"/>
<path fill-rule="evenodd" clip-rule="evenodd" d="M70.1548 144.222C72.2181 145.467 76.12 155.517 69.6676 159.605C62.2863 164.28 57.2005 154.706 57.2842 152.14C57.3642 149.578 68.0916 142.977 70.1548 144.222Z" fill="#FBDECC"/>
<path fill-rule="evenodd" clip-rule="evenodd" d="M49.6596 73.067C46.5952 73.1584 43.6031 74.2661 41.7797 76.0249C39.0845 78.6249 38.0795 81.8606 37.4514 88.5947C36.3855 99.9883 38.2546 113.502 39.8991 125.002C40.8127 131.394 49.1038 148.235 54.2696 153.378C56.7858 155.879 59.1651 154.615 64.7686 151.185C67.9015 149.27 71.4418 146.339 71.2553 143.88C70.8898 139.091 61.9554 123.845 61.5252 121.443C60.6116 116.331 60.5621 111.112 60.2271 105.938C59.797 99.3298 60.722 87.2776 58.9595 81.7997C57.6424 77.6998 54.7036 72.9147 49.6596 73.067Z" fill="#333333"/>
<path fill-rule="evenodd" clip-rule="evenodd" d="M55.8414 64.2461C55.8261 64.9313 52.7503 65.4376 48.9702 65.3691C45.1901 65.3044 42.1333 64.6953 42.1485 64.0101L42.2132 60.4355V60.4394C42.217 61.0104 45.27 61.5281 49.0425 61.5928C52.8188 61.6575 55.8985 61.2464 55.9061 60.6716L55.8414 64.2461Z" fill="#7B2C2C"/>
<path fill-rule="evenodd" clip-rule="evenodd" d="M49.0803 59.5181C52.8604 59.5829 55.9172 60.1006 55.9058 60.6716C55.8982 61.2464 52.8185 61.6575 49.0422 61.5928C45.2621 61.5243 42.2015 61.0066 42.2129 60.4356C42.2243 59.8646 45.3002 59.4496 49.0803 59.5181Z" fill="#7B2C2C"/>
<path fill-rule="evenodd" clip-rule="evenodd" d="M62.7194 54.4401C62.609 54.4324 62.7688 54.7218 62.765 54.8436C62.7422 55.3004 62.6889 55.624 62.6394 56.233C62.628 56.3701 62.628 56.7926 62.5519 56.9144C62.5138 56.9754 62.2435 56.648 62.1331 56.7051C61.9504 56.8079 62.0684 57.3027 61.9504 57.4931C61.8324 57.6758 61.623 57.3294 61.4974 57.4474C61.3489 57.5882 61.5507 58.0565 61.3565 58.2087C61.269 58.2773 60.835 58.1021 60.8312 58.1402C60.8198 58.2506 60.8426 58.361 60.8502 58.4714C60.8807 59.012 60.6104 58.6732 60.2526 58.8483C60.0775 58.9358 60.2069 59.3736 59.9937 59.4688C59.8224 59.5449 59.5902 59.2366 59.4456 59.3546C59.2704 59.4878 59.3542 59.8038 59.1068 59.8342C58.9697 59.8494 58.8174 59.5487 58.6537 59.6477C58.3797 59.8152 58.4672 60.1426 58.0903 60.1388C57.9 60.1388 57.5688 59.739 57.428 59.7885C57.1539 59.8913 57.0207 60.2415 56.678 59.9027C56.5562 59.7809 56.4763 59.4688 56.3316 59.4002C56.1794 59.3279 55.989 59.72 55.7682 59.5183C55.5513 59.3203 55.5474 58.9168 55.3457 58.7188C55.3 58.6694 55.0602 58.7721 54.9498 58.6846C54.8013 58.5666 54.7404 58.3648 54.6072 58.2354C54.5425 58.1707 54.3978 58.262 54.2912 58.1707C53.9829 57.908 53.6669 57.3636 53.4728 56.9792C53.2634 56.5604 52.719 56.5033 52.5515 56.0161C52.5173 55.9133 52.5173 55.3194 52.5896 55.2052C52.7076 55.0187 53.0198 54.9464 53.1911 54.8778C53.8154 54.6266 54.5006 54.7408 55.1553 54.7065C56.4991 54.6266 57.8581 54.3449 59.1981 54.3182C60.1917 54.2992 61.1928 54.6037 62.1712 54.4934L62.7194 54.4401Z" fill="black"/>
<mask id="mask0_486_157" style="mask-type:luminance" maskUnits="userSpaceOnUse" x="22" y="0" width="56" height="49">
<path d="M22.1016 0H77.6496V48.3761H22.1016V0Z" fill="white"/>
</mask>
<g mask="url(#mask0_486_157)">
<path fill-rule="evenodd" clip-rule="evenodd" d="M44.9 39.3655C45.1513 41.6838 40.5832 47.1541 40.2177 48.0677C39.8523 47.6071 36.0494 45.9511 33.4227 44.3675C30.5943 42.6621 28.8165 41.4592 27.2406 39.7842C25.5808 38.0179 22.9618 34.9725 22.4593 32.0032C21.9834 29.1634 22.4745 27.2714 22.3755 25.4632C22.0482 19.597 24.081 15.0137 29.1896 12.0064C30.2859 11.3593 32.1855 6.01839 35.4403 3.69628C37.5112 2.21926 40.9486 0.985873 42.9015 0.787923C45.4863 0.529064 47.8655 0.0760618 50.3894 0.175037C52.6049 0.258786 54.71 1.28661 56.8951 1.89188C60.1803 2.80169 64.1736 3.49832 66.2863 5.82425C69.6972 9.58912 69.602 8.66027 70.942 11.6524C72.32 14.732 74.5812 15.4134 76.8577 16.9323C79.1075 18.4322 72.9862 26.3997 70.9534 27.1306C69.229 27.7511 44.7135 37.6791 44.9 39.3655Z" fill="black"/>
</g>
<path fill-rule="evenodd" clip-rule="evenodd" d="M69.8762 22.9926C70.4776 25.5926 71.3684 30.0884 70.5005 37.2603C70.3939 38.1206 72.9711 38.0788 72.8302 39.8641C72.6246 42.5136 69.8762 41.3906 69.7163 42.1291C68.9093 45.8674 67.7977 48.612 65.5022 52.0457C63.5075 55.0302 61.3643 56.2141 56.8419 56.2369C52.9894 56.2598 44.2377 51.9772 40.9906 49.1145C38.3183 46.7581 38.3906 44.2838 37.3513 39.0647C35.9695 39.6509 34.1004 39.0647 32.9355 37.5801C30.6591 34.6831 31.5613 31.5883 32.3493 30.1683C34.3554 26.5519 38.4172 29.4108 39.7382 32.5704C40.7431 30.6023 40.4653 30.3473 40.412 29.2052C40.3358 27.4617 40.3511 25.8819 41.6568 25.1625C43.3127 24.2527 44.626 24.9912 47.3098 24.4773C52.624 23.4571 50.812 19.8254 57.8088 20.2746C60.0129 20.4193 62.7423 22.6005 66.8879 21.6603C69.3889 21.0969 69.6325 21.9305 69.8762 22.9926Z" fill="#FBDECC"/>
<path fill-rule="evenodd" clip-rule="evenodd" d="M58.4686 161.143C56.8621 158.802 60.1512 155.41 64.9172 152.521C72.565 147.888 75.8616 151.364 75.8616 151.364L74.5559 166.579C74.5559 166.579 60.075 163.488 58.4686 161.143Z" fill="#333333"/>
</svg>
